<?xml version="1.0" encoding="utf-8"?>
<!-- Generator: Adobe Illustrator 27.5.0, SVG Export Plug-In . SVG Version: 6.00 Build 0)  -->
<svg version="1.1" xmlns="http://www.w3.org/2000/svg" xmlns:xlink="http://www.w3.org/1999/xlink" x="0px" y="0px"
	 viewBox="0 0 500 500" style="enable-background:new 0 0 500 500;" xml:space="preserve">
<g id="Background_Complete">
	<g>
		<g>
			<g>
				<rect x="341.023" y="33.704" style="fill:#E0E0E0;" width="111.773" height="185.016"/>
			</g>
		</g>
		<g>
			<g>
				<rect x="337.305" y="33.704" style="fill:#EBEBEB;" width="111.773" height="185.016"/>
			</g>
		</g>
		<g>
			<g>
				<rect x="342.065" y="37.456" style="fill:#FFFFFF;" width="102.254" height="177.512"/>
			</g>
		</g>
		<g>
			<g>
				<g>
					<rect x="361.531" y="60.522" style="fill:#EBEBEB;" width="62.878" height="131.379"/>
				</g>
			</g>
			<g>
				<g>
					<path style="fill:#E0E0E0;" d="M361.531,145.41c-0.146-12.273,10.889-24.254,23.043-25.967
						c5.795-0.817,11.952,0.333,17.367-1.887c9.665-3.963,12.741-16.805,22.468-20.614l0.444,94.959h-63.322V145.41z"/>
				</g>
			</g>
		</g>
	</g>
	<g>
		<g>
			<g>
				<g>
					<g>
						<g>
							<g>
								<g>
									<g>
										<g>
											<rect x="207.381" y="39.971" style="fill:#E0E0E0;" width="74.923" height="78.101"/>
										</g>
									</g>
								</g>
							</g>
						</g>
					</g>
				</g>
			</g>
		</g>
		<g>
			<g>
				<g>
					<g>
						<g>
							<g>
								<g>
									<g>
										<g>
											<rect x="202.307" y="39.971" style="fill:#FAFAFA;" width="74.923" height="78.101"/>
										</g>
									</g>
								</g>
							</g>
						</g>
					</g>
				</g>
			</g>
			<g>
				<g>
					<g>
						<g>
							<g>
								<g>
									<g>
										<g>
											<path style="fill:#E0E0E0;" d="M277.253,118.094h-74.969V39.947h74.969V118.094z M202.33,118.048h74.876V39.994H202.33
												V118.048z"/>
										</g>
									</g>
								</g>
							</g>
						</g>
					</g>
				</g>
			</g>
		</g>
		<g>
			<g>
				<g>
					<g>
						<g>
							<g>
								<g>
									<g>
										<g>
											<rect x="212.379" y="50.47" style="fill:#FFFFFF;" width="54.779" height="57.103"/>
										</g>
									</g>
								</g>
							</g>
						</g>
					</g>
				</g>
			</g>
		</g>
		<g>
			<g>
				<g>
					<g>
						<g>
							<g>
								<g>
									<g>
										<g>
											<g>
												<path style="fill:#E0E0E0;" d="M212.379,107.952c0.043,0.051-0.477,0.648-1.352,1.572
													c-0.875,0.923-2.104,2.173-3.482,3.53c-1.378,1.358-2.645,2.567-3.579,3.425c-0.934,0.858-1.536,1.366-1.583,1.319
													c-0.047-0.048,0.47-0.642,1.345-1.565c0.875-0.923,2.107-2.176,3.49-3.537c1.382-1.361,2.651-2.574,3.585-3.432
													C211.737,108.406,212.336,107.901,212.379,107.952z"/>
											</g>
										</g>
									</g>
								</g>
							</g>
						</g>
					</g>
				</g>
			</g>
		</g>
		<g>
			<g>
				<g>
					<g>
						<g>
							<g>
								<g>
									<g>
										<g>
											<g>
												<path style="fill:#E0E0E0;" d="M267.158,107.812c0.051-0.043,0.649,0.477,1.572,1.352
													c0.923,0.875,2.173,2.104,3.53,3.482c1.358,1.378,2.567,2.645,3.426,3.579c0.858,0.934,1.366,1.536,1.319,1.583
													c-0.048,0.047-0.642-0.47-1.565-1.344c-0.923-0.875-2.176-2.108-3.537-3.49c-1.361-1.382-2.573-2.651-3.432-3.585
													C267.612,108.454,267.107,107.855,267.158,107.812z"/>
											</g>
										</g>
									</g>
								</g>
							</g>
						</g>
					</g>
				</g>
			</g>
		</g>
		<g>
			<g>
				<g>
					<g>
						<g>
							<g>
								<g>
									<g>
										<g>
											<g>
												<path style="fill:#E0E0E0;" d="M267.009,50.622c-0.043-0.051,0.477-0.648,1.352-1.572
													c0.875-0.923,2.104-2.173,3.482-3.53c1.378-1.358,2.645-2.567,3.579-3.426c0.934-0.858,1.536-1.366,1.583-1.318
													c0.047,0.048-0.47,0.642-1.345,1.565c-0.875,0.923-2.107,2.175-3.49,3.537c-1.382,1.361-2.651,2.573-3.586,3.432
													C267.65,50.168,267.052,50.673,267.009,50.622z"/>
											</g>
										</g>
									</g>
								</g>
							</g>
						</g>
					</g>
				</g>
			</g>
		</g>
		<g>
			<g>
				<g>
					<g>
						<g>
							<g>
								<g>
									<g>
										<g>
											<g>
												<path style="fill:#E0E0E0;" d="M212.229,50.762c-0.051,0.043-0.648-0.477-1.572-1.352
													c-0.923-0.875-2.173-2.104-3.53-3.482c-1.358-1.379-2.567-2.645-3.425-3.579c-0.859-0.934-1.366-1.536-1.318-1.583
													c0.047-0.047,0.641,0.469,1.565,1.344c0.923,0.875,2.176,2.107,3.537,3.49c1.361,1.382,2.573,2.652,3.432,3.586
													C211.775,50.12,212.28,50.719,212.229,50.762z"/>
											</g>
										</g>
									</g>
								</g>
							</g>
						</g>
					</g>
				</g>
			</g>
		</g>
		<g>
			<g>
				<g>
					<g>
						<g>
							<g>
								<g>
									<g>
										<g>
											<g>
												<path style="fill:#E0E0E0;" d="M267.009,107.572c-0.004-0.004-0.008-0.097-0.012-0.277
													c-0.003-0.195-0.007-0.457-0.012-0.797c-0.006-0.716-0.014-1.746-0.025-3.083c-0.013-2.705-0.032-6.641-0.055-11.638
													c-0.026-10.001-0.063-24.249-0.107-41.308l0.211,0.211c-15.947,0.009-34.675,0.02-54.624,0.032h-0.005l0.243-0.243
													c-0.013,20.959-0.024,40.567-0.034,57.103l-0.208-0.208c16.37,0.044,29.999,0.081,39.555,0.106
													c4.774,0.023,8.53,0.042,11.111,0.054c1.275,0.011,2.256,0.019,2.939,0.024c0.323,0.005,0.573,0.009,0.759,0.012
													C266.916,107.565,267.005,107.568,267.009,107.572c0.004,0.004-0.077,0.008-0.241,0.012
													c-0.181,0.003-0.423,0.007-0.737,0.012c-0.674,0.006-1.642,0.013-2.9,0.024c-2.57,0.013-6.309,0.031-11.063,0.054
													c-9.588,0.026-23.263,0.062-39.688,0.106l-0.208,0l0-0.209c-0.01-16.536-0.022-36.144-0.034-57.103l0-0.243h0.243h0.005
													c19.949,0.011,38.677,0.022,54.624,0.031h0.212l0,0.211c-0.045,17.115-0.082,31.409-0.107,41.443
													c-0.024,4.977-0.043,8.896-0.056,11.59c-0.011,1.319-0.019,2.335-0.025,3.042c-0.005,0.33-0.009,0.585-0.012,0.774
													C267.016,107.491,267.013,107.576,267.009,107.572z"/>
											</g>
										</g>
									</g>
								</g>
							</g>
						</g>
					</g>
				</g>
			</g>
		</g>
		<g>
			<g>
				<g>
					<g>
						<g>
							<g>
								<g>
									<g>
										<g>
											<rect x="230.629" y="69.881" style="fill:#EBEBEB;" width="18.279" height="18.279"/>
										</g>
									</g>
								</g>
							</g>
						</g>
					</g>
				</g>
			</g>
		</g>
	</g>
	<path style="fill:#E0E0E0;" d="M328.947,233.537c0.464,0.464,15.785,10.369,15.785,10.369l-15.785,9.44v-6.809
		c0,0-16.6-1.977-18.694-15.543c-1.693-10.966-1.034-14.171-1.034-14.171h5.8c0,0-2.225,23.156,13.928,23.678V233.537z"/>
	<path style="fill:#E0E0E0;" d="M173.751,234.347c-0.464,0.464-15.785,10.369-15.785,10.369l15.785,9.44v-6.809
		c0,0,16.6-1.977,18.694-15.543c1.693-10.966,1.034-14.171,1.034-14.171h-5.8c0,0,2.225,23.156-13.928,23.678V234.347z"/>
	<polygon style="fill:#E0E0E0;" points="38.97,477.918 69.143,423.686 422.211,423.686 461.03,477.918 	"/>
	<g>
		<path style="fill:#FAFAFA;" d="M451.182,464.16c0,0.144-89.64,0.26-200.191,0.26c-110.589,0-200.21-0.117-200.21-0.26
			s89.621-0.26,200.21-0.26C361.542,463.9,451.182,464.016,451.182,464.16z"/>
	</g>
	<g>
		<path style="fill:#FAFAFA;" d="M439.081,447.819c0,0.144-85.826,0.26-191.673,0.26c-105.884,0-191.691-0.117-191.691-0.26
			s85.807-0.26,191.691-0.26C353.255,447.558,439.081,447.675,439.081,447.819z"/>
	</g>
	<g>
		<path style="fill:#FAFAFA;" d="M429.655,435.099c0,0.144-82.193,0.26-183.559,0.26c-101.401,0-183.576-0.117-183.576-0.26
			s82.175-0.26,183.576-0.26C347.462,434.839,429.655,434.956,429.655,435.099z"/>
	</g>
</g>
<g id="Background_Simple" style="display:none;">
	<path style="display:inline;fill:#F5F5F5;" d="M406.086,86.571l-1.847-3.044c-15.57-25.657-43.72-41.124-73.4-39.247
		c-3.815,0.241-7.614,0.758-11.362,1.56c-26.985,5.776-50.465,26.183-60.198,52.317c-5.724,15.37-7.323,33.067-18.185,45.267
		c-14.136,15.878-38.136,16.376-59.237,15.719c-21.101-0.658-45.117-0.097-59.184,15.844c-8.81,9.983-11.61,24.18-10.9,37.55
		c1.881,35.397,26.546,67.047,57.913,82.778s68.299,17.141,102.629,10.22c48.092-9.694,93.828-36.318,121.318-77.439
		C421.123,186.976,428.081,130.953,406.086,86.571z"/>
</g>
<g id="Floor">
	<g>
		<path style="fill:#263238;" d="M470.672,419.305c0,0.144-98.806,0.26-220.662,0.26c-121.898,0-220.683-0.117-220.683-0.26
			c0-0.144,98.785-0.26,220.683-0.26C371.866,419.044,470.672,419.161,470.672,419.305z"/>
	</g>
</g>
<g id="Plant">
	<g>
		<path style="fill:#455A64;" d="M131.767,203.161c-11.262,5.834-19.899,15.878-26.108,26.938
			c-6.21,11.06-10.212,23.195-14.176,35.243l-3.469,62.137c13.105-22.294,23.623-48.502,26.465-74.205
			c-2.907-0.259-5.814-0.518-8.721-0.777c5.847-0.893,10.755-5.129,13.878-10.153c3.123-5.023,4.73-10.816,6.299-16.519
			c-3.547,0.527-7.093,1.054-10.64,1.582C123.626,221.846,129.667,212.956,131.767,203.161z"/>
		<g style="opacity:0.3;">
			<path d="M131.767,203.161c-11.262,5.834-19.899,15.878-26.108,26.938c-6.21,11.06-10.212,23.195-14.176,35.243l-3.469,62.137
				c13.105-22.294,23.623-48.502,26.465-74.205c-2.907-0.259-5.814-0.518-8.721-0.777c5.847-0.893,10.755-5.129,13.878-10.153
				c3.123-5.023,4.73-10.816,6.299-16.519c-3.547,0.527-7.093,1.054-10.64,1.582C123.626,221.846,129.667,212.956,131.767,203.161z"
				/>
		</g>
		<path style="fill:#455A64;" d="M86.074,342.039c0,0-28.444-34.045-28.115-66.545h11.49c0,0-12.48-8.207-11.493-12.803
			c0.988-4.596,1.316-21.995,1.316-21.995l10.505,2.626c0,0-7.879-3.939-8.864-10.177c-0.985-6.237,2.298-35.127,2.298-35.127
			s12.803,13.46,16.743,27.248c3.939,13.788,14.28,29.874,11.244,71.895C88.16,339.181,86.074,342.039,86.074,342.039z"/>
		<path style="fill:#455A64;" d="M100.494,345.252c0,0,30.816-20.529,37.663-46.73l-9.238-2.514c0,0,11.829-3.868,12.041-7.779
			c0.212-3.911,3.754-17.971,3.754-17.971l-9.02-0.187c0,0,7.196-1.443,9.353-6.243c2.157-4.799,5.838-28.744,5.838-28.744
			s-13.238,8.02-19.422,18.243c-6.184,10.223-18.017,20.894-24.769,55.342C99.941,343.117,100.494,345.252,100.494,345.252z"/>
		<g>
			<path style="fill:#263238;" d="M70.981,227.701c0.009-0.002,0.043,0.118,0.102,0.353c0.062,0.262,0.144,0.608,0.247,1.048
				c0.213,0.954,0.515,2.309,0.901,4.04c0.394,1.754,0.852,3.905,1.349,6.41c0.506,2.503,1.095,5.35,1.672,8.512
				c1.218,6.312,2.502,13.859,3.825,22.255c1.282,8.402,2.563,17.66,3.701,27.403c1.115,9.749,1.981,19.057,2.649,27.531
				c0.628,8.478,1.099,16.119,1.353,22.543c0.16,3.21,0.235,6.117,0.314,8.669c0.088,2.552,0.132,4.75,0.149,6.548
				c0.019,1.773,0.034,3.162,0.044,4.139c-0.001,0.452-0.001,0.807-0.002,1.076c-0.003,0.243-0.009,0.367-0.018,0.367
				c-0.009,0-0.021-0.124-0.035-0.366c-0.012-0.269-0.029-0.624-0.05-1.076c-0.033-0.976-0.081-2.364-0.142-4.136
				c-0.048-1.796-0.122-3.993-0.237-6.543c-0.106-2.55-0.207-5.454-0.391-8.662c-0.302-6.418-0.811-14.052-1.464-22.522
				c-0.695-8.467-1.574-17.767-2.688-27.509c-1.137-9.736-2.403-18.989-3.658-27.39c-1.296-8.395-2.542-15.943-3.713-22.261
				c-0.553-3.165-1.118-6.016-1.596-8.523c-0.47-2.509-0.899-4.665-1.262-6.425c-0.345-1.739-0.615-3.101-0.805-4.06
				c-0.082-0.444-0.147-0.794-0.197-1.059C70.989,227.826,70.972,227.703,70.981,227.701z"/>
		</g>
		<path style="fill:#455A64;" d="M82.128,362.887c0,0-26.03-29.534-34.112-47.388l6.101-2.607c-4.423,0.73-8.954-1.171-12.383-4.057
			c-3.429-2.887-5.948-6.683-8.417-10.424l8.038-1.358c-7.309-2.051-13.749-7.039-17.562-13.604
			c9.485,1.56,18.066,6.77,25.137,13.281c5.726,5.273,10.575,11.395,15.232,17.649c2.272,3.051,4.259,6.302,5.915,9.726
			C74.452,333.147,82.143,352.04,82.128,362.887z"/>
		<g>
			<path style="fill:#263238;" d="M138.566,252.275c0.008,0.004-0.033,0.106-0.121,0.301c-0.102,0.219-0.234,0.502-0.401,0.858
				c-0.378,0.78-0.909,1.878-1.586,3.276c-1.396,2.835-3.373,6.959-5.766,12.077c-2.401,5.115-5.162,11.25-8.129,18.105
				c-2.942,6.865-6.076,14.457-9.194,22.493c-3.1,8.046-5.889,15.773-8.331,22.833c-2.416,7.069-4.501,13.466-6.165,18.866
				c-1.673,5.396-2.984,9.777-3.858,12.814c-0.44,1.49-0.785,2.659-1.031,3.49c-0.117,0.375-0.209,0.674-0.281,0.904
				c-0.066,0.203-0.104,0.306-0.113,0.303c-0.009-0.002,0.012-0.11,0.062-0.318c0.059-0.234,0.135-0.537,0.231-0.918
				c0.223-0.837,0.537-2.016,0.937-3.517c0.814-3.055,2.073-7.453,3.701-12.867c1.62-5.416,3.67-11.83,6.063-18.913
				c2.419-7.074,5.196-14.813,8.299-22.865c3.121-8.043,6.271-15.635,9.24-22.496c2.994-6.85,5.792-12.973,8.237-18.071
				c2.437-5.101,4.465-9.203,5.918-12.011c0.714-1.38,1.275-2.463,1.673-3.233c0.186-0.347,0.333-0.622,0.447-0.835
				C138.501,252.365,138.558,252.271,138.566,252.275z"/>
		</g>
		<g>
			<path style="fill:#263238;" d="M84.336,375.543c-0.018,0.002-0.06-0.185-0.124-0.543c-0.067-0.416-0.151-0.934-0.253-1.568
				c-0.099-0.682-0.226-1.515-0.406-2.477c-0.175-0.963-0.344-2.064-0.605-3.267c-0.467-2.418-1.136-5.273-1.988-8.413
				c-0.88-3.132-1.959-6.544-3.276-10.061c-1.336-3.51-2.782-6.785-4.192-9.717c-1.436-2.92-2.821-5.505-4.069-7.628
				c-0.599-1.076-1.2-2.014-1.705-2.852c-0.501-0.841-0.956-1.55-1.332-2.128c-0.342-0.543-0.621-0.987-0.846-1.344
				c-0.189-0.311-0.281-0.479-0.266-0.489c0.015-0.01,0.136,0.138,0.353,0.429c0.246,0.342,0.553,0.769,0.928,1.291
				c0.403,0.561,0.884,1.256,1.41,2.084c0.529,0.826,1.155,1.753,1.776,2.82c1.292,2.106,2.717,4.683,4.183,7.604
				c1.44,2.934,2.906,6.219,4.248,9.745c1.323,3.533,2.393,6.966,3.251,10.119c0.83,3.161,1.464,6.036,1.887,8.47
				c0.24,1.212,0.383,2.321,0.531,3.29c0.153,0.969,0.251,1.808,0.32,2.496c0.063,0.639,0.115,1.163,0.157,1.582
				C84.347,375.349,84.354,375.54,84.336,375.543z"/>
		</g>
		<rect x="61.713" y="368.595" style="fill:#FF725E;" width="56.97" height="11.621"/>
		<polygon style="fill:#FF725E;" points="67.142,380.216 73.304,419.305 107.729,419.305 113.472,380.216 		"/>
		<g>
			<path style="fill:#263238;" d="M115.188,380.216c0,0.144-10.777,0.26-24.068,0.26c-13.296,0-24.07-0.117-24.07-0.26
				s10.775-0.26,24.07-0.26C104.411,379.956,115.188,380.073,115.188,380.216z"/>
		</g>
	</g>
</g>
<g id="Table">
	<g>
		<g>
			<g>
				<path style="fill:#455A64;" d="M365.767,163.823c-2.048-0.283-3.894,0.673-4.87,2.074c-0.976,1.401-1.204,3.182-1.164,4.945
					c0.035,1.55,0.296,3.203,1.344,4.615c1.246,1.678,3.467,2.756,5.608,3.054c2.141,0.299,4.207-0.096,6.05-0.759
					c0.478-2.009-0.025-4.517-0.476-6.668c-0.325-1.549-0.879-3.131-1.959-4.503C369.22,165.208,367.545,164.069,365.767,163.823z"
					/>
			</g>
			<g>
				<g>
					<path style="fill:#263238;" d="M410.022,159.139c0.017,0.006-0.05,0.245-0.192,0.694c-0.164,0.496-0.379,1.145-0.646,1.954
						c-0.581,1.689-1.381,4.149-2.319,7.201c-0.947,3.05-1.979,6.71-3.029,10.799c-1.025,4.095-2.054,8.621-2.967,13.406
						c-0.895,4.79-1.586,9.381-2.124,13.568c-0.512,4.191-0.885,7.976-1.115,11.161c-0.238,3.184-0.39,5.766-0.465,7.551
						c-0.046,0.851-0.082,1.534-0.11,2.055c-0.031,0.47-0.056,0.716-0.074,0.716s-0.028-0.248-0.031-0.719
						c0.003-0.522,0.007-1.207,0.013-2.059c0.012-1.789,0.108-4.376,0.3-7.569c0.183-3.194,0.519-6.991,1.006-11.194
						c0.513-4.2,1.192-8.805,2.089-13.607c0.915-4.797,1.961-9.331,3.014-13.429c1.078-4.091,2.149-7.749,3.142-10.79
						c0.985-3.043,1.839-5.488,2.48-7.158c0.306-0.796,0.551-1.435,0.739-1.923C409.906,159.359,410.005,159.132,410.022,159.139z"
						/>
				</g>
			</g>
			<g>
				<g>
					<path style="fill:#263238;" d="M370.004,173.381c0.015-0.009,0.148,0.182,0.387,0.556c0.262,0.422,0.601,0.968,1.022,1.647
						c0.887,1.43,2.099,3.545,3.526,6.195c1.436,2.646,3.032,5.858,4.69,9.478c1.632,3.631,3.312,7.676,4.884,11.995
						c1.553,4.327,2.849,8.512,3.915,12.348c1.04,3.844,1.866,7.334,2.454,10.287c0.597,2.95,1.017,5.35,1.25,7.017
						c0.11,0.791,0.199,1.427,0.267,1.919c0.055,0.439,0.076,0.671,0.058,0.674c-0.018,0.003-0.073-0.224-0.162-0.658
						c-0.093-0.487-0.214-1.118-0.363-1.902c-0.293-1.655-0.768-4.04-1.41-6.974c-0.633-2.936-1.494-6.409-2.556-10.235
						c-1.089-3.818-2.394-7.986-3.942-12.299c-1.567-4.305-3.228-8.343-4.832-11.975c-1.629-3.62-3.187-6.841-4.578-9.503
						c-1.382-2.666-2.543-4.804-3.375-6.264c-0.386-0.698-0.697-1.261-0.936-1.695C370.092,173.6,369.989,173.39,370.004,173.381z"
						/>
				</g>
			</g>
			<g>
				<path style="fill:#FF725E;" d="M406.103,224.79H384.37c-0.603,0-1.091-0.489-1.091-1.091v-0.064
					c0-0.603,0.489-1.092,1.091-1.092h21.733c0.603,0,1.091,0.489,1.091,1.092v0.064C407.195,224.302,406.706,224.79,406.103,224.79
					z"/>
			</g>
			<g>
				<path style="fill:#FF725E;" d="M415.002,247.792c-0.796-8.755-7.694-9.949-9.02-10.878c-0.284-0.199-0.538-0.453-0.761-0.729
					c-0.832-1.028-1.228-2.341-1.228-3.663v-8.855h-8.289h-0.731h-8.29v8.855c0,1.322-0.396,2.636-1.228,3.663
					c-0.223,0.276-0.477,0.53-0.761,0.729c-1.327,0.929-8.225,2.122-9.02,10.878s-3.714,28.653,1.459,35.02
					c4.766,5.866,9.422,6.215,17.177,6.234v0.001c0.349,0,0.691,0,1.029,0c0.338,0,0.679,0,1.029,0v-0.001
					c7.755-0.018,12.411-0.368,17.177-6.234C418.716,276.445,415.798,256.547,415.002,247.792z"/>
			</g>
			<g>
				<g>
					<path style="fill:#263238;" d="M406.644,224.857c0,0.144-5.108,0.26-11.407,0.26c-6.301,0-11.408-0.117-11.408-0.26
						s5.107-0.26,11.408-0.26C401.536,224.597,406.644,224.713,406.644,224.857z"/>
				</g>
			</g>
			<g>
				<path style="fill:#455A64;" d="M420.524,152.408c-0.781-1.986-2.859-3.254-4.974-3.537c-2.115-0.283-4.258,0.278-6.238,1.076
					c-1.74,0.702-3.475,1.652-4.512,3.215c-1.234,1.859-1.261,4.346-0.447,6.423c0.814,2.077,2.374,3.787,4.118,5.178
					c2.536-0.432,5.112-1.973,7.309-3.312c1.582-0.965,3.079-2.152,4.055-3.727C420.81,156.149,421.202,154.133,420.524,152.408z"/>
			</g>
			<g>
				<path style="fill:#455A64;" d="M364.682,195.879c-0.926-1.398-0.806-3.306-0.035-4.795c0.771-1.489,2.098-2.616,3.503-3.53
					c1.236-0.803,2.629-1.492,4.103-1.455c1.752,0.044,3.365,1.147,4.335,2.607c0.97,1.46,1.368,3.234,1.477,4.984
					c-1.421,1.438-3.573,2.401-5.425,3.211c-1.334,0.584-2.773,1.012-4.226,0.93C366.96,197.749,365.486,197.093,364.682,195.879z"
					/>
			</g>
			<g>
				<path style="fill:#455A64;" d="M388.198,185.032c-0.926-1.398-0.806-3.306-0.035-4.795c0.771-1.489,2.098-2.616,3.503-3.53
					c1.236-0.803,2.629-1.492,4.103-1.455c1.752,0.044,3.365,1.147,4.335,2.607c0.97,1.46,1.368,3.234,1.477,4.984
					c-1.421,1.438-3.573,2.401-5.425,3.211c-1.334,0.584-2.772,1.012-4.226,0.93C390.476,186.903,389.002,186.246,388.198,185.032z"
					/>
			</g>
			<g>
				<path style="fill:#455A64;" d="M419.274,183.343c1.117-1.28,1.252-3.214,0.677-4.813c-0.575-1.599-1.758-2.908-3.048-4.015
					c-1.134-0.973-2.442-1.851-3.927-2.011c-1.766-0.191-3.534,0.702-4.704,2.039c-1.17,1.337-1.807,3.066-2.151,4.809
					c1.235,1.635,3.269,2.89,5.021,3.952c1.262,0.765,2.65,1.388,4.121,1.5C416.735,184.917,418.304,184.455,419.274,183.343z"/>
			</g>
			<g>
				<path style="fill:#455A64;" d="M386.819,171.121c-0.339-1.965-1.581-3.309-2.931-3.704s-2.79,0.025-4.143,0.684
					c-1.19,0.579-2.398,1.399-3.204,2.851c-0.959,1.727-1.188,4.13-0.836,6.185c0.352,2.055,1.22,3.797,2.235,5.242
					c1.684-0.273,3.488-1.616,5.029-2.785c1.11-0.842,2.183-1.905,2.951-3.372C386.687,174.754,387.113,172.827,386.819,171.121z"/>
			</g>
			<g>
				<path style="fill:#455A64;" d="M397.278,158.736c-2.048-0.283-3.894,0.673-4.87,2.074c-0.976,1.401-1.204,3.182-1.164,4.946
					c0.035,1.55,0.296,3.203,1.344,4.615c1.246,1.678,3.467,2.756,5.608,3.055c2.141,0.298,4.207-0.097,6.05-0.759
					c0.478-2.009-0.025-4.517-0.476-6.668c-0.325-1.549-0.879-3.131-1.959-4.504C400.731,160.121,399.056,158.981,397.278,158.736z"
					/>
			</g>
			<g>
				<g>
					<path style="fill:#263238;" d="M378.498,174.15c0.078,0.012-0.027,0.995-0.141,2.582c-0.114,1.587-0.212,3.782-0.097,6.2
						c0.119,2.419,0.448,4.589,0.767,6.145c0.316,1.556,0.58,2.509,0.502,2.534c-0.058,0.02-0.448-0.897-0.861-2.45
						c-0.415-1.551-0.808-3.75-0.929-6.202c-0.117-2.452,0.042-4.673,0.251-6.262C378.2,175.105,378.434,174.14,378.498,174.15z"/>
				</g>
			</g>
			<g>
				<g>
					<path style="fill:#263238;" d="M383.217,200.22c-0.139,0.063-1.017-1.87-2.775-3.758c-0.868-0.946-1.759-1.696-2.451-2.168
						c-0.687-0.482-1.18-0.66-1.157-0.74c0.011-0.061,0.575,0.001,1.348,0.424c0.775,0.411,1.745,1.151,2.644,2.131
						C382.653,198.076,383.349,200.187,383.217,200.22z"/>
				</g>
			</g>
			<g>
				<g>
					<path style="fill:#263238;" d="M401.124,182.334c0.127-0.045,0.731,1.521,0.84,3.567c0.12,2.046-0.306,3.669-0.437,3.639
						c-0.151-0.025,0.035-1.634-0.083-3.609C401.34,183.955,400.977,182.376,401.124,182.334z"/>
				</g>
			</g>
			<g>
				<g>
					<path style="fill:#263238;" d="M407.265,177.671c0.118,0.082-0.865,1.697-2.195,3.607c-1.331,1.91-2.504,3.391-2.623,3.309
						c-0.118-0.082,0.865-1.697,2.195-3.607C405.973,179.07,407.147,177.589,407.265,177.671z"/>
				</g>
			</g>
			<g>
				<g>
					<path style="fill:#263238;" d="M404.024,177.302c-0.144-0.007-0.193-1.404-0.109-3.121c0.083-1.717,0.268-3.103,0.411-3.096
						c0.143,0.007,0.192,1.404,0.109,3.121C404.352,175.923,404.167,177.309,404.024,177.302z"/>
				</g>
			</g>
			<g>
				<g>
					<path style="fill:#263238;" d="M377.476,263.214c-0.068,0.005-0.227-1.249-0.341-3.287c-0.114-2.037-0.165-4.861-0.023-7.973
						c0.081-1.557,0.152-3.035,0.348-4.39c0.197-1.351,0.6-2.561,1.176-3.441c0.566-0.886,1.24-1.443,1.75-1.723
						c0.511-0.285,0.836-0.336,0.844-0.31c0.063,0.077-1.271,0.47-2.279,2.224c-0.503,0.854-0.849,2.002-1.015,3.318
						c-0.165,1.315-0.223,2.8-0.303,4.346c-0.141,3.097-0.148,5.905-0.129,7.938C377.522,261.948,377.551,263.209,377.476,263.214z"
						/>
				</g>
			</g>
		</g>
		<g>
			<g>
				<g>
					<g>
						<path style="fill:#263238;" d="M353.647,418.237c-0.294,0-0.594-0.043-0.893-0.132c-1.309-0.39-2.155-1.523-2.155-2.889
							v-35.185h0.786v35.185c0,1.227,0.858,1.917,1.593,2.135c0.736,0.219,1.831,0.109,2.501-0.918l23.892-36.617l0.659,0.43
							l-23.893,36.617C355.561,417.745,354.639,418.237,353.647,418.237z"/>
					</g>
				</g>
				<g>
					<g>
						<path style="fill:#263238;" d="M448.531,418.237c-0.992,0-1.914-0.492-2.49-1.374l-23.893-36.617l0.659-0.43l23.893,36.617
							c0.67,1.027,1.766,1.139,2.501,0.918c0.735-0.218,1.593-0.909,1.593-2.135v-35.185h0.786v35.185
							c0,1.365-0.846,2.5-2.155,2.889C449.125,418.194,448.825,418.237,448.531,418.237z"/>
					</g>
				</g>
				<g>
					<g>
						<rect x="337.398" y="288.399" style="fill:#6F4439;" width="122.694" height="95.285"/>
					</g>
				</g>
			</g>
			<g>
				<g>
					<g>
						<path style="fill:#263238;" d="M452.961,331.398c0,0-0.01-0.211-0.014-0.612c-0.004-0.41-0.008-1.001-0.015-1.776
							c-0.008-1.568-0.02-3.869-0.035-6.848c-0.018-5.96-0.044-14.624-0.078-25.49l0.142,0.135
							c-26.182,0.017-65.213,0.042-108.707,0.07h-0.007l0.215-0.205c-0.003,12.07-0.005,23.777-0.007,34.726l-0.208-0.198
							c31.29,0.037,58.44,0.069,77.779,0.092c9.677,0.024,17.397,0.043,22.711,0.056c2.651,0.011,4.699,0.02,6.097,0.026
							c0.689,0.005,1.215,0.01,1.582,0.012C452.772,331.39,452.961,331.398,452.961,331.398s-0.171,0.008-0.52,0.013
							c-0.361,0.003-0.879,0.007-1.557,0.012c-1.388,0.006-3.421,0.014-6.053,0.025c-5.303,0.013-13.007,0.032-22.663,0.056
							c-19.375,0.023-46.575,0.055-77.922,0.092l-0.208,0l0-0.198c-0.002-10.948-0.004-22.656-0.007-34.726v-0.205h0.215h0.007
							c43.494,0.028,82.525,0.053,108.707,0.07l0.142,0l0,0.135c-0.033,10.9-0.059,19.592-0.078,25.571
							c-0.015,2.966-0.027,5.256-0.035,6.818c-0.006,0.764-0.011,1.348-0.015,1.752C452.97,331.205,452.961,331.398,452.961,331.398
							z"/>
					</g>
				</g>
			</g>
			<g>
				<g>
					<g>
						<path style="fill:#263238;" d="M452.961,372.581c0,0-0.01-0.211-0.014-0.612c-0.004-0.41-0.008-1.002-0.015-1.777
							c-0.008-1.568-0.02-3.869-0.035-6.848c-0.018-5.96-0.044-14.624-0.078-25.49l0.142,0.135
							c-26.182,0.017-65.213,0.042-108.707,0.07h-0.007l0.215-0.205c-0.003,12.07-0.005,23.777-0.007,34.726l-0.208-0.198
							c31.29,0.037,58.44,0.069,77.779,0.092c9.677,0.024,17.397,0.043,22.711,0.056c2.651,0.011,4.699,0.02,6.097,0.025
							c0.689,0.005,1.215,0.01,1.582,0.013C452.772,372.573,452.961,372.581,452.961,372.581s-0.171,0.008-0.52,0.013
							c-0.361,0.003-0.879,0.007-1.557,0.012c-1.388,0.006-3.421,0.014-6.053,0.025c-5.303,0.013-13.007,0.032-22.663,0.056
							c-19.375,0.023-46.575,0.055-77.922,0.092l-0.208,0l0-0.198c-0.002-10.948-0.004-22.656-0.007-34.726v-0.205h0.215h0.007
							c43.494,0.028,82.525,0.053,108.707,0.07l0.142,0l0,0.135c-0.033,10.9-0.059,19.592-0.078,25.571
							c-0.015,2.966-0.027,5.256-0.035,6.818c-0.006,0.764-0.011,1.348-0.015,1.753C452.97,372.388,452.961,372.581,452.961,372.581
							z"/>
					</g>
				</g>
			</g>
			<g>
				<g>
					<polygon style="fill:#263238;" points="376.326,296.468 379.856,300.05 420.34,300.05 424.366,296.468 					"/>
				</g>
			</g>
			<g>
				<g>
					<polygon style="fill:#263238;" points="376.475,337.651 380.006,341.233 420.49,341.233 424.516,337.651 					"/>
				</g>
			</g>
		</g>
	</g>
</g>
<g id="Picture">
	<g>
		<g>
			<g>
				<g>
					<g>
						<rect x="48.395" y="39.965" style="fill:#455A64;" width="98.888" height="132.513"/>
					</g>
				</g>
			</g>
			<g>
				<g>
					<g>
						<g>
							<path style="fill:#263238;" d="M147.282,39.965c0.009,0.009-0.082,0.129-0.27,0.355c-0.217,0.254-0.497,0.582-0.849,0.994
								c-0.793,0.902-1.909,2.171-3.34,3.797l-0.039,0.045l-0.062,0.001c-8.597,0.091-25.49,0.153-44.881,0.153
								c-19.397,0-36.29-0.062-44.886-0.153l-0.062-0.001l-0.04-0.045c-1.431-1.627-2.547-2.896-3.34-3.797
								c-0.352-0.412-0.631-0.739-0.849-0.994c-0.188-0.226-0.279-0.346-0.27-0.355c0.009-0.009,0.119,0.093,0.324,0.302
								c0.231,0.242,0.528,0.552,0.901,0.943c0.816,0.879,1.964,2.117,3.436,3.704l-0.101-0.046
								c8.597-0.091,25.489-0.153,44.886-0.153c19.391,0,36.284,0.062,44.881,0.153l-0.101,0.045
								c1.472-1.587,2.62-2.825,3.436-3.704c0.373-0.391,0.67-0.701,0.901-0.943C147.164,40.058,147.273,39.956,147.282,39.965z"/>
						</g>
					</g>
				</g>
			</g>
			<g>
				<g>
					<g>
						<g>
							<path style="fill:#263238;" d="M48.395,172.477c-0.009-0.009,0.082-0.129,0.27-0.355c0.218-0.255,0.497-0.582,0.849-0.994
								c0.793-0.902,1.909-2.171,3.34-3.797l0.04-0.045l0.062,0c8.597-0.091,25.49-0.153,44.881-0.153
								c19.398,0,36.29,0.062,44.886,0.153l0.062,0l0.039,0.045c1.431,1.627,2.547,2.896,3.34,3.797
								c0.352,0.412,0.631,0.739,0.849,0.994c0.188,0.226,0.279,0.346,0.27,0.355c-0.009,0.009-0.119-0.093-0.324-0.302
								c-0.231-0.242-0.528-0.552-0.901-0.943c-0.816-0.879-1.964-2.117-3.436-3.704l0.101,0.046
								c-8.597,0.091-25.489,0.153-44.886,0.153c-19.391,0-36.284-0.062-44.881-0.153l0.101-0.045
								c-1.472,1.587-2.62,2.825-3.436,3.704c-0.373,0.391-0.67,0.701-0.901,0.943C48.513,172.384,48.404,172.486,48.395,172.477z"
								/>
						</g>
					</g>
				</g>
			</g>
		</g>
		<g>
			<g>
				<g>
					<rect x="52.955" y="45.013" style="fill:#FFFFFF;" width="89.768" height="122.417"/>
				</g>
			</g>
		</g>
		<g>
			<g>
				<g>
					<path style="fill:#FF725E;" d="M67.001,131.63c2.67-2.639,6.612-3.386,10.299-3.291c3.687,0.095,7.339,0.905,11.026,0.857
						c5.897-0.077,11.773-2.341,17.584-1.296c1.857,0.334,3.739,1.004,5.583,0.596c1.614-0.357,2.97-1.5,4.551-1.99
						c4.094-1.266,8.7,2.056,12.632,0.323v27.325H67.001V131.63z"/>
				</g>
			</g>
		</g>
		<g>
			<g>
				<g>
					<g>
						<path style="fill:#263238;" d="M68.243,132.729c-0.158,0-0.286-16.187-0.286-36.15c0-19.97,0.128-36.154,0.286-36.154
							c0.158,0,0.286,16.184,0.286,36.154C68.53,116.542,68.401,132.729,68.243,132.729z"/>
					</g>
				</g>
			</g>
		</g>
		<g>
			<g>
				<g>
					<g>
						<path style="fill:#263238;" d="M71.051,132.729c-0.158,0-0.287-16.187-0.287-36.15c0-19.97,0.128-36.154,0.287-36.154
							c0.158,0,0.286,16.184,0.286,36.154C71.338,116.542,71.209,132.729,71.051,132.729z"/>
					</g>
				</g>
			</g>
		</g>
		<g>
			<g>
				<g>
					<g>
						<path style="fill:#263238;" d="M73.859,132.729c-0.158,0-0.287-16.187-0.287-36.15c0-19.97,0.128-36.154,0.287-36.154
							c0.158,0,0.286,16.184,0.286,36.154C74.146,116.542,74.017,132.729,73.859,132.729z"/>
					</g>
				</g>
			</g>
		</g>
		<g>
			<g>
				<g>
					<g>
						<path style="fill:#263238;" d="M76.667,132.729c-0.158,0-0.287-16.187-0.287-36.15c0-19.97,0.128-36.154,0.287-36.154
							c0.158,0,0.286,16.184,0.286,36.154C76.954,116.542,76.825,132.729,76.667,132.729z"/>
					</g>
				</g>
			</g>
		</g>
		<g>
			<g>
				<g>
					<g>
						<path style="fill:#263238;" d="M79.475,132.729c-0.158,0-0.287-16.187-0.287-36.15c0-19.97,0.128-36.154,0.287-36.154
							c0.158,0,0.286,16.184,0.286,36.154C79.761,116.542,79.633,132.729,79.475,132.729z"/>
					</g>
				</g>
			</g>
		</g>
		<g>
			<g>
				<g>
					<g>
						<path style="fill:#263238;" d="M82.283,132.729c-0.158,0-0.286-16.187-0.286-36.15c0-19.97,0.128-36.154,0.286-36.154
							s0.286,16.184,0.286,36.154C82.57,116.542,82.441,132.729,82.283,132.729z"/>
					</g>
				</g>
			</g>
		</g>
		<g>
			<g>
				<g>
					<g>
						<path style="fill:#263238;" d="M85.091,132.729c-0.158,0-0.286-16.187-0.286-36.15c0-19.97,0.128-36.154,0.286-36.154
							c0.158,0,0.286,16.184,0.286,36.154C85.377,116.542,85.249,132.729,85.091,132.729z"/>
					</g>
				</g>
			</g>
		</g>
		<g>
			<g>
				<g>
					<g>
						<path style="fill:#263238;" d="M87.899,132.729c-0.158,0-0.287-16.187-0.287-36.15c0-19.97,0.128-36.154,0.287-36.154
							c0.158,0,0.286,16.184,0.286,36.154C88.185,116.542,88.057,132.729,87.899,132.729z"/>
					</g>
				</g>
			</g>
		</g>
		<g>
			<g>
				<g>
					<g>
						<path style="fill:#263238;" d="M90.707,132.729c-0.158,0-0.287-16.187-0.287-36.15c0-19.97,0.128-36.154,0.287-36.154
							c0.158,0,0.286,16.184,0.286,36.154C90.993,116.542,90.865,132.729,90.707,132.729z"/>
					</g>
				</g>
			</g>
		</g>
		<g>
			<g>
				<g>
					<g>
						<path style="fill:#263238;" d="M93.515,132.729c-0.158,0-0.287-16.187-0.287-36.15c0-19.97,0.128-36.154,0.287-36.154
							c0.158,0,0.287,16.184,0.287,36.154C93.801,116.542,93.673,132.729,93.515,132.729z"/>
					</g>
				</g>
			</g>
		</g>
		<g>
			<g>
				<g>
					<g>
						<path style="fill:#263238;" d="M96.323,132.729c-0.158,0-0.286-16.187-0.286-36.15c0-19.97,0.128-36.154,0.286-36.154
							c0.158,0,0.287,16.184,0.287,36.154C96.609,116.542,96.481,132.729,96.323,132.729z"/>
					</g>
				</g>
			</g>
		</g>
		<g>
			<g>
				<g>
					<g>
						<path style="fill:#263238;" d="M99.131,132.729c-0.158,0-0.286-16.187-0.286-36.15c0-19.97,0.128-36.154,0.286-36.154
							c0.158,0,0.286,16.184,0.286,36.154C99.417,116.542,99.289,132.729,99.131,132.729z"/>
					</g>
				</g>
			</g>
		</g>
		<g>
			<g>
				<g>
					<g>
						<path style="fill:#263238;" d="M101.939,132.729c-0.158,0-0.286-16.187-0.286-36.15c0-19.97,0.128-36.154,0.286-36.154
							c0.158,0,0.287,16.184,0.287,36.154C102.225,116.542,102.097,132.729,101.939,132.729z"/>
					</g>
				</g>
			</g>
		</g>
		<g>
			<g>
				<g>
					<g>
						<path style="fill:#263238;" d="M104.747,132.729c-0.158,0-0.286-16.187-0.286-36.15c0-19.97,0.128-36.154,0.286-36.154
							c0.158,0,0.286,16.184,0.286,36.154C105.033,116.542,104.905,132.729,104.747,132.729z"/>
					</g>
				</g>
			</g>
		</g>
		<g>
			<g>
				<g>
					<g>
						<path style="fill:#263238;" d="M107.555,132.729c-0.158,0-0.286-16.187-0.286-36.15c0-19.97,0.128-36.154,0.286-36.154
							c0.158,0,0.287,16.184,0.287,36.154C107.841,116.542,107.713,132.729,107.555,132.729z"/>
					</g>
				</g>
			</g>
		</g>
		<g>
			<g>
				<g>
					<g>
						<path style="fill:#263238;" d="M110.363,132.729c-0.158,0-0.286-16.187-0.286-36.15c0-19.97,0.128-36.154,0.286-36.154
							c0.158,0,0.287,16.184,0.287,36.154C110.649,116.542,110.521,132.729,110.363,132.729z"/>
					</g>
				</g>
			</g>
		</g>
		<g>
			<g>
				<g>
					<g>
						<path style="fill:#263238;" d="M113.171,132.729c-0.158,0-0.287-16.187-0.287-36.15c0-19.97,0.128-36.154,0.287-36.154
							c0.158,0,0.286,16.184,0.286,36.154C113.457,116.542,113.329,132.729,113.171,132.729z"/>
					</g>
				</g>
			</g>
		</g>
		<g>
			<g>
				<g>
					<g>
						<path style="fill:#263238;" d="M115.979,132.729c-0.158,0-0.287-16.187-0.287-36.15c0-19.97,0.128-36.154,0.287-36.154
							c0.158,0,0.286,16.184,0.286,36.154C116.265,116.542,116.137,132.729,115.979,132.729z"/>
					</g>
				</g>
			</g>
		</g>
		<g>
			<g>
				<g>
					<g>
						<path style="fill:#263238;" d="M118.787,132.729c-0.158,0-0.286-16.187-0.286-36.15c0-19.97,0.128-36.154,0.286-36.154
							c0.158,0,0.286,16.184,0.286,36.154C119.073,116.542,118.945,132.729,118.787,132.729z"/>
					</g>
				</g>
			</g>
		</g>
		<g>
			<g>
				<g>
					<g>
						<path style="fill:#263238;" d="M121.595,132.729c-0.158,0-0.286-16.187-0.286-36.15c0-19.97,0.128-36.154,0.286-36.154
							c0.158,0,0.286,16.184,0.286,36.154C121.881,116.542,121.753,132.729,121.595,132.729z"/>
					</g>
				</g>
			</g>
		</g>
		<g>
			<g>
				<g>
					<g>
						<path style="fill:#263238;" d="M124.403,132.729c-0.158,0-0.286-16.187-0.286-36.15c0-19.97,0.128-36.154,0.286-36.154
							c0.158,0,0.286,16.184,0.286,36.154C124.689,116.542,124.561,132.729,124.403,132.729z"/>
					</g>
				</g>
			</g>
		</g>
		<g>
			<g>
				<g>
					<g>
						<path style="fill:#263238;" d="M127.211,132.729c-0.158,0-0.287-16.187-0.287-36.15c0-19.97,0.128-36.154,0.287-36.154
							c0.158,0,0.286,16.184,0.286,36.154C127.497,116.542,127.369,132.729,127.211,132.729z"/>
					</g>
				</g>
			</g>
		</g>
	</g>
</g>
<g id="Character">
	<g>
		<path style="fill:#263238;" d="M298.253,243.115c-3.217-10.216-5.66-20.854-7.371-29.421c-0.704-9.985-2.791-21.334-4.643-29.976
			c-0.112-6.572-1.44-14.062-4.396-20.452c-3.025-6.537-5.68-13.734-11.948-17.283c-4.572-2.588-10.499-5.01-15.748-5.229
			c-10.661-0.446-20.227,1.39-28.623,7.973c-11.314,8.872-12.523,24.708-15.671,38.315c-1.392,6.016-1.811,12.237-1.076,18.368
			c0.16,1.336,0.364,2.566,0.609,3.707l-6.431,1.063l-4.542,63.51l103.416,6.534c0,0,13.32-0.727,19.698-9.258
			C321.529,270.967,305.319,265.56,298.253,243.115z"/>
		<g>
			<path style="fill:#263238;" d="M212.376,354.832c0,0-17.771,18.464-21.663,44.45l59.6,37.67l59.954-39.497
				c0,0-4.758-24.105-19.721-42.623H212.376z"/>
			<path style="fill:#AE7461;" d="M232.018,454.241c0.887-0.062,50.342,0.039,50.342,0.039l30.905,2.089
				c10.776,0.334,13.887-5.017,13.633-8.531c-0.324-4.485-4.882-9.575-4.882-9.575s-25.362-5.447-25.987-4.994
				c-0.625,0.453-61.64,5.073-61.64,5.073L232.018,454.241z"/>
			<path style="fill:#263238;" d="M300.186,387.187c0.455,0.95,49.75,14.528,49.75,14.528l-100.17,35.563
				c0,0-14.367-17.558-13.912-17.558C236.309,419.719,300.186,387.187,300.186,387.187z"/>
			<path style="fill:#263238;" d="M256.361,423.073v31.554c0,0,63.799,1.492,84.916-3.202c21.117-4.694,33.279-27.632,25.706-39.507
				c-8.886-13.936-30.651-12.493-37.816-11.711C322.003,400.99,256.361,423.073,256.361,423.073z"/>
			<path style="fill:#263238;" d="M207.125,390.313c0,0-62.278,2.892-71.49,8.508l102.23,34.311c0,0,14.367-17.558,13.912-17.558
				C251.321,415.573,207.125,390.313,207.125,390.313z"/>
			<path style="fill:#263238;" d="M246.647,435.068c0,0-68.437-28.424-76.232-31.522c-17.661-7.018-44.512-12.908-45.643,11.93
				c-1.131,24.838,31.314,39.702,54.004,41.25l62.38-0.024L246.647,435.068z"/>
			<path style="fill:#AE7461;" d="M256.361,418.423l-18.979,1.746c0,0-3.378-4.619-6.295-5.733c-2.917-1.115-8.291,0-11.822-1.433
				c-3.531-1.434-12.565-8.646-16.013-11.039c-4.78-3.318-10.135-3.595-10.135-3.595s-7.959-1.599-12.857,3
				c-2.233,2.097-2.449,6.856-2.449,6.856s56.194,29.942,56.808,29.623c0.614-0.319,21.742,3.987,21.742,3.987V418.423z"/>
			<path style="fill:#455A64;" d="M234.618,437.847c-0.01,0.021-0.296-0.101-0.832-0.353c-0.592-0.287-1.366-0.663-2.331-1.131
				c-2.079-1.043-4.973-2.494-8.519-4.273c-3.607-1.837-7.873-4.009-12.599-6.417c-4.725-2.451-9.974-5.03-15.359-8.005
				c-5.397-2.946-10.512-5.793-15.276-8.14c-4.758-2.356-9.154-4.229-12.935-5.533c-3.779-1.311-6.924-2.073-9.107-2.54
				c-1.092-0.232-1.95-0.356-2.527-0.477c-0.578-0.112-0.881-0.182-0.878-0.205c0.003-0.023,0.311,0.001,0.896,0.07
				c0.584,0.077,1.451,0.16,2.555,0.353c2.206,0.388,5.386,1.083,9.205,2.343c3.82,1.253,8.259,3.091,13.049,5.424
				c4.796,2.324,9.929,5.16,15.323,8.104c5.376,2.97,10.618,5.568,15.326,8.048c4.702,2.455,8.945,4.671,12.533,6.545
				c3.508,1.859,6.37,3.376,8.426,4.466c0.942,0.516,1.699,0.929,2.277,1.245C234.361,437.663,234.628,437.826,234.618,437.847z"/>
			<path style="fill:#6F4439;" d="M256.361,441.834c-0.032,0.185-4.868-0.559-10.8-1.659c-5.934-1.101-10.717-2.143-10.686-2.328
				c0.032-0.185,4.867,0.558,10.801,1.66C251.608,440.607,256.393,441.65,256.361,441.834z"/>
			<path style="fill:#455A64;" d="M256.361,447.796c-0.016,0-0.032-0.201-0.048-0.589c-0.012-0.44-0.027-1.006-0.046-1.711
				c-0.02-1.562-0.048-3.737-0.083-6.463c-0.029-5.614-0.07-13.483-0.119-22.792l-0.001-0.252l0.241-0.048
				c6.768-1.362,14.438-2.906,22.541-4.537c14.459-2.849,27.544-5.427,37.089-7.307c4.705-0.894,8.534-1.621,11.253-2.138
				c1.286-0.23,2.308-0.412,3.066-0.548c0.702-0.118,1.073-0.169,1.077-0.145c0.004,0.023-0.358,0.119-1.052,0.28
				c-0.752,0.166-1.766,0.39-3.043,0.673c-2.71,0.568-6.525,1.367-11.214,2.35c-9.535,1.931-22.607,4.578-37.052,7.503
				c-8.108,1.607-15.782,3.129-22.553,4.471l0.239-0.3c-0.048,9.309-0.09,17.177-0.119,22.792c-0.035,2.726-0.063,4.901-0.083,6.463
				c-0.019,0.705-0.034,1.271-0.046,1.711C256.393,447.596,256.377,447.796,256.361,447.796z"/>
			<path style="fill:#455A64;" d="M231.095,410.533c-0.082,0.087-1.643-1.523-4.405-3.819c-2.756-2.298-6.792-5.195-11.632-7.67
				c-4.848-2.462-9.525-4.006-12.963-4.865c-3.439-0.865-5.621-1.163-5.605-1.283c0.006-0.047,0.555-0.008,1.545,0.103
				c0.992,0.099,2.418,0.336,4.163,0.712c3.49,0.745,8.247,2.233,13.149,4.723c4.894,2.502,8.936,5.498,11.638,7.909
				c1.354,1.203,2.406,2.229,3.088,2.983C230.762,410.073,231.127,410.5,231.095,410.533z"/>
			<path style="fill:#455A64;" d="M316.284,392.246c-0.006,0.058-0.6,0.039-1.659,0.081c-1.062,0.084-2.596,0.238-4.469,0.618
				c-3.752,0.703-8.861,2.128-14.324,4.221c-5.462,2.104-10.199,4.547-13.443,6.621c-3.248,2.075-5.016,3.72-5.103,3.616
				c-0.03-0.035,0.4-0.457,1.208-1.195c0.4-0.374,0.898-0.822,1.525-1.275c0.625-0.453,1.297-1.039,2.122-1.551
				c3.211-2.199,7.963-4.734,13.464-6.853c5.502-2.108,10.669-3.47,14.475-4.058c1.898-0.323,3.463-0.406,4.54-0.409
				C315.701,392.103,316.29,392.211,316.284,392.246z"/>
		</g>
		<path style="fill:#AE7461;" d="M226.492,243.544c0,0,5.425,21.417,26.13,19.152c14.961-1.636,13.006-19.742,13.006-19.742
			L226.492,243.544z"/>
		<g>
			<path style="fill:#FF725E;" d="M198.718,253.358c-0.22,1.142,2.758,48.125,2.758,48.125l4.443,22.008l7.022,20.731
				l-10.024,22.503c31.591,11.521,67.782,14.157,95.695,0.137l-8.872-24.035c0,0,4.491-33.971,5.371-47.444
				c0.881-13.473-11.348-47.384-11.348-47.384l-18.089-4.454h-38.86L198.718,253.358z"/>
			<path style="fill:#AE7461;" d="M152.526,354.197c0,0-15.622-5.285-10.779-18.759c4.843-13.473,22.643-38.5,27.926-47.635
				c5.284-9.134,12.57-27.993,25.034-32.931c12.464-4.938,15.193-4.087,15.193-4.087s7.62,32.321-7.497,49.97l-3.187-1.014
				l-27.008,32.027l42.376,10.614l-1.813,19.989L152.526,354.197z"/>
			<path style="fill:#AE7461;" d="M281.936,276.583c0,0-6.413-11.288-7.287-14.01c-0.874-2.721-2.623-9.676-3.984-10.28
				c-1.36-0.605-2.526,1.814-3.012,4.435c-0.486,2.621,3.206,8.265,1.943,9.172c-1.263,0.907-22.153-5.039-25.651-5.947
				c-3.498-0.907-13.311-2.822-13.603,1.915c0,0-4.761-0.202-5.052,1.814c-0.292,2.016,0,2.822,0,2.822s-0.874,3.628,2.137,4.838
				c3.012,1.21,5.15,1.512,5.15,1.512s-2.429,1.21-0.292,3.729c2.138,2.52,15.352,7.66,15.352,7.66s6.024,5.846,11.271,7.156
				c5.247,1.31,14.186,1.31,14.186,1.31L281.936,276.583z"/>
			<path style="fill:#AE7461;" d="M283.763,247.998l13.246,4.202c0,0,8.797,2.088,14.36,8.209
				c5.563,6.121,11.801,19.761,17.027,23.258s21.916,18.712,23.264,25.182c1.349,6.47,1.012,22.384-7.923,23.258
				c0,0-47.089-49.326-47.618-49.14c-0.53,0.186-4.979,7.085-4.979,7.085s-5.168-12.774-7.528-19.594
				C281.25,263.638,283.763,247.998,283.763,247.998z"/>
			<path style="fill:#AE7461;" d="M281.936,276.583c0,0,24.881,14.326,35.165,16.126c10.284,1.8,20.061,2.149,24.782,7.221
				c4.72,5.071,1.854,32.177,1.854,32.177s-5.395,2.273-16.521-2.798c-11.126-5.071-54.122-36.6-54.122-36.6L281.936,276.583z"/>
			<path style="fill:#AE7461;" d="M213.867,343.493c0,0,5.313-5.049,10.537-6.856c5.224-1.808,8.277-4.359,10.857-5.528
				c3.134-1.419,6.655-2.204,5.776,1.9c-0.499,2.334-3.214,3.982-6.054,5.952c-2.84,1.97-5.815,2.536-3.651,3.16
				c2.164,0.624,12.703,2.8,17.966,2.507c0,0,12.386-0.062,12.522,3.12c0.137,3.182-13.778,2.159-15.955,2.505
				s-3.686,0.848-3.686,0.848s14.425,1.141,18.536,1.966c4.111,0.826,3.79,3.417,2.232,4.149c-1.558,0.732-2.436,1.014-2.436,1.014
				s1.163,2.207-1.113,3.015c-2.276,0.809-21.41,0.159-21.41,0.159s13.284,1.242,14.224,2.306c0.94,1.065,0.211,2.835-1.249,3.105
				c-1.459,0.27-14.816-0.746-15.547-0.551c-0.731,0.195-6.902,1.197-14.262-0.982c-7.36-2.18-9.215-4.424-9.215-4.424
				L213.867,343.493z"/>
			<g>
				<path style="fill:#6F4439;" d="M340.235,298.483c-0.009,0.016-0.212-0.07-0.593-0.248c-0.426-0.206-0.973-0.471-1.65-0.799
					c-1.44-0.672-3.524-1.662-6.209-2.581c-2.674-0.948-5.971-1.742-9.714-2.027c-3.712-0.334-7.979-0.283-12.125-1.865
					c-4.122-1.473-7.833-3.339-11.209-5.015c-3.365-1.702-6.352-3.314-8.843-4.699c-2.491-1.384-4.489-2.537-5.86-3.349
					c-0.643-0.391-1.163-0.706-1.569-0.952c-0.355-0.223-0.537-0.35-0.528-0.365c0.009-0.016,0.208,0.08,0.58,0.274
					c0.418,0.224,0.954,0.512,1.616,0.867c1.459,0.787,3.473,1.873,5.936,3.202c2.511,1.342,5.513,2.918,8.882,4.593
					c3.377,1.648,7.095,3.498,11.167,4.952c4.046,1.548,8.251,1.518,11.995,1.878c3.774,0.313,7.118,1.158,9.794,2.158
					c2.692,0.972,4.76,2.017,6.177,2.747c0.66,0.364,1.193,0.658,1.609,0.887C340.056,298.35,340.244,298.467,340.235,298.483z"/>
			</g>
			<g>
				<path style="fill:#6F4439;" d="M253.904,265.815c-0.024,0.075-1.329-0.297-3.45-0.833c-2.12-0.538-5.066-1.211-8.356-1.754
					c-3.292-0.54-6.298-0.847-8.479-1.017c-2.181-0.171-3.536-0.237-3.534-0.317c0-0.036,0.34-0.062,0.954-0.078
					c0.614-0.019,1.503-0.012,2.602,0.027c2.196,0.077,5.229,0.327,8.542,0.871c3.311,0.547,6.265,1.282,8.369,1.913
					c1.053,0.315,1.897,0.592,2.473,0.808C253.602,265.647,253.915,265.78,253.904,265.815z"/>
			</g>
			<g>
				<path style="fill:#6F4439;" d="M256.076,271.457c-0.027,0.141-6.965-1.048-15.495-2.656c-8.533-1.608-15.427-3.026-15.4-3.168
					c0.027-0.141,6.964,1.048,15.497,2.656C249.208,269.897,256.103,271.315,256.076,271.457z"/>
			</g>
			<g>
				<path style="fill:#6F4439;" d="M251.151,276.347c-0.02,0.072-1.079-0.164-2.785-0.554c-1.706-0.391-4.062-0.924-6.676-1.454
					c-2.616-0.529-4.994-0.955-6.717-1.259c-1.723-0.305-2.79-0.499-2.781-0.574c0.009-0.068,1.093-0.003,2.835,0.21
					c1.742,0.212,4.14,0.582,6.766,1.113c2.625,0.533,4.977,1.125,6.664,1.608C250.145,275.919,251.17,276.281,251.151,276.347z"/>
			</g>
			<g>
				<path style="fill:#6F4439;" d="M241.273,356.68c0.013-0.143,4.29,0.133,9.551,0.616c5.263,0.484,9.517,0.992,9.504,1.135
					c-0.013,0.143-4.289-0.133-9.552-0.616C245.515,357.331,241.26,356.823,241.273,356.68z"/>
			</g>
			<g>
				<path style="fill:#6F4439;" d="M173.633,331.528c0.011,0.167-3.684,0.271-8.026,1.503c-4.352,1.2-7.565,3.029-7.641,2.881
					c-0.032-0.055,0.729-0.583,2.059-1.267c1.327-0.685,3.24-1.496,5.442-2.115c2.202-0.614,4.258-0.913,5.748-1.017
					C172.707,331.408,173.632,331.464,173.633,331.528z"/>
			</g>
			<g>
				<path style="fill:#6F4439;" d="M190.239,284.058c0.056-0.039,0.694,0.754,1.633,2.103c0.939,1.348,2.168,3.259,3.408,5.44
					c1.238,2.182,2.25,4.217,2.927,5.715c0.677,1.497,1.032,2.451,0.97,2.479c-0.068,0.031-0.541-0.867-1.301-2.318
					c-0.759-1.451-1.817-3.448-3.049-5.619c-1.233-2.169-2.406-4.101-3.263-5.496C190.706,284.967,190.177,284.1,190.239,284.058z"
					/>
			</g>
		</g>
		<polygon style="fill:#E0E0E0;" points="245.887,334.268 247.47,309.608 243.422,309.608 250.783,296.91 258.88,309.424 
			254.463,309.424 256.05,334.109 		"/>
		<g>
			<g>
				<g>
					<path style="fill:#263238;" d="M237.596,136.696c-1.04-2.202-3.156-3.715-5.371-4.728c-5.062-2.315-11.153-2.41-16.165,0.01
						c-5.012,2.42-8.779,7.391-9.474,12.913c-0.695,5.522,1.834,11.398,6.48,14.464c-2.957,0.094-5.889,0.925-8.455,2.397
						c-0.759,0.436-1.544,1.005-1.75,1.856c-0.326,1.348,1.086,2.607,2.472,2.674c1.032,0.049,2.006-0.347,2.928-0.846
						c-1.006,0.625-1.916,1.407-2.158,2.53c-0.424,1.971,1.644,3.762,3.659,3.846c2.014,0.085,3.875-0.984,5.606-2.018
						l20.943-26.486C238.282,141.877,238.636,138.899,237.596,136.696z"/>
					<g>
						<g>
							<g>
								<g>
									<g>
										<g>
											<g>
												<g>
													<g>
														<g>
															<g>
																<g>
																	<g>
																		<path style="fill:#AE7461;" d="M226.106,159.54l34.444-10.163c11.096-1.617,19.044,11.811,20.189,22.965
																			c1.272,12.392,2.336,27.572,1.228,36.899c-2.226,18.755-16.418,21.689-16.418,21.689
																			c-0.007-0.063-0.033,0.28,0.078,5.821l0.042,11.413c0.147,3.63-0.491,4.85-2.711,7.726
																			c-5.08,6.582-14.339,7.461-25.257,3.422c-6.328-2.341-10.728-7.05-11.212-13.466l0.064-75.915
																			C226.353,166.531,222.735,160.031,226.106,159.54z"/>
																	</g>
																</g>
															</g>
														</g>
													</g>
													<g>
														<g>
															<g>
																<g>
																	<g>
																		<g>
																			<g>
																				<path style="fill:#263238;" d="M268.783,189.337c0.303-0.306,2.087,1.074,4.661,1.122
																					c2.57,0.085,4.487-1.2,4.76-0.878c0.134,0.143-0.18,0.699-1.015,1.281c-0.822,0.579-2.216,1.13-3.819,1.089
																					c-1.603-0.043-2.939-0.661-3.701-1.282C268.89,190.043,268.634,189.473,268.783,189.337z"/>
																			</g>
																		</g>
																	</g>
																</g>
															</g>
														</g>
													</g>
													<g>
														<g>
															<g>
																<g>
																	<g>
																		<g>
																			<g>
																				<path style="fill:#263238;" d="M245.938,190.021c0.285-0.323,2.151,0.946,4.721,0.838
																					c2.571-0.07,4.407-1.467,4.698-1.163c0.142,0.134-0.135,0.708-0.937,1.339
																					c-0.786,0.628-2.143,1.261-3.745,1.317c-1.603,0.053-2.973-0.484-3.772-1.057
																					C246.091,190.72,245.799,190.166,245.938,190.021z"/>
																			</g>
																		</g>
																	</g>
																</g>
															</g>
														</g>
													</g>
													<g>
														<g>
															<g>
																<g>
																	<g>
																		<g>
																			<g>
																				<path style="fill:#263238;" d="M263.176,200.562c-0.017-0.146,1.571-0.485,4.148-0.919
																					c0.654-0.093,1.271-0.248,1.364-0.701c0.136-0.481-0.166-1.178-0.515-1.93c-0.68-1.565-1.392-3.206-2.139-4.925
																					c-2.978-7.015-5.161-12.794-4.877-12.911c0.283-0.118,2.927,5.473,5.905,12.488
																					c0.718,1.73,1.405,3.38,2.059,4.958c0.278,0.737,0.739,1.567,0.442,2.564c-0.158,0.498-0.625,0.873-1.042,1.003
																					c-0.416,0.145-0.785,0.167-1.109,0.199C264.809,200.632,263.191,200.708,263.176,200.562z"/>
																			</g>
																		</g>
																	</g>
																</g>
															</g>
														</g>
													</g>
													<g>
														<g>
															<g>
																<g>
																	<g>
																		<g>
																			<g>
																				<path style="fill:#6F4439;" d="M265.623,230.93c0,0-12.508,1.302-25.224-5.676c0,0,6.684,12.8,25.271,10.322
																					L265.623,230.93z"/>
																			</g>
																		</g>
																	</g>
																</g>
															</g>
														</g>
													</g>
													<g>
														<g>
															<g>
																<g>
																	<g>
																		<g>
																			<path style="fill:#6F4439;" d="M258.965,212.433c-1.321,0.371-2.978,0.005-3.9-1.264
																				c-0.82-1.127-0.854-2.745-0.231-3.852c0.623-1.107,1.803-1.722,3.035-1.811c0,0,2.821-0.318,3.416,2.541
																				C262.042,211.687,258.965,212.433,258.965,212.433z"/>
																		</g>
																	</g>
																</g>
															</g>
														</g>
													</g>
													<g>
														<g>
															<g>
																<g>
																	<g>
																		<g>
																			<g>
																				<path style="fill:#263238;" d="M254.13,174.468c-0.185,0.721-2.775,0.64-5.746,1.295
																					c-2.984,0.595-5.323,1.71-5.782,1.124c-0.207-0.281,0.152-0.978,1.067-1.748
																					c0.906-0.768,2.394-1.558,4.179-1.935c1.786-0.373,3.465-0.247,4.604,0.092
																					C253.597,173.634,254.206,174.127,254.13,174.468z"/>
																			</g>
																		</g>
																	</g>
																</g>
															</g>
														</g>
													</g>
													<g>
														<g>
															<g>
																<g>
																	<g>
																		<g>
																			<g>
																				<path style="fill:#263238;" d="M278.246,176.657c-0.584,0.506-2.458-0.378-4.811-0.747
																					c-2.341-0.443-4.41-0.241-4.783-0.913c-0.159-0.323,0.24-0.857,1.191-1.279c0.938-0.421,2.441-0.66,4.055-0.382
																					c1.613,0.28,2.941,1.008,3.675,1.719C278.321,175.771,278.508,176.406,278.246,176.657z"/>
																			</g>
																		</g>
																	</g>
																</g>
															</g>
														</g>
													</g>
												</g>
											</g>
										</g>
									</g>
									<g>
										<g>
											<g>
												<g>
													<g>
														<path style="fill:#263238;" d="M260.67,147.368c0.032,0.134,0.057,0.27,0.088,0.405l-0.064,0.027
															C260.685,147.656,260.678,147.512,260.67,147.368z"/>
													</g>
												</g>
											</g>
										</g>
									</g>
								</g>
							</g>
							<g>
								<g>
									<g>
										<g>
											<path style="fill:#263238;" d="M225.243,243.631c9.306-0.543,10.588-13.494,10.018-18.377
												c-0.605-5.176-1.761-11.091-3.137-16.117c-2.204-8.05,0.82-16.611,1.928-24.93c4.664-0.575,9.016-3.377,12.123-6.999
												c3.739-4.358,5.999-9.76,8.201-15.063c-0.13,5.199-1.931,10.344-5.072,14.489c2.07,0.432,4.254-0.454,5.81-1.888
												c1.555-1.433,2.573-3.352,3.41-5.295c2.026-4.705,3.127-9.794,3.302-14.914c0.688,7.324-0.125,14.79-2.437,21.776
												c1.305-0.402,2.703-0.041,4.055,0.154c1.351,0.196,2.901,0.157,3.856-0.819c0.638-0.653,0.871-1.592,1.056-2.486
												c1.287-6.227,1.497-12.675,0.619-18.973c1.663,3.405,3.311,6.849,4.276,10.514c0.965,3.665,1.215,7.604,0.079,11.219
												c0.537,0.681,1.678,0.574,2.316-0.014c0.637-0.588,0.879-1.485,1.014-2.342c0.491-3.131-0.062-6.322-0.614-9.443
												c1.864,3.304,2.483,7.138,3.513,10.788c1.031,3.651,2.672,7.395,5.845,9.475c0.55-5.462,0.355-9.192-0.466-14.306
												c-0.627-3.908-2.482-7.785-4.193-11.354c-1.917-3.998-4.582-7.913-7.559-10.521c-5.493-4.811-7.788-2.74-11.296-0.906
												l-0.414,0.174c-0.012-0.086-0.016-0.173-0.029-0.258l-0.158-0.747c-9.13-2.056-18.812-1.604-27.71,1.296
												c-6.612,2.155-7.219,16.392-8.832,9.627c-0.976-4.093-6.282-0.357-6.347-0.239c-7.798,14.066-16.065,36.38-16.444,71.639
												l0,0L225.243,243.631z"/>
										</g>
									</g>
								</g>
							</g>
						</g>
						<g>
							<g>
								<path style="fill:#455A64;" d="M218.465,156.59c1.115,0.521,4.269-4.309,9.901-8.106c5.547-3.925,11.179-5.164,11.087-6.392
									c-0.049-0.558-1.635-1.009-4.205-0.743c-2.553,0.253-6.048,1.367-9.313,3.616c-3.258,2.257-5.537,5.131-6.677,7.429
									C218.101,154.703,217.96,156.346,218.465,156.59z"/>
							</g>
						</g>
					</g>
				</g>
				<g>
					<path style="fill:#263238;" d="M261.131,207.623c-0.044,0.008-0.089-0.206-0.283-0.519c-0.192-0.311-0.572-0.708-1.169-0.992
						c-0.601-0.291-1.363-0.461-2.234-0.286c-0.856,0.135-1.75,0.581-2.143,1.498c-0.416,0.892-0.532,1.91-0.297,2.715
						c0.222,0.838,0.772,1.424,1.342,1.75c1.164,0.643,2.081,0.642,2.055,0.753c-0.003,0.032-0.22,0.051-0.612,0.019
						c-0.389-0.035-0.968-0.123-1.62-0.45c-0.65-0.307-1.349-0.988-1.623-1.934c-0.299-0.951-0.183-2.064,0.287-3.081
						c0.234-0.508,0.627-0.974,1.095-1.25c0.464-0.286,0.968-0.427,1.442-0.496c0.942-0.167,1.87,0.07,2.481,0.434
						c0.637,0.357,1.023,0.849,1.177,1.224C261.185,207.39,261.157,207.622,261.131,207.623z"/>
				</g>
			</g>
			<path style="fill:#FFFFFF;" d="M275.257,213.993c-0.036-1.341,0.685-1.919,1.449-2.267c0.764-0.348,1.686-0.326,2.433,0.057
				c0.593-0.873,1.668-1.394,2.721-1.318c1.053,0.076,2.042,0.745,2.504,1.694c1.451-0.736,3.174-0.31,3.978,0.307
				c2.011,1.542,1.037,3.638,1.037,3.638c2.017,0.989,0.593,3.836-1.492,3.163c1.09,0.697,1.313,2.323,0.688,3.455
				c-0.625,1.132-1.892,1.793-3.169,2.003c-2.576,0.422-5.348-0.903-6.637-3.173c-1.425,0.849-3.45,0.488-4.492-0.802
				c-1.043-1.29-0.972-3.346,0.157-4.561c-3.372-0.222-6.556-2.336-8.071-5.356C269.012,212.588,272.095,213.683,275.257,213.993"/>
		</g>
	</g>
</g>
</svg>
