<?xml version="1.0" encoding="utf-8"?>
<!-- Generator: Adobe Illustrator 27.5.0, SVG Export Plug-In . SVG Version: 6.00 Build 0)  -->
<svg version="1.1" xmlns="http://www.w3.org/2000/svg" xmlns:xlink="http://www.w3.org/1999/xlink" x="0px" y="0px"
	 viewBox="0 0 500 500" style="enable-background:new 0 0 500 500;" xml:space="preserve">
<g id="Background_Complete">
	<g>
		<path style="fill:#E0E0E0;" d="M430.815,247.163c-11.318,5.863-19.996,15.956-26.237,27.07
			c-6.24,11.114-10.262,23.309-14.246,35.417l-3.486,62.443c13.169-22.404,23.739-48.74,26.595-74.57
			c-2.921-0.26-5.842-0.52-8.764-0.78c5.876-0.897,10.808-5.154,13.946-10.202c3.138-5.048,4.753-10.869,6.33-16.6
			c-3.564,0.53-7.128,1.06-10.692,1.589C422.634,265.94,428.704,257.005,430.815,247.163z"/>
		<path style="fill:#F5F5F5;" d="M384.897,386.723c0,0-28.584-34.212-28.254-66.873h11.547c0,0-12.542-8.247-11.549-12.866
			c0.992-4.619,1.322-22.103,1.322-22.103l10.557,2.639c0,0-7.918-3.959-8.907-10.227c-0.99-6.268,2.309-35.3,2.309-35.3
			s12.866,13.526,16.825,27.382c3.959,13.856,14.35,30.021,11.299,72.249C386.994,383.852,384.897,386.723,384.897,386.723z"/>
		<path style="fill:#F5F5F5;" d="M399.388,389.953c0,0,30.968-20.63,37.848-46.96l-9.283-2.526c0,0,11.888-3.887,12.1-7.817
			c0.212-3.93,3.773-18.06,3.773-18.06l-9.065-0.188c0,0,7.232-1.451,9.399-6.273c2.167-4.823,5.866-28.885,5.866-28.885
			s-13.303,8.06-19.518,18.333c-6.214,10.274-18.105,20.997-24.891,55.614C398.832,387.807,399.388,389.953,399.388,389.953z"/>
		<g>
			<path style="fill:#E0E0E0;" d="M369.73,271.823c0.009-0.002,0.043,0.118,0.102,0.355c0.062,0.263,0.144,0.611,0.248,1.053
				c0.214,0.958,0.518,2.321,0.906,4.06c0.396,1.763,0.856,3.924,1.356,6.441c0.508,2.515,1.101,5.377,1.68,8.554
				c1.223,6.343,2.514,13.927,3.844,22.365c1.288,8.444,2.575,17.747,3.719,27.538c1.121,9.797,1.99,19.15,2.663,27.667
				c0.631,8.519,1.104,16.198,1.36,22.653c0.161,3.226,0.237,6.147,0.316,8.712c0.088,2.564,0.133,4.774,0.15,6.58
				c0.019,1.782,0.034,3.177,0.045,4.159c-0.001,0.454-0.001,0.812-0.001,1.082c-0.003,0.244-0.009,0.369-0.018,0.369
				c-0.009,0-0.021-0.125-0.035-0.368c-0.013-0.27-0.029-0.627-0.05-1.081c-0.034-0.981-0.081-2.375-0.142-4.156
				c-0.048-1.805-0.122-4.013-0.238-6.575c-0.107-2.563-0.208-5.481-0.393-8.704c-0.303-6.449-0.814-14.121-1.471-22.633
				c-0.698-8.509-1.582-17.854-2.702-27.645c-1.143-9.784-2.415-19.083-3.676-27.525c-1.303-8.436-2.555-16.022-3.732-22.37
				c-0.556-3.18-1.123-6.045-1.604-8.565c-0.472-2.521-0.903-4.688-1.268-6.456c-0.347-1.748-0.619-3.117-0.81-4.079
				c-0.083-0.447-0.148-0.798-0.198-1.064C369.738,271.949,369.721,271.825,369.73,271.823z"/>
		</g>
		<path style="fill:#F5F5F5;" d="M380.932,407.674c0,0-26.158-29.68-34.279-47.621l6.131-2.62
			c-4.444,0.733-8.998-1.177-12.444-4.077c-3.446-2.901-5.977-6.716-8.458-10.475l8.077-1.365
			c-7.345-2.061-13.816-7.074-17.648-13.67c9.531,1.567,18.154,6.803,25.26,13.346c5.755,5.299,10.627,11.451,15.307,17.736
			c2.283,3.066,4.28,6.333,5.945,9.774C373.217,377.788,380.947,396.774,380.932,407.674z"/>
		<g>
			<path style="fill:#E0E0E0;" d="M437.647,296.518c0.008,0.004-0.033,0.106-0.121,0.302c-0.103,0.22-0.235,0.504-0.403,0.862
				c-0.379,0.784-0.913,1.887-1.593,3.292c-1.403,2.849-3.39,6.993-5.795,12.137c-2.413,5.14-5.188,11.305-8.17,18.194
				c-2.957,6.899-6.107,14.528-9.24,22.603c-3.116,8.086-5.918,15.85-8.372,22.945c-2.428,7.104-4.523,13.533-6.195,18.959
				c-1.681,5.423-2.999,9.826-3.877,12.877c-0.442,1.497-0.789,2.673-1.036,3.507c-0.117,0.377-0.21,0.677-0.282,0.909
				c-0.066,0.204-0.105,0.307-0.113,0.305c-0.009-0.002,0.012-0.11,0.062-0.319c0.059-0.235,0.136-0.539,0.232-0.923
				c0.224-0.841,0.54-2.026,0.942-3.535c0.818-3.07,2.083-7.49,3.72-12.93c1.628-5.443,3.688-11.888,6.093-19.006
				c2.431-7.109,5.222-14.885,8.34-22.978c3.136-8.082,6.302-15.712,9.285-22.606c3.009-6.883,5.82-13.037,8.277-18.16
				c2.449-5.126,4.487-9.248,5.946-12.07c0.718-1.387,1.281-2.476,1.681-3.249c0.186-0.348,0.335-0.625,0.449-0.839
				C437.582,296.608,437.639,296.514,437.647,296.518z"/>
		</g>
		<g>
			<path style="fill:#E0E0E0;" d="M383.151,420.392c-0.018,0.002-0.06-0.186-0.124-0.546c-0.067-0.418-0.152-0.939-0.254-1.576
				c-0.1-0.685-0.227-1.523-0.408-2.49c-0.176-0.967-0.345-2.074-0.608-3.284c-0.469-2.429-1.141-5.299-1.997-8.454
				c-0.884-3.148-1.969-6.577-3.292-10.11c-1.343-3.527-2.796-6.818-4.213-9.765c-1.443-2.934-2.835-5.532-4.089-7.665
				c-0.602-1.082-1.206-2.024-1.714-2.866c-0.503-0.845-0.961-1.558-1.339-2.138c-0.344-0.546-0.625-0.992-0.85-1.35
				c-0.19-0.312-0.282-0.481-0.268-0.491c0.015-0.01,0.136,0.139,0.354,0.432c0.247,0.344,0.555,0.773,0.932,1.297
				c0.405,0.564,0.888,1.262,1.416,2.094c0.532,0.83,1.16,1.761,1.784,2.834c1.298,2.116,2.73,4.706,4.203,7.642
				c1.447,2.948,2.92,6.249,4.269,9.793c1.329,3.55,2.405,7,3.267,10.168c0.835,3.176,1.472,6.066,1.896,8.512
				c0.241,1.218,0.385,2.332,0.534,3.307c0.154,0.974,0.252,1.817,0.321,2.508c0.064,0.643,0.116,1.169,0.158,1.59
				C383.161,420.198,383.169,420.39,383.151,420.392z"/>
		</g>
		<rect x="360.417" y="413.411" style="fill:#EBEBEB;" width="57.25" height="11.678"/>
		<polygon style="fill:#EBEBEB;" points="365.872,425.089 372.064,464.37 406.658,464.37 412.43,425.089 		"/>
		<g>
			<path style="fill:#E0E0E0;" d="M414.155,425.089c0,0.144-10.83,0.26-24.187,0.26c-13.361,0-24.189-0.117-24.189-0.26
				s10.828-0.26,24.189-0.26C403.324,424.828,414.155,424.945,414.155,425.089z"/>
		</g>
	</g>
	<g>
		<g>
			<rect x="52.062" y="197.437" style="fill:#F5F5F5;" width="118.502" height="266.647"/>
		</g>
		<g>
			<rect x="52.062" y="197.437" style="fill:#E0E0E0;" width="32.396" height="266.647"/>
		</g>
		<g>
			<g>
				<g>
					<path style="fill:#E0E0E0;" d="M166.307,260.88c0,0-0.012-0.349-0.018-1.009c-0.004-0.669-0.01-1.644-0.019-2.915
						c-0.01-2.558-0.024-6.3-0.042-11.082c-0.021-9.561-0.05-23.274-0.086-39.933l0.164,0.164
						c-21.566,0.011-48.348,0.024-77.304,0.039h-0.006l0.203-0.203c-0.007,19.667-0.013,38.33-0.018,54.938l-0.185-0.184
						c22.818,0.037,42.12,0.069,55.731,0.091c6.81,0.021,12.193,0.038,15.886,0.049c1.839,0.01,3.255,0.017,4.224,0.022
						c0.474,0.005,0.836,0.008,1.092,0.011C166.177,260.873,166.307,260.88,166.307,260.88s-0.116,0.007-0.355,0.011
						c-0.251,0.003-0.606,0.006-1.071,0.011c-0.96,0.005-2.364,0.013-4.188,0.022c-3.684,0.011-9.053,0.028-15.844,0.049
						c-13.64,0.022-32.984,0.054-55.852,0.091l-0.185,0v-0.185c-0.006-16.608-0.012-35.271-0.018-54.938v-0.203h0.203h0.006
						c28.955,0.014,55.737,0.028,77.304,0.038l0.165,0l0,0.164c-0.036,16.702-0.065,30.45-0.086,40.035
						c-0.018,4.766-0.032,8.495-0.042,11.045c-0.008,1.257-0.014,2.221-0.018,2.884C166.319,260.555,166.307,260.88,166.307,260.88z
						"/>
				</g>
			</g>
			<g>
				<rect x="112.643" y="239.712" style="fill:#E0E0E0;" width="31.473" height="5.323"/>
			</g>
			<g>
				<g>
					<path style="fill:#FFFFFF;" d="M137.775,231.426h-15.121c-1.377,0-2.493-1.116-2.493-2.493v-10.423
						c0-1.377,1.116-2.493,2.493-2.493h15.121c1.377,0,2.493,1.116,2.493,2.493v10.423
						C140.268,230.31,139.152,231.426,137.775,231.426z"/>
				</g>
			</g>
		</g>
		<g>
			<g>
				<g>
					<path style="fill:#E0E0E0;" d="M166.307,319.694c0,0-0.012-0.349-0.018-1.009c-0.004-0.669-0.01-1.644-0.019-2.915
						c-0.01-2.558-0.024-6.3-0.042-11.082c-0.021-9.561-0.05-23.274-0.086-39.933l0.164,0.164
						c-21.566,0.011-48.348,0.024-77.304,0.039h-0.006l0.203-0.203c-0.007,19.667-0.013,38.33-0.018,54.938l-0.185-0.185
						c22.818,0.037,42.12,0.069,55.731,0.091c6.81,0.021,12.193,0.038,15.886,0.049c1.839,0.01,3.255,0.017,4.224,0.022
						c0.474,0.005,0.836,0.008,1.092,0.011C166.177,319.686,166.307,319.694,166.307,319.694s-0.116,0.007-0.355,0.011
						c-0.251,0.003-0.606,0.006-1.071,0.011c-0.96,0.005-2.364,0.012-4.188,0.022c-3.684,0.011-9.053,0.028-15.844,0.049
						c-13.64,0.022-32.984,0.054-55.852,0.091l-0.185,0v-0.185c-0.006-16.609-0.012-35.271-0.018-54.938v-0.203h0.203h0.006
						c28.955,0.014,55.737,0.028,77.304,0.038l0.165,0l0,0.164c-0.036,16.702-0.065,30.45-0.086,40.035
						c-0.018,4.766-0.032,8.495-0.042,11.045c-0.008,1.257-0.014,2.221-0.018,2.884
						C166.319,319.368,166.307,319.694,166.307,319.694z"/>
				</g>
			</g>
			<g>
				<rect x="112.643" y="298.526" style="fill:#E0E0E0;" width="31.473" height="5.323"/>
			</g>
			<g>
				<g>
					<path style="fill:#FFFFFF;" d="M137.775,290.24h-15.121c-1.377,0-2.493-1.116-2.493-2.493v-10.423
						c0-1.377,1.116-2.493,2.493-2.493h15.121c1.377,0,2.493,1.116,2.493,2.493v10.423
						C140.268,289.124,139.152,290.24,137.775,290.24z"/>
				</g>
			</g>
		</g>
		<g>
			<g>
				<g>
					<path style="fill:#E0E0E0;" d="M166.307,380.451c0,0-0.012-0.349-0.018-1.009c-0.004-0.669-0.01-1.644-0.019-2.915
						c-0.01-2.559-0.024-6.3-0.042-11.082c-0.021-9.561-0.05-23.274-0.086-39.932l0.164,0.164
						c-21.566,0.011-48.348,0.024-77.304,0.039h-0.006l0.203-0.203c-0.007,19.667-0.013,38.33-0.018,54.938l-0.185-0.185
						c22.818,0.037,42.12,0.069,55.731,0.092c6.81,0.021,12.193,0.038,15.886,0.049c1.839,0.01,3.255,0.017,4.224,0.022
						c0.474,0.005,0.836,0.008,1.092,0.011C166.177,380.443,166.307,380.451,166.307,380.451s-0.116,0.007-0.355,0.011
						c-0.251,0.003-0.606,0.006-1.071,0.011c-0.96,0.005-2.364,0.013-4.188,0.022c-3.684,0.011-9.053,0.028-15.844,0.049
						c-13.64,0.022-32.984,0.054-55.852,0.092l-0.185,0v-0.185c-0.006-16.608-0.012-35.271-0.018-54.938v-0.203h0.203h0.006
						c28.955,0.014,55.737,0.028,77.304,0.039h0.165l0,0.165c-0.036,16.701-0.065,30.45-0.086,40.035
						c-0.018,4.766-0.032,8.495-0.042,11.045c-0.008,1.257-0.014,2.221-0.018,2.884
						C166.319,380.126,166.307,380.451,166.307,380.451z"/>
				</g>
			</g>
			<g>
				<rect x="113.206" y="359.283" style="fill:#E0E0E0;" width="32.706" height="5.323"/>
			</g>
			<g>
				<g>
					<path style="fill:#FFFFFF;" d="M137.119,353.992h-15.121c-1.377,0-2.493-1.116-2.493-2.493v-10.423
						c0-1.377,1.116-2.493,2.493-2.493h15.121c1.377,0,2.493,1.116,2.493,2.493v10.423
						C139.612,352.876,138.496,353.992,137.119,353.992z"/>
				</g>
			</g>
		</g>
		<g>
			<g>
				<g>
					<path style="fill:#E0E0E0;" d="M166.307,440.244c0,0-0.012-0.349-0.018-1.009c-0.004-0.669-0.01-1.644-0.019-2.915
						c-0.01-2.559-0.024-6.3-0.042-11.082c-0.021-9.561-0.05-23.274-0.086-39.933l0.164,0.164
						c-21.566,0.011-48.348,0.024-77.304,0.039h-0.006l0.203-0.203c-0.007,19.667-0.013,38.329-0.018,54.938l-0.185-0.185
						c22.818,0.037,42.12,0.069,55.731,0.092c6.81,0.021,12.193,0.038,15.886,0.049c1.839,0.01,3.255,0.017,4.224,0.022
						c0.474,0.005,0.836,0.008,1.092,0.011C166.177,440.237,166.307,440.244,166.307,440.244s-0.116,0.007-0.355,0.011
						c-0.251,0.002-0.606,0.006-1.071,0.011c-0.96,0.005-2.364,0.013-4.188,0.022c-3.684,0.011-9.053,0.028-15.844,0.049
						c-13.64,0.022-32.984,0.054-55.852,0.092l-0.185,0v-0.185c-0.006-16.609-0.012-35.271-0.018-54.938v-0.203h0.203h0.006
						c28.955,0.014,55.737,0.028,77.304,0.039h0.165l0,0.165c-0.036,16.701-0.065,30.45-0.086,40.035
						c-0.018,4.766-0.032,8.495-0.042,11.045c-0.008,1.257-0.014,2.221-0.018,2.884
						C166.319,439.919,166.307,440.244,166.307,440.244z"/>
				</g>
			</g>
			<g>
				<rect x="112.643" y="419.076" style="fill:#E0E0E0;" width="32.706" height="5.323"/>
			</g>
			<g>
				<g>
					<path style="fill:#FFFFFF;" d="M137.119,413.584h-15.121c-1.377,0-2.493-1.116-2.493-2.493v-10.423
						c0-1.377,1.116-2.493,2.493-2.493h15.121c1.377,0,2.493,1.116,2.493,2.493v10.423
						C139.612,412.468,138.496,413.584,137.119,413.584z"/>
				</g>
			</g>
		</g>
	</g>
	<g>
		<g>
			<g>
				<g>
					<g>
						<rect x="59.402" y="49.771" style="fill:#FAFAFA;" width="113.9" height="101.902"/>
					</g>
				</g>
			</g>
			<g>
				<g>
					<g>
						<g>
							<path style="fill:#E0E0E0;" d="M173.302,151.673c0,0-0.019-0.653-0.029-1.892c-0.007-1.25-0.017-3.078-0.03-5.46
								c-0.015-4.784-0.038-11.778-0.067-20.685c-0.032-17.805-0.078-43.246-0.133-73.865l0.258,0.258
								c-32.802,0.013-71.949,0.029-113.889,0.046h-0.01l0.304-0.304c-0.013,37.073-0.026,71.958-0.036,101.901l-0.268-0.268
								c33.979,0.056,62.418,0.103,82.381,0.135c9.988,0.03,17.851,0.054,23.235,0.071c2.682,0.014,4.743,0.024,6.151,0.032
								c0.689,0.007,1.216,0.012,1.586,0.015C173.113,151.662,173.302,151.673,173.302,151.673s-0.169,0.01-0.517,0.015
								c-0.363,0.004-0.88,0.009-1.557,0.015c-1.396,0.007-3.44,0.018-6.099,0.031c-5.37,0.017-13.213,0.04-23.175,0.071
								c-20.004,0.033-48.503,0.079-82.553,0.135l-0.268,0v-0.269c-0.011-29.943-0.023-64.828-0.037-101.901v-0.305h0.305h0.01
								c41.941,0.017,81.087,0.033,113.889,0.046h0.259l-0.001,0.258c-0.055,30.687-0.101,56.185-0.133,74.029
								c-0.029,8.882-0.051,15.856-0.067,20.627c-0.013,2.36-0.023,4.172-0.03,5.41
								C173.321,151.058,173.302,151.673,173.302,151.673z"/>
						</g>
					</g>
				</g>
			</g>
		</g>
		<g>
			<g>
				<g>
					<g>
						<path style="fill:#E0E0E0;" d="M103.075,67.877c0,0.168-5.995,0.304-13.389,0.304c-7.396,0-13.39-0.136-13.39-0.304
							s5.994-0.304,13.39-0.304C97.08,67.573,103.075,67.709,103.075,67.877z"/>
					</g>
				</g>
			</g>
		</g>
		<g>
			<g>
				<g>
					<g>
						<path style="fill:#E0E0E0;" d="M151.337,75.528c0,0.168-16.47,0.304-36.783,0.304c-20.32,0-36.786-0.136-36.786-0.304
							c0-0.168,16.467-0.304,36.786-0.304C134.866,75.224,151.337,75.36,151.337,75.528z"/>
					</g>
				</g>
			</g>
		</g>
		<g>
			<g>
				<g>
					<rect x="76.493" y="88.489" style="fill:#E0E0E0;" width="4.799" height="4.799"/>
				</g>
			</g>
		</g>
		<g>
			<g>
				<g>
					<rect x="88.304" y="88.489" style="fill:#E0E0E0;" width="4.799" height="4.799"/>
				</g>
			</g>
		</g>
		<g>
			<g>
				<g>
					<rect x="100.334" y="88.271" style="fill:#E0E0E0;" width="4.799" height="4.799"/>
				</g>
			</g>
		</g>
		<g>
			<g>
				<g>
					<rect x="111.928" y="88.489" style="fill:#E0E0E0;" width="4.799" height="4.799"/>
				</g>
			</g>
		</g>
		<g>
			<g>
				<g>
					<rect x="123.74" y="88.489" style="fill:#E0E0E0;" width="4.799" height="4.799"/>
				</g>
			</g>
		</g>
		<g>
			<g>
				<g>
					<rect x="135.552" y="88.489" style="fill:#E0E0E0;" width="4.799" height="4.799"/>
				</g>
			</g>
		</g>
		<g>
			<g>
				<g>
					<rect x="147.364" y="88.489" style="fill:#EBEBEB;" width="4.799" height="4.799"/>
				</g>
			</g>
		</g>
		<g>
			<g>
				<g>
					<rect x="76.493" y="98.69" style="fill:#EBEBEB;" width="4.799" height="4.799"/>
				</g>
			</g>
		</g>
		<g>
			<g>
				<g>
					<rect x="88.304" y="98.69" style="fill:#E0E0E0;" width="4.799" height="4.799"/>
				</g>
			</g>
		</g>
		<g>
			<g>
				<g>
					<rect x="100.116" y="98.69" style="fill:#EBEBEB;" width="4.799" height="4.799"/>
				</g>
			</g>
		</g>
		<g>
			<g>
				<g>
					<rect x="111.928" y="98.69" style="fill:#E0E0E0;" width="4.799" height="4.799"/>
				</g>
			</g>
		</g>
		<g>
			<g>
				<g>
					<rect x="123.74" y="98.69" style="fill:#E0E0E0;" width="4.799" height="4.799"/>
				</g>
			</g>
		</g>
		<g>
			<g>
				<g>
					<rect x="135.77" y="98.472" style="fill:#E0E0E0;" width="4.799" height="4.799"/>
				</g>
			</g>
		</g>
		<g>
			<g>
				<g>
					<rect x="147.364" y="98.69" style="fill:#E0E0E0;" width="4.799" height="4.799"/>
				</g>
			</g>
		</g>
		<g>
			<g>
				<g>
					<rect x="76.493" y="108.892" style="fill:#E0E0E0;" width="4.799" height="4.799"/>
				</g>
			</g>
		</g>
		<g>
			<g>
				<g>
					<rect x="88.522" y="108.674" style="fill:#E0E0E0;" width="4.799" height="4.799"/>
				</g>
			</g>
		</g>
		<g>
			<g>
				<g>
					<rect x="100.116" y="108.892" style="fill:#E0E0E0;" width="4.799" height="4.799"/>
				</g>
			</g>
		</g>
		<g>
			<g>
				<g>
					<rect x="111.928" y="108.892" style="fill:#EBEBEB;" width="4.799" height="4.799"/>
				</g>
			</g>
		</g>
		<g>
			<g>
				<g>
					<rect x="123.74" y="108.892" style="fill:#E0E0E0;" width="4.799" height="4.799"/>
				</g>
			</g>
		</g>
		<g>
			<g>
				<g>
					<rect x="135.552" y="108.892" style="fill:#E0E0E0;" width="4.799" height="4.799"/>
				</g>
			</g>
		</g>
		<g>
			<g>
				<g>
					<rect x="147.364" y="108.892" style="fill:#E0E0E0;" width="4.799" height="4.799"/>
				</g>
			</g>
		</g>
		<g>
			<g>
				<g>
					<rect x="76.493" y="119.093" style="fill:#E0E0E0;" width="4.799" height="4.799"/>
				</g>
			</g>
		</g>
		<g>
			<g>
				<g>
					<rect x="88.304" y="119.093" style="fill:#E0E0E0;" width="4.799" height="4.799"/>
				</g>
			</g>
		</g>
		<g>
			<g>
				<g>
					<rect x="100.116" y="119.093" style="fill:#E0E0E0;" width="4.799" height="4.799"/>
				</g>
			</g>
		</g>
		<g>
			<g>
				<g>
					<rect x="112.146" y="118.875" style="fill:#E0E0E0;" width="4.799" height="4.799"/>
				</g>
			</g>
		</g>
		<g>
			<g>
				<g>
					<rect x="123.74" y="119.093" style="fill:#E0E0E0;" width="4.799" height="4.799"/>
				</g>
			</g>
		</g>
		<g>
			<g>
				<g>
					<rect x="135.552" y="119.093" style="fill:#EBEBEB;" width="4.799" height="4.799"/>
				</g>
			</g>
		</g>
		<g>
			<g>
				<g>
					<rect x="147.364" y="119.093" style="fill:#E0E0E0;" width="4.799" height="4.799"/>
				</g>
			</g>
		</g>
		<g>
			<g>
				<g>
					<rect x="76.493" y="129.295" style="fill:#E0E0E0;" width="4.799" height="4.799"/>
				</g>
			</g>
		</g>
		<g>
			<g>
				<g>
					<rect x="88.304" y="129.295" style="fill:#EBEBEB;" width="4.799" height="4.799"/>
				</g>
			</g>
		</g>
		<g>
			<g>
				<g>
					<rect x="100.116" y="129.295" style="fill:#E0E0E0;" width="4.799" height="4.799"/>
				</g>
			</g>
		</g>
		<g>
			<g>
				<g>
					<rect x="111.928" y="129.295" style="fill:#E0E0E0;" width="4.799" height="4.799"/>
				</g>
			</g>
		</g>
		<g>
			<g>
				<g>
					<rect x="123.74" y="129.295" style="fill:#E0E0E0;" width="4.799" height="4.799"/>
				</g>
			</g>
		</g>
		<g>
			<g>
				<g>
					<rect x="135.77" y="129.077" style="fill:#E0E0E0;" width="4.799" height="4.799"/>
				</g>
			</g>
		</g>
		<g>
			<g>
				<g>
					<rect x="147.364" y="129.295" style="fill:#E0E0E0;" width="4.799" height="4.799"/>
				</g>
			</g>
		</g>
	</g>
	<g>
		<g>
			<rect x="349.673" y="34.128" style="fill:#E0E0E0;" width="105.558" height="174.728"/>
		</g>
		<g>
			<rect x="346.162" y="34.128" style="fill:#EBEBEB;" width="105.558" height="174.728"/>
		</g>
		<g>
			<rect x="350.657" y="37.672" style="fill:#FFFFFF;" width="96.568" height="167.642"/>
		</g>
		<g>
			<g>
				<rect x="369.041" y="59.455" style="fill:#EBEBEB;" width="59.381" height="124.074"/>
			</g>
			<g>
				<path style="fill:#E0E0E0;" d="M369.041,139.624c-0.137-11.59,10.284-22.905,21.761-24.523
					c5.473-0.772,11.288,0.315,16.402-1.782c9.128-3.743,12.032-15.87,21.219-19.467l0.419,89.679h-59.801V139.624z"/>
			</g>
		</g>
	</g>
</g>
<g id="Background_Simple" style="display:none;">
	<path style="display:inline;fill:#F5F5F5;" d="M417.682,92.584l-2.146-3.536c-18.092-29.813-50.801-47.785-85.288-45.604
		c-4.433,0.28-8.847,0.881-13.202,1.813c-31.356,6.712-58.639,30.423-69.947,60.791c-6.651,17.86-8.509,38.423-21.13,52.599
		c-16.426,18.45-44.313,19.029-68.831,18.265c-24.518-0.764-52.424-0.113-68.77,18.41c-10.237,11.6-13.491,28.096-12.665,43.631
		c2.186,41.13,30.845,77.905,67.293,96.185c36.448,18.28,79.361,19.917,119.251,11.876c55.881-11.265,109.024-42.2,140.967-89.981
		C435.155,209.25,443.24,144.154,417.682,92.584z"/>
	
		<ellipse transform="matrix(0.2669 -0.9637 0.9637 0.2669 -77.4517 638.9673)" style="display:inline;fill:#F5F5F5;" cx="381.254" cy="370.391" rx="31.128" ry="31.128"/>
</g>
<g id="Floor">
	<g>
		<path style="fill:#263238;" d="M475.454,465.301c0,0.144-100.947,0.26-225.443,0.26c-124.539,0-225.465-0.117-225.465-0.26
			c0-0.144,100.926-0.26,225.465-0.26C374.507,465.04,475.454,465.157,475.454,465.301z"/>
	</g>
</g>
<g id="Character">
	<g>
		<g>
			<g>
				<g>
					<g>
						<g>
							<g>
								<g>
									<g>
										<path style="fill:#455A64;" d="M210.437,426.557l-2.383,28.688l-8.427,22.147c-0.607,1.596,0.264,3.373,1.897,3.87l0,0
											c0.915,0.279,1.9,0.103,2.657-0.483c4.813-3.726,22.164-17.421,22.358-19.205c0.251-2.31,4.673-30.518,4.673-30.518
											L210.437,426.557z"/>
									</g>
								</g>
							</g>
						</g>
					</g>
				</g>
				<g>
					<g>
						<g>
							<g>
								<g>
									<g>
										<path style="fill:#263238;" d="M201.523,481.262l25.491-22.956l-0.25,2.125c-0.172,1.162-0.191,1.793-0.955,2.52
											c-2.044,1.943-8.018,7.893-21.359,18.315C203.675,481.872,202.457,481.574,201.523,481.262L201.523,481.262z"/>
									</g>
								</g>
							</g>
						</g>
					</g>
				</g>
				<g>
					<g>
						<g>
							<g>
								<g>
									<g>
										<g>
											<path style="fill:#FFFFFF;" d="M221.999,449.36c-0.77,0.42-1.119,1.48-0.732,2.266c0.388,0.786,1.463,1.151,2.24,0.745
												c0.777-0.406,1.236-1.666,0.763-2.404c-0.473-0.738-1.759-1.097-2.416-0.517"/>
										</g>
									</g>
								</g>
							</g>
						</g>
					</g>
				</g>
				<g>
					<g>
						<g>
							<g>
								<g>
									<g>
										<g>
											<path style="fill:#263238;" d="M209.394,469.449c-0.17,0.062-0.657-1.506-2.274-2.493
												c-1.587-1.035-3.211-0.799-3.229-0.98c-0.017-0.073,0.369-0.257,1.049-0.28c0.674-0.027,1.633,0.169,2.518,0.726
												c0.883,0.559,1.473,1.34,1.738,1.96C209.468,469.006,209.467,469.434,209.394,469.449z"/>
										</g>
									</g>
								</g>
							</g>
						</g>
					</g>
				</g>
				<g>
					<g>
						<g>
							<g>
								<g>
									<g>
										<g>
											<path style="fill:#263238;" d="M206.948,473.066c-0.149,0.109-0.969-0.919-2.405-1.5
												c-1.423-0.613-2.73-0.474-2.757-0.657c-0.067-0.155,1.375-0.616,3.001,0.074
												C206.42,471.655,207.105,473.005,206.948,473.066z"/>
										</g>
									</g>
								</g>
							</g>
						</g>
					</g>
				</g>
				<g>
					<g>
						<g>
							<g>
								<g>
									<g>
										<g>
											<path style="fill:#263238;" d="M213.711,464.939c-0.149,0.121-1.402-1.466-3.555-2.566
												c-2.137-1.133-4.156-1.249-4.141-1.441c-0.03-0.157,2.139-0.329,4.433,0.88
												C212.754,462.998,213.858,464.873,213.711,464.939z"/>
										</g>
									</g>
								</g>
							</g>
						</g>
					</g>
				</g>
				<g>
					<g>
						<g>
							<g>
								<g>
									<g>
										<g>
											<path style="fill:#263238;" d="M215.164,456.279c-0.095,0.164-1.606-0.665-3.656-0.958
												c-2.046-0.321-3.733,0.029-3.776-0.156c-0.064-0.149,1.67-0.809,3.87-0.47
												C213.804,455.016,215.269,456.156,215.164,456.279z"/>
										</g>
									</g>
								</g>
							</g>
						</g>
					</g>
				</g>
				<g>
					<g>
						<g>
							<g>
								<g>
									<g>
										<g>
											<path style="fill:#263238;" d="M216.077,447.875c-0.106,0.156-1.595-0.967-3.779-1.099
												c-2.181-0.18-3.814,0.72-3.897,0.55c-0.04-0.065,0.31-0.391,1.011-0.702c0.695-0.312,1.756-0.56,2.931-0.479
												c1.175,0.086,2.19,0.482,2.833,0.89C215.826,447.444,216.126,447.817,216.077,447.875z"/>
										</g>
									</g>
								</g>
							</g>
						</g>
					</g>
				</g>
				<g>
					<g>
						<g>
							<g>
								<g>
									<g>
										<g>
											<path style="fill:#263238;" d="M212.518,445.183c-0.036-0.004-0.061-0.395,0.076-1.087
												c0.137-0.686,0.447-1.685,1.162-2.745c0.366-0.499,0.76-1.149,1.599-1.441c0.417-0.148,1.002-0.012,1.301,0.403
												c0.297,0.405,0.354,0.886,0.316,1.341c-0.223,1.814-1.969,3.406-4.041,3.45c-2.076,0.007-3.811-1.362-4.457-3.017
												c-0.135-0.425-0.205-0.936,0.069-1.397c0.27-0.465,0.872-0.597,1.275-0.483c0.837,0.217,1.321,0.764,1.782,1.18
												c0.902,0.898,1.424,1.797,1.717,2.431c0.294,0.639,0.369,1.024,0.335,1.036c-0.108,0.064-0.574-1.483-2.36-3.143
												c-0.454-0.386-0.973-0.869-1.578-0.991c-0.295-0.061-0.564,0.03-0.696,0.259c-0.134,0.219-0.112,0.585,0.008,0.921
												c0.551,1.357,2.139,2.604,3.894,2.571c1.746-0.019,3.279-1.421,3.472-2.879c0.041-0.352-0.015-0.716-0.181-0.945
												c-0.163-0.225-0.439-0.312-0.714-0.233c-0.581,0.165-1.018,0.727-1.377,1.195
												C212.691,443.584,212.642,445.225,212.518,445.183z"/>
										</g>
									</g>
								</g>
							</g>
						</g>
					</g>
				</g>
			</g>
		</g>
		<g>
			<g>
				<g>
					<g>
						<g>
							<g>
								<g>
									<g>
										<g>
											<g>
												<path style="fill:#455A64;" d="M283.4,426.804l-1.062,24.29c0,0,24.333,9.237,24.574,13.745l-47.17-0.368l0.102-37.914
													L283.4,426.804z"/>
											</g>
										</g>
									</g>
								</g>
							</g>
						</g>
					</g>
					<g>
						<g>
							<g>
								<g>
									<g>
										<g>
											<g>
												<g>
													<path style="fill:#E0E0E0;" d="M267.769,448.936c-0.915,0.242-1.554,1.264-1.349,2.188
														c0.205,0.924,1.238,1.583,2.157,1.356c0.919-0.226,1.723-1.429,1.417-2.324c-0.307-0.895-1.562-1.602-2.4-1.162"/>
												</g>
											</g>
										</g>
									</g>
								</g>
							</g>
						</g>
					</g>
					<g>
						<g>
							<g>
								<g>
									<g>
										<g>
											<g>
												<path style="fill:#263238;" d="M259.742,464.471l0.16-3.821l45.166,1.781c0,0,2.093,0.93,1.844,2.408L259.742,464.471z"
													/>
											</g>
										</g>
									</g>
								</g>
							</g>
						</g>
					</g>
					<g>
						<g>
							<g>
								<g>
									<g>
										<g>
											<g>
												<g>
													<path style="fill:#263238;" d="M283.105,450.859c-0.009,0.23-1.162,0.326-2.301,1.057
														c-1.158,0.702-1.75,1.695-1.961,1.602c-0.212-0.046,0.142-1.421,1.537-2.282
														C281.766,450.363,283.156,450.648,283.105,450.859z"/>
												</g>
											</g>
										</g>
									</g>
								</g>
							</g>
						</g>
					</g>
					<g>
						<g>
							<g>
								<g>
									<g>
										<g>
											<g>
												<g>
													<path style="fill:#263238;" d="M288.036,452.944c0.051,0.223-0.95,0.607-1.74,1.575
														c-0.818,0.945-1.024,1.997-1.253,1.985c-0.217,0.035-0.366-1.316,0.64-2.501
														C286.677,452.811,288.033,452.725,288.036,452.944z"/>
												</g>
											</g>
										</g>
									</g>
								</g>
							</g>
						</g>
					</g>
					<g>
						<g>
							<g>
								<g>
									<g>
										<g>
											<g>
												<g>
													<path style="fill:#263238;" d="M290.8,458.888c-0.21,0.047-0.521-1.106,0.08-2.363
														c0.592-1.261,1.682-1.751,1.778-1.558c0.129,0.19-0.576,0.862-1.054,1.901
														C291.103,457.896,291.029,458.867,290.8,458.888z"/>
												</g>
											</g>
										</g>
									</g>
								</g>
							</g>
						</g>
					</g>
					<g>
						<g>
							<g>
								<g>
									<g>
										<g>
											<g>
												<g>
													<path style="fill:#263238;" d="M282.733,445.297c-0.098,0.209-1.152-0.117-2.455-0.038
														c-1.304,0.052-2.321,0.481-2.439,0.282c-0.132-0.168,0.863-1.012,2.399-1.083
														C281.772,444.375,282.847,445.117,282.733,445.297z"/>
												</g>
											</g>
										</g>
									</g>
								</g>
							</g>
						</g>
					</g>
				</g>
			</g>
		</g>
		<g>
			<g>
				<g>
					<g>
						<g>
							<path style="fill:#263238;" d="M290.993,244.246c-0.029,1.519-5.984,204.15-5.984,204.15l-29.383,1.109l-7.612-182.664
								c0,0-7.448,93.766-7.448,95.792c0,2.026-8.359,87.586-8.359,87.586l-27.45-1.235l1.956-192.993l3.567-27.683l77.93,0.794
								L290.993,244.246z"/>
						</g>
					</g>
					<g>
						<g>
							<g>
								<path style="fill:#455A64;" d="M244.74,260.206c-0.015,0.042,0.442,0.231,1.278,0.537c0.836,0.306,2.052,0.729,3.556,1.236
									l0.286,0.097l0.021-0.296c0.175-2.522,0.373-5.895,0.558-9.591c0.2-4.007,0.347-7.636,0.422-10.264
									c0.038-1.314,0.057-2.378,0.056-3.114c0-0.736-0.021-1.143-0.064-1.145c-0.043-0.002-0.104,0.402-0.178,1.135
									c-0.074,0.732-0.161,1.793-0.255,3.105c-0.187,2.623-0.404,6.249-0.604,10.256c-0.185,3.696-0.324,7.071-0.401,9.598
									l0.307-0.199c-1.522-0.456-2.76-0.815-3.621-1.051C245.239,260.274,244.755,260.164,244.74,260.206z"/>
							</g>
						</g>
					</g>
					<g>
						<g>
							<g>
								<path style="fill:#455A64;" d="M247.13,238.404c0.02-0.027-0.101-0.168-0.418-0.274c-0.311-0.106-0.835-0.136-1.39,0.121
									c-0.543,0.225-1.144,0.889-1.054,1.724c0.064,0.788,0.667,1.645,1.676,1.855c1.011,0.175,1.912-0.375,2.321-1.051
									c0.446-0.706,0.285-1.515-0.025-1.99c-0.31-0.499-0.737-0.763-1.041-0.871c-0.31-0.11-0.495-0.092-0.502-0.058
									c-0.047,0.088,0.71,0.24,1.152,1.123c0.209,0.423,0.272,1.018-0.075,1.514c-0.323,0.494-1.032,0.88-1.708,0.753
									c-0.67-0.128-1.161-0.758-1.227-1.327c-0.089-0.585,0.277-1.066,0.695-1.305C246.417,238.112,247.11,238.495,247.13,238.404
									z"/>
							</g>
						</g>
					</g>
					<g>
						<g>
							<g>
								<path style="fill:#455A64;" d="M232.676,240.555c0.171,0.017,0.41-0.892,0.533-2.03c0.123-1.138,0.084-2.074-0.087-2.09
									c-0.171-0.017-0.41,0.892-0.533,2.03C232.465,239.602,232.504,240.538,232.676,240.555z"/>
							</g>
						</g>
					</g>
					<g>
						<g>
							<g>
								<path style="fill:#455A64;" d="M230.492,240.344c0.172,0.001,0.316-0.967,0.323-2.162c0.006-1.195-0.128-2.164-0.301-2.165
									c-0.172-0.001-0.316,0.967-0.323,2.162C230.185,239.374,230.32,240.343,230.492,240.344z"/>
							</g>
						</g>
					</g>
					<g>
						<g>
							<g>
								<path style="fill:#455A64;" d="M268.449,241.79c0.171,0.018,0.437-1.072,0.595-2.433c0.157-1.362,0.146-2.48-0.025-2.498
									c-0.171-0.018-0.437,1.072-0.595,2.433C268.267,240.654,268.278,241.772,268.449,241.79z"/>
							</g>
						</g>
					</g>
					<g>
						<g>
							<g>
								<path style="fill:#455A64;" d="M265.803,241.992c0.153,0.057,0.71-1.056,0.77-2.55c0.069-1.494-0.392-2.647-0.548-2.602
									c-0.175,0.04-0.008,1.181-0.074,2.577C265.896,240.813,265.632,241.938,265.803,241.992z"/>
							</g>
						</g>
					</g>
				</g>
				<g>
					<g>
						<g>
							<path style="fill:#455A64;" d="M275.762,239.191c-0.038,0.007,0.001,0.335,0.105,0.924c0.095,0.591,0.306,1.434,0.633,2.457
								c0.647,2.047,1.903,4.796,3.899,7.471c2.006,2.67,4.328,4.699,6.151,5.951c0.91,0.629,1.679,1.096,2.236,1.374
								c0.552,0.286,0.865,0.429,0.884,0.397c0.051-0.081-1.142-0.753-2.879-2.07c-1.737-1.311-3.967-3.342-5.935-5.961
								c-1.958-2.625-3.246-5.292-3.98-7.281C276.136,240.463,275.859,239.172,275.762,239.191z"/>
						</g>
					</g>
				</g>
				<g>
					<g>
						<g>
							<path style="fill:#455A64;" d="M207.677,253.318c-0.003,0.033,0.335,0.1,0.955,0.15c0.62,0.051,1.525,0.062,2.636-0.049
								c2.209-0.206,5.293-1.039,8.066-2.984c2.773-1.946,4.518-4.503,5.375-6.448c0.438-0.977,0.694-1.802,0.824-2.38
								c0.132-0.578,0.164-0.904,0.13-0.911c-0.1-0.024-0.367,1.261-1.315,3.134c-0.93,1.863-2.67,4.297-5.347,6.176
								c-2.677,1.878-5.637,2.742-7.784,3.039C209.054,253.355,207.682,253.221,207.677,253.318z"/>
						</g>
					</g>
				</g>
			</g>
		</g>
		<g>
			<g>
				<g>
					<path style="fill:#263238;" d="M279.666,56.955c-1.022-2.062-2.253-4.074-4.008-5.563c-1.755-1.489-4.111-2.402-6.377-2.001
						c-2.267,0.401-4.304,2.328-4.409,4.628l-1.652,0.622c3.323,1.808,5.314,5.337,6.784,8.823c1.47,3.486,1.569,6.837,3.952,9.775
						c1.721-2.399,3.783-4.961,3.882-7.912c1.009,1.716,1.362,3.808,0.971,5.76c2.056-1.538,3.021-4.227,2.976-6.794
						C281.739,61.726,280.806,59.255,279.666,56.955z"/>
				</g>
				<g>
					<path style="fill:#263238;" d="M266.988,51.196c-1.776-7.809-11.834-8.74-18.255-8.474c-6.421,0.266-12.416,3.632-16.831,8.196
						c-4.415,4.564-7.418,10.256-9.888,16.055c1.553,0.185,3.106,0.371,4.659,0.556c-1.327-0.212-2.59,0.848-3.04,2.086
						c-0.45,1.239-0.283,2.6-0.091,3.901c0.461,3.11,1.042,6.212,1.988,9.215c2.473,7.857,7.328,14.755,12.114,21.515
						c1.123-6.153-0.114-12.465-1.541-18.557c-0.506-2.161-1.03-4.466-0.255-6.549c0.698-1.875,2.354-3.261,4.123-4.257
						c1.769-0.996,3.704-1.687,5.465-2.697c3.938-2.258,6.868-6.135,7.918-10.478L266.988,51.196z"/>
				</g>
				<g>
					<g>
						<g>
							<g>
								<g>
									<g>
										<g>
											<g>
												<g>
													<g>
														<g>
															<g>
																<g>
																	<g>
																		<g>
																			<g>
																				<g>
																					<path style="fill:#FFBE9D;" d="M233.056,73.325l3.317,46.666c0.564,7.936,3.014,19.478,15.52,18.014l0,0
																						c10.755-2.089,12.776-12.604,12.242-20.009c-0.254-3.513-0.457-6.443-0.46-6.805c0,0,11.8-1.962,11.822-13.781
																						c0.011-5.712-0.925-17.477-1.895-28.112c-1.042-11.421-10.693-20.121-22.161-20l-1.14,0.012
																						C238.014,50.157,231.87,61.065,233.056,73.325z"/>
																				</g>
																			</g>
																		</g>
																	</g>
																</g>
															</g>
														</g>
													</g>
												</g>
											</g>
										</g>
									</g>
								</g>
							</g>
						</g>
					</g>
					<g>
						<g>
							<g>
								<g>
									<g>
										<g>
											<g>
												<g>
													<g>
														<g>
															<g>
																<g>
																	<g>
																		<g>
																			<g>
																				<g>
																					<path style="fill:#EB996E;" d="M263.676,111.19c0,0-7.444,0.515-15.434-4.387c0,0,3.844,8.592,15.625,7.404
																						L263.676,111.19z"/>
																				</g>
																			</g>
																		</g>
																	</g>
																</g>
															</g>
														</g>
													</g>
												</g>
											</g>
										</g>
									</g>
								</g>
							</g>
						</g>
					</g>
					<g>
						<g>
							<g>
								<g>
									<g>
										<g>
											<g>
												<g>
													<g>
														<g>
															<g>
																<g>
																	<g>
																		<g>
																			<g>
																				<g>
																					<g>
																						<g>
																							<g>
																								<g>
																									<path style="fill:#263238;" d="M253.941,75.784c-0.214,0.257-1.66-0.721-3.63-0.609
																										c-1.97,0.082-3.358,1.199-3.586,0.963c-0.111-0.104,0.095-0.558,0.699-1.062
																										c0.594-0.501,1.626-1.013,2.854-1.073c1.228-0.059,2.286,0.348,2.907,0.79
																										C253.817,75.237,254.047,75.668,253.941,75.784z"/>
																								</g>
																							</g>
																						</g>
																					</g>
																				</g>
																			</g>
																		</g>
																	</g>
																</g>
															</g>
														</g>
													</g>
												</g>
											</g>
										</g>
									</g>
								</g>
							</g>
						</g>
					</g>
					<g>
						<g>
							<g>
								<g>
									<g>
										<g>
											<g>
												<g>
													<g>
														<g>
															<g>
																<g>
																	<g>
																		<g>
																			<g>
																				<g>
																					<g>
																						<g>
																							<g>
																								<path style="fill:#263238;" d="M252.254,80.559c0.038,0.843-0.643,1.57-1.522,1.627
																									c-0.877,0.056-1.622-0.579-1.66-1.422c-0.039-0.843,0.643-1.571,1.521-1.628
																									C251.471,79.079,252.215,79.716,252.254,80.559z"/>
																							</g>
																						</g>
																					</g>
																				</g>
																			</g>
																		</g>
																	</g>
																</g>
															</g>
														</g>
													</g>
												</g>
											</g>
										</g>
									</g>
								</g>
							</g>
						</g>
					</g>
					<g>
						<g>
							<g>
								<g>
									<g>
										<g>
											<g>
												<g>
													<g>
														<g>
															<g>
																<g>
																	<g>
																		<g>
																			<g>
																				<g>
																					<g>
																						<g>
																							<g>
																								<path style="fill:#263238;" d="M260.009,89.049c-0.01-0.103,1.117-0.31,2.944-0.563
																									c0.463-0.053,0.901-0.15,0.976-0.467c0.106-0.336-0.094-0.834-0.324-1.371
																									c-0.448-1.118-0.916-2.289-1.408-3.517c-1.957-5.007-3.379-9.127-3.177-9.204
																									c0.203-0.077,1.953,3.919,3.91,8.927c0.471,1.235,0.922,2.412,1.351,3.538
																									c0.181,0.525,0.489,1.12,0.259,1.818c-0.121,0.347-0.459,0.603-0.755,0.686
																									c-0.297,0.094-0.557,0.102-0.786,0.118C261.159,89.132,260.017,89.152,260.009,89.049z"/>
																							</g>
																						</g>
																					</g>
																				</g>
																			</g>
																		</g>
																	</g>
																</g>
															</g>
														</g>
													</g>
												</g>
											</g>
										</g>
									</g>
								</g>
							</g>
						</g>
					</g>
					<g>
						<g>
							<g>
								<g>
									<g>
										<g>
											<g>
												<g>
													<g>
														<g>
															<g>
																<g>
																	<g>
																		<g>
																			<g>
																				<path style="fill:#263238;" d="M252.487,68.462c-0.153,0.452-1.755,0.255-3.631,0.51
																					c-1.882,0.215-3.391,0.799-3.645,0.398c-0.113-0.192,0.146-0.619,0.755-1.061
																					c0.603-0.441,1.568-0.865,2.694-1.007c1.127-0.139,2.162,0.035,2.849,0.315
																					C252.202,67.897,252.553,68.247,252.487,68.462z"/>
																			</g>
																		</g>
																	</g>
																</g>
															</g>
														</g>
													</g>
												</g>
											</g>
										</g>
									</g>
								</g>
							</g>
						</g>
					</g>
					<g>
						<g>
							<g>
								<g>
									<g>
										<g>
											<g>
												<g>
													<g>
														<g>
															<g>
																<g>
																	<g>
																		<g>
																			<g>
																				<path style="fill:#263238;" d="M271.464,70.544c-0.177,0.373-1.744,0.106-3.608,0.204
																					c-1.867,0.064-3.387,0.465-3.615,0.11c-0.101-0.17,0.179-0.514,0.803-0.851
																					c0.619-0.336,1.594-0.634,2.712-0.684c1.118-0.048,2.129,0.165,2.79,0.445
																					C271.215,70.049,271.541,70.367,271.464,70.544z"/>
																			</g>
																		</g>
																	</g>
																</g>
															</g>
														</g>
													</g>
												</g>
											</g>
										</g>
									</g>
								</g>
							</g>
						</g>
					</g>
					<g>
						<g>
							<g>
								<g>
									<g>
										<g>
											<g>
												<g>
													<g>
														<g>
															<g>
																<path style="fill:#FFBE9D;" d="M234.113,82.065c-0.203-0.085-8.145-2.316-7.802,5.76
																	c0.343,8.076,8.38,6.066,8.385,5.834C234.7,93.426,234.113,82.065,234.113,82.065z"/>
															</g>
														</g>
													</g>
												</g>
											</g>
										</g>
									</g>
								</g>
							</g>
						</g>
					</g>
					<g>
						<g>
							<g>
								<g>
									<g>
										<g>
											<g>
												<g>
													<g>
														<g>
															<g>
																<g>
																	<path style="fill:#EB996E;" d="M232.099,90.704c-0.037-0.024-0.137,0.105-0.37,0.224
																		c-0.227,0.116-0.623,0.206-1.051,0.066c-0.866-0.277-1.642-1.601-1.743-3.055c-0.052-0.734,0.073-1.44,0.308-2.031
																		c0.222-0.601,0.586-1.03,1.013-1.125c0.423-0.117,0.738,0.127,0.847,0.35c0.118,0.221,0.073,0.384,0.117,0.397
																		c0.023,0.019,0.168-0.143,0.088-0.474c-0.04-0.159-0.143-0.346-0.339-0.493c-0.201-0.149-0.489-0.218-0.787-0.173
																		c-0.621,0.07-1.157,0.666-1.417,1.315c-0.293,0.653-0.451,1.448-0.392,2.272c0.121,1.625,1.019,3.113,2.201,3.401
																		c0.574,0.124,1.041-0.067,1.277-0.268C232.093,90.9,232.128,90.717,232.099,90.704z"/>
																</g>
															</g>
														</g>
													</g>
												</g>
											</g>
										</g>
									</g>
								</g>
							</g>
						</g>
					</g>
					<g>
						<g>
							<g>
								<g>
									<g>
										<g>
											<g>
												<path style="fill:#263238;" d="M271.927,75.026c-0.214,0.257-1.66-0.721-3.63-0.609
													c-1.97,0.082-3.358,1.199-3.586,0.963c-0.111-0.104,0.095-0.558,0.699-1.062c0.594-0.501,1.626-1.013,2.854-1.074
													c1.228-0.059,2.286,0.348,2.906,0.791C271.803,74.479,272.033,74.911,271.927,75.026z"/>
											</g>
										</g>
									</g>
								</g>
							</g>
						</g>
					</g>
					<g>
						<g>
							<g>
								<g>
									<g>
										<g>
											<path style="fill:#263238;" d="M269.125,80.559c0.038,0.843-0.643,1.57-1.522,1.627c-0.877,0.056-1.622-0.579-1.66-1.422
												c-0.039-0.842,0.643-1.571,1.521-1.628C268.342,79.079,269.087,79.716,269.125,80.559z"/>
										</g>
									</g>
								</g>
							</g>
						</g>
					</g>
				</g>
				<g>
					<path style="fill:#263238;" d="M267.298,55.332c1.27-4.936-2.797-7.182-7.054-9.985c-4.256-2.804-10.285-2.577-14.319,0.538
						c-2.113,1.632-3.633,3.894-5.48,5.822s-4.27,3.604-6.937,3.485c2.765,2.709,7.304,3.398,10.749,1.632
						c-2.948,3.607-6.979,6.317-11.432,7.686c3.411,2.173,8.388,1.391,10.969-1.722c-1.023,3.814-3,7.369-5.701,10.251
						c-0.458,0.488-0.976,1.108-0.772,1.745c0.208,0.65,1.023,0.849,1.704,0.878c3.969,0.17,7.951-2.015,9.939-5.454
						c2.14-3.7,3.533-7.623,5.479-11.428c0.926-1.811,3.908-4.986,6.313-5.082c2.006-0.08,5.831,0.568,6.778,2.339"/>
				</g>
				<g>
					<path style="fill:#263238;" d="M249.025,51.134c-0.35-0.579-1.071-0.808-1.739-0.917c-4.454-0.722-8.927,2.011-11.45,5.752
						c-2.523,3.741-3.443,8.319-4.012,12.795c-0.463,3.635-0.716,7.424,0.51,10.877l1.336,2.307
						c0.666,0.838,1.535,2.554,1.799,3.591c0.264,1.037,1.081,2.151,2.14,1.991c0.783-0.119,1.294-0.897,1.52-1.656
						c0.682-2.282-0.289-4.832,0.476-7.088c0.513-1.512,1.727-2.659,2.655-3.958c1.642-2.297,2.397-5.093,3.122-7.822
						c1.219-4.592,2.438-9.185,3.658-13.777C249.223,52.535,249.396,51.75,249.025,51.134z"/>
				</g>
				<g>
					<path style="fill:#263238;" d="M267.298,55.332c1.27-4.936-2.797-7.182-7.054-9.985c-4.256-2.804-10.285-2.577-14.319,0.538
						c-2.113,1.632-3.633,3.894-5.48,5.822s-4.27,3.604-6.937,3.485c2.765,2.709,7.304,3.398,10.749,1.632
						c-2.948,3.607-6.979,6.317-11.432,7.686c3.411,2.173,8.388,1.391,10.969-1.722c-1.023,3.814-3,7.369-5.701,10.251
						c-0.458,0.488-0.976,1.108-0.772,1.745c0.208,0.65,1.023,0.849,1.704,0.878c3.969,0.17,7.951-2.015,9.939-5.454
						c2.14-3.7,3.533-7.623,5.479-11.428c0.926-1.811,3.908-4.986,6.313-5.082c2.006-0.08,5.831,0.568,6.778,2.339"/>
				</g>
				<g>
					<g>
						<path style="fill:#455A64;" d="M241.83,54.38c-0.009-0.043,0.397-0.127,1.073-0.415c0.674-0.291,1.597-0.833,2.587-1.703
							c1.006-0.852,2.038-2.047,3.317-3.283c0.644-0.611,1.36-1.229,2.2-1.744c0.838-0.512,1.815-0.903,2.853-1.057
							c2.086-0.322,4.1,0.165,5.712,0.933c1.628,0.774,2.876,1.823,3.84,2.753c0.961,0.94,1.644,1.783,2.1,2.374
							c0.454,0.594,0.678,0.941,0.652,0.961c-0.074,0.064-1.064-1.273-2.998-3.075c-0.976-0.88-2.219-1.872-3.791-2.59
							c-1.558-0.716-3.483-1.159-5.437-0.856c-1.97,0.282-3.551,1.46-4.812,2.641c-1.271,1.191-2.347,2.38-3.406,3.218
							c-1.043,0.855-2.03,1.371-2.746,1.612C242.256,54.389,241.834,54.406,241.83,54.38z"/>
					</g>
				</g>
				<g>
					<g>
						<path style="fill:#455A64;" d="M247.934,61.262c-0.058-0.053,0.775-1.038,1.836-2.838c0.545-0.891,1.158-1.979,1.966-3.124
							c0.802-1.139,1.846-2.345,3.267-3.196c1.412-0.85,2.977-1.247,4.395-1.285c1.426-0.036,2.693,0.288,3.669,0.712
							c0.984,0.422,1.688,0.936,2.135,1.323c0.447,0.391,0.648,0.651,0.627,0.672c-0.062,0.084-0.967-0.916-2.896-1.663
							c-0.956-0.367-2.17-0.637-3.519-0.578c-1.344,0.061-2.819,0.451-4.152,1.253c-1.335,0.799-2.344,1.935-3.15,3.035
							c-0.81,1.104-1.456,2.172-2.042,3.043c-0.58,0.876-1.094,1.561-1.483,2.004C248.202,61.065,247.956,61.282,247.934,61.262z"/>
					</g>
				</g>
				<g>
					<g>
						<path style="fill:#455A64;" d="M275.403,60.152c-0.075,0.024-0.321-0.663-0.842-1.702c-0.519-1.031-1.356-2.428-2.687-3.563
							c-1.33-1.131-2.883-1.66-4.014-1.773c-1.141-0.126-1.856,0.069-1.874-0.018c-0.021-0.045,0.681-0.377,1.901-0.339
							c1.204,0.025,2.895,0.535,4.315,1.744c1.414,1.208,2.237,2.706,2.685,3.8C275.336,59.407,275.461,60.135,275.403,60.152z"/>
					</g>
				</g>
				<g>
					<g>
						<path style="fill:#455A64;" d="M242.383,74.415c0.002,0.011-0.113,0.041-0.34,0.088c-0.228,0.043-0.568,0.099-1.018,0.127
							c-0.893,0.057-2.251,0.029-3.867-0.518c-0.781-0.291-1.727-0.614-2.415-1.467c-0.339-0.411-0.513-1.074-0.247-1.642
							c0.258-0.58,0.839-0.899,1.387-1.122c0.563-0.227,1.165-0.356,1.741-0.556c0.581-0.201,1.164-0.455,1.733-0.769
							c1.137-0.63,2.226-1.496,3.14-2.596l0.263,0.317c-2.169,1.241-5.445,1.059-7.585-1.016l-0.235-0.227l0.295-0.148
							c2.035-1.024,3.924-2.591,5.349-4.6l0.293,0.373c-2.824,1.127-6.379,0.655-8.892-1.439c-0.097-0.082-0.194-0.165-0.283-0.241
							l-0.32-0.272l0.402-0.151c1.35-0.508,2.47-1.481,3.385-2.568c0.921-1.093,1.649-2.321,2.389-3.52
							c0.73-1.204,1.509-2.379,2.428-3.403c0.912-1.027,1.928-1.919,2.999-2.673c4.31-3.049,9.358-3.734,13.205-2.941
							c3.903,0.75,6.654,2.607,8.286,4.037c1.653,1.454,2.281,2.515,2.281,2.515c-0.052,0.047-0.735-0.974-2.409-2.366
							c-1.652-1.369-4.391-3.147-8.223-3.836c-1.901-0.347-4.052-0.375-6.278,0.084c-2.224,0.452-4.511,1.409-6.594,2.885
							c-2.105,1.467-3.876,3.519-5.275,5.955c-0.735,1.196-1.471,2.448-2.426,3.585c-0.947,1.128-2.128,2.165-3.592,2.718
							l0.082-0.423c0.084,0.071,0.175,0.148,0.266,0.226c2.356,1.968,5.734,2.422,8.385,1.367l0.78-0.31l-0.487,0.683
							c-1.479,2.075-3.435,3.686-5.542,4.733l0.06-0.376c1.952,1.922,5.037,2.122,7.05,0.983l1.016-0.575l-0.752,0.892
							c-0.958,1.136-2.096,2.023-3.278,2.663c-0.592,0.319-1.197,0.576-1.801,0.777c-0.608,0.203-1.201,0.322-1.733,0.53
							c-0.524,0.202-1.023,0.489-1.223,0.937c-0.213,0.448-0.098,0.961,0.193,1.335c0.591,0.769,1.501,1.119,2.262,1.416
							c1.566,0.568,2.897,0.636,3.781,0.619C241.909,74.484,242.378,74.383,242.383,74.415z"/>
					</g>
				</g>
			</g>
			<g>
				<g>
					<path style="fill:#EB996E;" d="M261.065,93.993c-1.93-0.858-3.861-1.717-5.791-2.575c-0.465,0.769-0.937,1.55-1.169,2.419
						c-0.233,0.868-0.198,1.85,0.3,2.598c0.473,0.711,1.285,1.114,2.083,1.418c0.702,0.267,1.466,0.486,2.196,0.308
						c0.832-0.203,1.472-0.9,1.824-1.68c0.352-0.78,0.46-1.645,0.563-2.495"/>
				</g>
				<g>
					<g>
						<path style="fill:#263238;" d="M258.683,98.16c0.009,0.027-0.211,0.142-0.648,0.161c-0.436,0.025-1.063-0.1-1.773-0.364
							c-0.688-0.265-1.635-0.643-2.184-1.618c-0.533-0.966-0.43-2.244,0.044-3.32c0.271-0.64,0.62-1.205,0.941-1.728l0.114-0.186
							l0.196,0.089c1.658,0.752,3.093,1.424,4.107,1.923c1.014,0.499,1.608,0.823,1.584,0.877c-0.024,0.054-0.663-0.17-1.712-0.589
							c-1.05-0.419-2.51-1.034-4.179-1.762l0.31-0.097c-0.313,0.527-0.645,1.076-0.896,1.669c-0.439,0.996-0.518,2.099-0.098,2.906
							c0.416,0.807,1.248,1.211,1.905,1.504c0.676,0.299,1.242,0.464,1.646,0.5C258.445,98.165,258.674,98.12,258.683,98.16z"/>
					</g>
				</g>
			</g>
		</g>
		<g>
			<g>
				<path style="fill:#E0E0E0;" d="M235.279,116.204c0,0,8.366,9.144,30.268,1.85l13.846,20.253l13.798,111.811l-46.297,5.302
					l-36.256-5.125l11.58-111.989L235.279,116.204z"/>
			</g>
			<path style="fill:#455A64;" d="M290.862,125.453c0,0,7.971,1.36,12.517,10.607c4.546,9.246,7.657,46.758,7.657,46.758
				l23.138-17.169l11.781,4.507c0,0-19.241,41.499-32.026,44.527c-10.549,2.498-16.47,3.656-22.177-5.312
				c-5.707-8.968-9.849-73.311-9.849-73.311L290.862,125.453z"/>
			<g>
				<g>
					<path style="fill:#455A64;" d="M300.124,274.969c0,0-5.962-61.681-5.684-62.418c0.278-0.737-0.646-36.097,0-36.649
						c0.647-0.552-3.579-50.449-3.579-50.449l-21.981-6.794l0.288,0.045l-5.036-5.326c0,0-6.147,20.388-6.064,20.719
						c1.777,7.02,8.148,111.415,8.148,111.415c0,0.743,2.511,29.458,2.511,29.458H300.124z"/>
				</g>
				<g>
					<g>
						<path style="fill:#263238;" d="M293.466,179.126c0.013,0.019-0.245,0.219-0.747,0.581c-0.559,0.393-1.295,0.911-2.215,1.558
							l-0.059,0.041l-0.068-0.033c-2.683-1.299-6.753-3.27-11.673-5.652l-0.121-0.059l-0.01-0.137
							c-0.285-3.791-0.608-8.088-0.95-12.626c-0.304-4.261-0.592-8.306-0.85-11.939l-0.015-0.209l0.203-0.043
							c5.069-1.076,9.507-0.554,12.481,0.088c1.498,0.326,2.655,0.694,3.432,0.977c0.777,0.284,1.177,0.486,1.166,0.51
							c-0.01,0.025-0.427-0.128-1.215-0.365c-0.788-0.236-1.949-0.556-3.441-0.839c-2.965-0.556-7.351-1-12.32,0.097l0.188-0.252
							c0.273,3.632,0.576,7.675,0.896,11.936c0.323,4.54,0.628,8.838,0.898,12.63l-0.131-0.195
							c4.878,2.466,8.914,4.506,11.574,5.851l-0.126,0.008c0.948-0.606,1.706-1.091,2.282-1.459
							C293.171,179.27,293.453,179.107,293.466,179.126z"/>
					</g>
				</g>
				<g>
					<g>
						<path style="fill:#263238;" d="M293.82,143.167c0.036-0.001,0.091,0.531,0.159,1.496c0.071,0.965,0.138,2.363,0.199,4.091
							c0.123,3.457,0.158,8.235,0.126,13.508c-0.031,5.275-0.056,10.046-0.028,13.5c0.013,1.653,0.023,3.028,0.031,4.091
							c0.005,0.966-0.009,1.502-0.046,1.503c-0.036,0.001-0.091-0.531-0.159-1.496c-0.071-0.965-0.138-2.363-0.199-4.091
							c-0.123-3.457-0.157-8.236-0.126-13.51c0.031-5.273,0.056-10.044,0.028-13.498c-0.013-1.653-0.023-3.028-0.031-4.091
							C293.769,143.704,293.784,143.168,293.82,143.167z"/>
					</g>
				</g>
				<g>
					<g>
						<path style="fill:#263238;" d="M269.169,118.703c0.036,0.004,0.011,0.492-0.066,1.37c-0.078,0.878-0.208,2.146-0.386,3.712
							c-0.359,3.13-0.9,7.45-1.643,12.203c-0.268,1.713-0.546,3.366-0.825,4.888l-0.134,0.731l-0.338-0.659
							c-0.82-1.597-1.675-3.036-2.494-4.291c-0.409-0.628-0.81-1.209-1.192-1.743c-0.38-0.536-0.738-1.015-1.149-1.346
							c-0.405-0.33-0.862-0.511-1.256-0.466c-0.4,0.041-0.721,0.229-0.918,0.427c-0.404,0.425-0.266,0.811-0.317,0.802
							c0,0.033-0.229-0.379,0.19-0.915c0.205-0.245,0.549-0.483,1.014-0.558c0.475-0.08,1.021,0.114,1.481,0.461
							c0.469,0.348,0.863,0.846,1.26,1.371c0.4,0.527,0.82,1.104,1.246,1.729c0.853,1.25,1.739,2.691,2.583,4.299l-0.472,0.072
							c0.251-1.528,0.521-3.175,0.801-4.881c0.742-4.744,1.34-9.053,1.794-12.169c0.221-1.479,0.406-2.716,0.552-3.689
							C269.039,119.178,269.133,118.699,269.169,118.703z"/>
					</g>
				</g>
				<g style="opacity:0.3;">
					<g>
						<path d="M265.837,140.515c-0.354,1.48-0.707,2.961-1.061,4.441c-1.055-2.951-2.109-5.902-3.164-8.853
							c-0.208-0.582-0.421-1.174-0.795-1.666c-0.374-0.492-1.557-1.021-2.175-1.022c0,0,1.596-1.235,2.877,0.144
							C262.798,134.936,265.837,140.515,265.837,140.515z"/>
					</g>
				</g>
				<g style="opacity:0.3;">
					<g>
						<path d="M294.282,179.465c2.753-9.877,2.182-22.235-0.462-32.142L294.282,179.465z"/>
					</g>
				</g>
				<g>
					<g>
						<path style="fill:#263238;" d="M293.867,156.619c-0.017,0.076-0.93-0.072-2.405-0.278c-1.475-0.207-3.516-0.45-5.782-0.578
							c-2.266-0.125-4.322-0.11-5.811-0.068c-1.489,0.041-2.413,0.087-2.421,0.009c-0.008-0.067,0.905-0.244,2.4-0.381
							c1.494-0.138,3.572-0.212,5.862-0.086c2.289,0.129,4.346,0.434,5.815,0.737C292.995,156.276,293.882,156.554,293.867,156.619z
							"/>
					</g>
				</g>
				<g>
					<g>
						<path style="fill:#263238;" d="M294.833,228.771c-0.018,0.032-0.372-0.133-0.997-0.457c-0.626-0.322-1.516-0.819-2.601-1.457
							c-2.171-1.275-5.103-3.159-8.192-5.447c-3.089-2.292-5.743-4.55-7.595-6.256c-0.926-0.852-1.66-1.559-2.151-2.065
							c-0.492-0.504-0.752-0.794-0.727-0.821c0.025-0.026,0.333,0.214,0.867,0.671c0.62,0.532,1.373,1.178,2.257,1.936
							c1.909,1.63,4.588,3.831,7.662,6.112c3.075,2.277,5.96,4.2,8.074,5.553c0.982,0.625,1.819,1.158,2.509,1.597
							C294.532,228.515,294.851,228.739,294.833,228.771z"/>
					</g>
				</g>
			</g>
		</g>
		<path style="opacity:0.3;" d="M207.972,210.309l-1.312,9.898c0,0,46.637,10.177,51.409,9.874c4.772-0.304,7.811-4.984,7.811-4.984
			l0.761-5.317c0,0,28.031,1.578,29.214-1.721l-43.94-6.424l-12.871,2.328L207.972,210.309z"/>
		<g>
			<g>
				<g>
					<g>
						<g>
							<g>
								<g>
									<path style="fill:#FF725E;" d="M263.424,124.469c9.036-25.535,37.061-38.91,62.596-29.874
										c25.535,9.036,38.91,37.061,29.875,62.597c-6.542,18.487-23.04,30.593-41.338,32.442
										c-1.939,5.479-4.128,11.664-4.128,11.664l-40.524-14.34c0,0,2.072-6.633,4.049-12.509
										C261.783,161.5,257.087,142.377,263.424,124.469z"/>
								</g>
							</g>
						</g>
					</g>
				</g>
				<g>
					<path style="fill:#FFFFFF;" d="M275.977,189.094c0,0,0.1-0.182,0.278-0.545c0.181-0.372,0.443-0.911,0.785-1.616
						c0.683-1.424,1.674-3.531,2.911-6.264c2.46-5.469,5.902-13.446,9.579-23.525c0.923-2.518,1.857-5.168,2.794-7.942
						c0.461-1.389,0.931-2.807,1.41-4.251c0.462-1.44,0.989-2.941,1.004-4.562c0.008-0.805-0.153-1.632-0.525-2.374
						c-0.369-0.733-0.992-1.41-1.834-1.664c-0.845-0.263-1.761-0.01-2.47,0.458c-0.71,0.482-1.291,1.16-1.642,1.956
						c-0.723,1.616-0.403,3.528,0.452,5.05c0.861,1.545,2.262,2.78,3.893,3.542c1.634,0.763,3.517,1.045,5.345,0.758
						c1.835-0.275,3.563-1.169,4.971-2.412c1.411-1.246,2.532-2.85,3.208-4.65c0.333-0.898,0.586-1.849,0.602-2.834
						c0.022-0.967-0.158-2.025-0.85-2.814c-0.34-0.387-0.81-0.665-1.309-0.791c-0.503-0.119-1.028-0.115-1.523,0.001
						c-0.999,0.212-1.881,0.826-2.532,1.587c-0.663,0.762-1.146,1.651-1.553,2.561c-0.402,0.913-0.748,1.848-1.058,2.801
						c-0.612,1.906-1.03,3.909-1.053,5.955c-0.024,2.031,0.362,4.147,1.452,5.939c0.533,0.894,1.203,1.709,2.012,2.366
						c0.811,0.65,1.758,1.14,2.774,1.371c1.019,0.227,2.084,0.155,3.074-0.116c0.995-0.275,1.905-0.779,2.714-1.383
						c1.622-1.22,2.899-2.788,4.015-4.408c0.561-0.811,1.081-1.644,1.577-2.484c0.494-0.837,0.997-1.681,1.346-2.605
						c0.348-0.912,0.527-1.949,0.266-2.926c-0.124-0.483-0.342-0.953-0.686-1.334c-0.342-0.384-0.833-0.637-1.345-0.691
						c-0.515-0.064-1.027,0.074-1.463,0.301c-0.44,0.226-0.826,0.529-1.172,0.862c-0.695,0.665-1.229,1.47-1.688,2.279
						c-1.843,3.234-2.839,6.982-2.265,10.555c0.294,1.776,1.035,3.453,2.131,4.825c1.091,1.369,2.589,2.426,4.271,2.818
						c1.686,0.419,3.459,0.04,4.898-0.767c1.453-0.798,2.645-2.03,3.316-3.497c0.342-0.729,0.554-1.51,0.602-2.308
						c0.03-0.789-0.093-1.621-0.584-2.283c-0.247-0.326-0.604-0.57-0.998-0.676c-0.398-0.107-0.824-0.058-1.189,0.092
						c-0.738,0.307-1.269,0.892-1.712,1.481c-0.909,1.199-1.349,2.601-1.906,3.877c-0.535,1.297-1.058,2.566-1.569,3.805
						c-4.074,9.921-7.223,18.009-9.298,23.636c-1.04,2.813-1.807,5.012-2.319,6.505c-0.246,0.743-0.435,1.312-0.565,1.705
						c-0.125,0.385-0.18,0.585-0.18,0.585s0.078-0.192,0.215-0.573c0.138-0.39,0.337-0.955,0.598-1.693
						c0.534-1.485,1.321-3.676,2.38-6.48c2.114-5.611,5.298-13.683,9.401-23.589c0.515-1.238,1.042-2.505,1.58-3.8
						c0.564-1.285,1.004-2.667,1.883-3.815c0.426-0.568,0.944-1.119,1.596-1.385c0.639-0.287,1.439-0.082,1.858,0.498
						c0.427,0.574,0.553,1.353,0.521,2.096c-0.047,0.748-0.251,1.504-0.58,2.198c-0.645,1.403-1.795,2.59-3.196,3.355
						c-1.389,0.775-3.083,1.13-4.68,0.73c-1.602-0.376-3.04-1.389-4.093-2.714c-1.058-1.327-1.776-2.956-2.058-4.678
						c-0.555-3.475,0.419-7.154,2.237-10.334c0.455-0.802,0.966-1.567,1.63-2.202c0.646-0.615,1.48-1.174,2.359-1.068
						c0.895,0.07,1.53,0.893,1.735,1.768c0.237,0.889,0.078,1.84-0.257,2.719c-0.333,0.883-0.827,1.714-1.322,2.549
						c-0.493,0.836-1.01,1.661-1.565,2.463c-1.104,1.602-2.365,3.144-3.936,4.324c-0.784,0.585-1.656,1.066-2.601,1.326
						c-0.94,0.257-1.945,0.324-2.901,0.111c-1.93-0.432-3.55-1.848-4.558-3.571c-1.049-1.725-1.425-3.766-1.402-5.755
						c0.022-1.998,0.431-3.97,1.035-5.851c0.638-1.859,1.293-3.776,2.539-5.239c0.62-0.724,1.427-1.279,2.343-1.477
						c0.9-0.217,1.902-0.012,2.498,0.68c0.604,0.682,0.786,1.655,0.763,2.574c-0.014,0.933-0.255,1.848-0.578,2.721
						c-0.654,1.745-1.742,3.307-3.111,4.516c-1.366,1.208-3.033,2.07-4.799,2.337c-1.761,0.278-3.579,0.008-5.156-0.725
						c-1.574-0.733-2.926-1.924-3.752-3.402c-0.823-1.456-1.116-3.273-0.447-4.767c0.325-0.742,0.872-1.381,1.527-1.827
						c0.658-0.434,1.476-0.654,2.213-0.425c0.739,0.22,1.309,0.824,1.655,1.508c0.348,0.693,0.504,1.469,0.497,2.238
						c-0.009,1.552-0.519,3.033-0.98,4.475c-0.475,1.444-0.942,2.861-1.399,4.251c-0.93,2.774-1.855,5.424-2.77,7.943
						c-3.644,10.083-7.049,18.07-9.47,23.554c-1.217,2.74-2.187,4.856-2.849,6.289c-0.328,0.711-0.58,1.255-0.753,1.63
						C276.055,188.902,275.977,189.094,275.977,189.094z"/>
				</g>
				<g id="_x32_gGvdE.tif_2_">
					<path style="fill:#263238;" d="M287.434,232.969c0,0-2.264,0.543-3.859,1.564c-0.828,0.53-1.865,0.62-2.791,0.292l-9.049-3.21
						c-1.014-0.36-1.793-1.194-2.06-2.236c-0.313-1.222-1.089-2.809-2.24-3.504L287.434,232.969z"/>
				</g>
				<path style="fill:#E0E0E0;" d="M306.169,211.246c-0.064,0.182-7.177,13.572-9.898,18.691c-1.117,2.102-3.186,3.589-5.558,3.794
					c-0.865,0.075-1.806-0.004-2.775-0.348c-3.879-1.376-19.793-7.021-19.793-7.021s-5.172-1.835-4.889-6.354
					c0.298-4.757,3.986-22.57,3.986-22.57L306.169,211.246z"/>
				<g>
					<path style="fill:#E0E0E0;" d="M262.667,217.666l34.437,12.353c0.541,0.194,1.137-0.087,1.331-0.628l0.038-0.107
						c0.194-0.541-0.087-1.137-0.628-1.331L263.408,215.6c-0.541-0.194-1.137,0.087-1.331,0.628l-0.038,0.107
						C261.845,216.876,262.126,217.472,262.667,217.666z"/>
					<g>
						<path style="fill:#263238;" d="M262.667,217.666c0.025-0.023-0.316-0.073-0.555-0.546c-0.11-0.234-0.137-0.571,0.033-0.917
							c0.134-0.339,0.54-0.651,1.021-0.588c1.881,0.64,4.641,1.692,8.035,2.914c6.823,2.462,16.212,5.849,26.582,9.59
							c0.272,0.096,0.483,0.332,0.549,0.611c0.032,0.138,0.033,0.284-0.004,0.421c-0.043,0.145-0.099,0.298-0.18,0.404
							c-0.168,0.228-0.453,0.362-0.734,0.347c-0.256-0.018-0.603-0.19-0.912-0.287c-1.265-0.453-2.512-0.899-3.737-1.338
							c-2.45-0.875-4.814-1.719-7.066-2.524c-4.501-1.599-8.556-3.04-11.971-4.254c-3.394-1.193-6.149-2.16-8.081-2.839
							c-0.939-0.321-1.676-0.574-2.203-0.755c-0.238-0.078-0.427-0.139-0.576-0.188C262.737,217.678,262.669,217.66,262.667,217.666
							c-0.002,0.006,0.062,0.035,0.188,0.087c0.145,0.057,0.331,0.13,0.564,0.221c0.522,0.196,1.252,0.469,2.181,0.818
							c1.923,0.704,4.665,1.708,8.043,2.945c3.408,1.234,7.454,2.699,11.946,4.325c2.25,0.811,4.612,1.661,7.059,2.543
							c1.224,0.44,2.47,0.888,3.735,1.343l0.475,0.171c0.147,0.053,0.338,0.13,0.539,0.137c0.397,0.021,0.797-0.167,1.035-0.489
							c0.124-0.169,0.185-0.343,0.239-0.524c0.052-0.193,0.052-0.4,0.007-0.595c-0.092-0.392-0.392-0.728-0.774-0.862
							c-10.384-3.703-19.785-7.056-26.617-9.493c-3.42-1.195-6.147-2.2-8.104-2.815c-0.551-0.06-0.997,0.307-1.134,0.685
							c-0.169,0.366-0.13,0.748,0,0.988C262.327,217.645,262.686,217.664,262.667,217.666z"/>
					</g>
				</g>
				<g>
					<path style="fill:#E0E0E0;" d="M263.516,212.953l35.896,12.876c0.541,0.194,1.137-0.087,1.331-0.628l0.038-0.107
						c0.194-0.541-0.087-1.137-0.628-1.331l-35.896-12.876c-0.541-0.194-1.137,0.087-1.331,0.628l-0.038,0.107
						C262.694,212.163,262.975,212.759,263.516,212.953z"/>
					<g>
						<path style="fill:#263238;" d="M263.516,212.953c0.027-0.023-0.333-0.075-0.567-0.574c-0.111-0.247-0.113-0.596,0.072-0.949
							c0.162-0.342,0.617-0.631,1.106-0.509c1.995,0.728,4.842,1.767,8.351,3.048c7.087,2.556,16.84,6.075,27.614,9.96
							c0.282,0.1,0.501,0.351,0.556,0.644c0.031,0.145,0.02,0.296-0.026,0.436c-0.054,0.173-0.107,0.292-0.207,0.407
							c-0.191,0.224-0.502,0.336-0.79,0.285c-0.279-0.068-0.646-0.223-0.963-0.329c-1.314-0.471-2.609-0.934-3.882-1.39
							c-2.545-0.909-5-1.786-7.34-2.622c-4.676-1.662-8.889-3.16-12.435-4.42c-3.527-1.24-6.389-2.246-8.394-2.951
							c-0.976-0.335-1.742-0.598-2.288-0.785c-0.248-0.081-0.445-0.146-0.598-0.196
							C263.589,212.966,263.519,212.947,263.516,212.953c-0.002,0.006,0.064,0.036,0.196,0.089c0.15,0.059,0.343,0.134,0.586,0.229
							c0.54,0.202,1.299,0.486,2.266,0.848c1.996,0.73,4.845,1.772,8.356,3.057c3.539,1.281,7.743,2.803,12.41,4.492
							c2.337,0.842,4.79,1.725,7.333,2.641c1.272,0.457,2.566,0.922,3.88,1.395c0.344,0.114,0.622,0.246,1.025,0.346
							c0.408,0.071,0.844-0.086,1.115-0.402c0.138-0.15,0.228-0.364,0.277-0.53c0.064-0.197,0.079-0.412,0.036-0.616
							c-0.077-0.411-0.388-0.768-0.784-0.908c-10.787-3.848-20.553-7.331-27.649-9.863c-3.546-1.251-6.4-2.266-8.404-2.946
							c-0.563-0.128-1.064,0.213-1.233,0.597c-0.185,0.375-0.174,0.771-0.042,1.025
							C263.159,212.931,263.538,212.951,263.516,212.953z"/>
					</g>
				</g>
				<g>
					<path style="fill:#E0E0E0;" d="M264.63,208.335l36.826,13.21c0.541,0.194,1.137-0.087,1.331-0.628l0.039-0.107
						c0.194-0.541-0.087-1.137-0.628-1.331l-36.826-13.21c-0.541-0.194-1.137,0.087-1.331,0.628l-0.039,0.107
						C263.808,207.545,264.089,208.141,264.63,208.335z"/>
					<g>
						<path style="fill:#263238;" d="M264.63,208.335c0.028-0.023-0.345-0.075-0.575-0.592c-0.111-0.255-0.098-0.613,0.099-0.969
							c0.179-0.344,0.665-0.616,1.156-0.452c2.042,0.746,4.959,1.812,8.554,3.126c7.255,2.616,17.241,6.218,28.271,10.196
							c0.288,0.102,0.511,0.363,0.56,0.664c0.027,0.149,0.011,0.302-0.039,0.447c-0.06,0.177-0.117,0.292-0.226,0.407
							c-0.207,0.221-0.534,0.313-0.824,0.242c-0.306-0.098-0.667-0.236-0.996-0.351c-1.345-0.482-2.671-0.956-3.974-1.423
							c-2.606-0.931-5.119-1.829-7.514-2.685c-4.787-1.702-9.1-3.236-12.731-4.526c-3.612-1.27-6.542-2.301-8.593-3.022
							c-1-0.344-1.785-0.613-2.342-0.805c-0.254-0.083-0.456-0.15-0.612-0.201C264.704,208.349,264.633,208.329,264.63,208.335
							c-0.002,0.006,0.066,0.036,0.2,0.091c0.153,0.06,0.351,0.137,0.6,0.234c0.552,0.207,1.33,0.497,2.32,0.868
							c2.042,0.747,4.959,1.814,8.555,3.129c3.623,1.311,7.928,2.869,12.705,4.598c2.393,0.862,4.904,1.766,7.507,2.704
							c1.302,0.468,2.628,0.944,3.972,1.428c0.345,0.121,0.654,0.243,1.033,0.363c0.411,0.101,0.87-0.03,1.162-0.341
							c0.148-0.144,0.251-0.365,0.304-0.532c0.07-0.197,0.093-0.419,0.055-0.628c-0.069-0.423-0.384-0.794-0.79-0.937
							c-11.044-3.94-21.043-7.507-28.306-10.099c-3.613-1.27-6.544-2.3-8.597-3.022c-0.565-0.176-1.103,0.147-1.29,0.533
							c-0.2,0.378-0.204,0.784-0.072,1.047C264.261,208.313,264.654,208.333,264.63,208.335z"/>
					</g>
				</g>
				<g>
					<path style="fill:#E0E0E0;" d="M265.463,203.616l38.319,13.745c0.541,0.194,1.137-0.087,1.331-0.628l0.038-0.107
						c0.194-0.541-0.087-1.137-0.628-1.331l-38.319-13.745c-0.541-0.194-1.137,0.087-1.331,0.628l-0.038,0.107
						C264.64,202.826,264.922,203.422,265.463,203.616z"/>
					<g>
						<path style="fill:#263238;" d="M265.463,203.616c0.031-0.024-0.362-0.077-0.586-0.621c-0.109-0.266-0.072-0.643,0.145-0.998
							c0.213-0.344,0.737-0.582,1.237-0.354c2.118,0.774,5.144,1.88,8.876,3.244c7.524,2.713,17.884,6.449,29.327,10.575
							c0.301,0.105,0.525,0.385,0.566,0.698c0.039,0.3-0.099,0.668-0.319,0.868c-0.234,0.21-0.579,0.275-0.874,0.165
							c-0.351-0.126-0.702-0.251-1.05-0.376c-1.396-0.5-2.771-0.992-4.122-1.476c-2.703-0.966-5.31-1.897-7.795-2.785
							c-4.966-1.766-9.44-3.357-13.206-4.697c-3.747-1.319-6.787-2.389-8.913-3.137c-1.038-0.357-1.852-0.637-2.429-0.836
							c-0.264-0.087-0.474-0.156-0.635-0.209C265.539,203.631,265.465,203.61,265.463,203.616c-0.002,0.006,0.068,0.037,0.208,0.094
							c0.158,0.061,0.363,0.141,0.623,0.242c0.572,0.213,1.378,0.515,2.407,0.899c2.117,0.774,5.144,1.88,8.875,3.243
							c3.758,1.36,8.223,2.975,13.18,4.768c2.483,0.894,5.087,1.832,7.788,2.805c1.351,0.485,2.726,0.979,4.121,1.481
							c0.349,0.125,0.699,0.251,1.05,0.377c0.408,0.153,0.901,0.063,1.229-0.233c0.162-0.144,0.29-0.346,0.352-0.541
							c0.074-0.183,0.116-0.423,0.083-0.639c-0.056-0.441-0.375-0.837-0.797-0.984c-11.457-4.088-21.829-7.789-29.362-10.477
							c-3.747-1.319-6.787-2.389-8.914-3.137c-0.555-0.241-1.153,0.039-1.373,0.427c-0.225,0.385-0.251,0.801-0.123,1.081
							c0.117,0.284,0.31,0.435,0.44,0.511C265.383,203.606,265.463,203.616,265.463,203.616z"/>
					</g>
				</g>
				<path style="fill:#FF725E;" d="M317.715,196.297c-0.13,0.366-4.017,8.734-6.014,13.029c-0.733,1.577-2.147,2.729-3.839,3.131
					l-2.482,0.59l-38.268-13.575l-1.534-1.994c-1.072-1.394-1.439-3.207-0.993-4.908l3.628-13.832L317.715,196.297z"/>
				<g style="opacity:0.3;">
					<path d="M295.854,229.475c-3.982-0.473-7.681-1.706-11.721-3.16c-3.262-1.173-6.497-2.219-10.018-3.551
						c-2.579-0.975-4.924-1.954-7.475-2.985c-1.291-0.522-2.61-1.364-2.78-1.721L295.854,229.475z"/>
				</g>
				<g style="opacity:0.3;">
					<path d="M298.804,225.491c-4.27-0.576-8.256-1.91-12.611-3.476c-3.517-1.264-7.002-2.399-10.799-3.828
						c-2.782-1.047-5.313-2.093-8.067-3.195c-1.394-0.558-2.824-1.44-3.015-1.804L298.804,225.491z"/>
				</g>
				<g style="opacity:0.3;">
					<path d="M300.371,221.072c-4.27-0.576-8.256-1.91-12.611-3.475c-3.517-1.264-7.002-2.399-10.799-3.828
						c-2.782-1.047-5.313-2.093-8.067-3.195c-1.394-0.558-2.824-1.44-3.015-1.804L300.371,221.072z"/>
				</g>
				<g style="opacity:0.3;">
					<path d="M301.939,216.652c-4.27-0.576-8.256-1.91-12.611-3.475c-3.517-1.264-7.002-2.399-10.799-3.828
						c-2.782-1.047-5.314-2.093-8.067-3.195c-1.394-0.558-2.824-1.44-3.015-1.804L301.939,216.652z"/>
				</g>
				<g>
					<path style="fill:#263238;" d="M310.433,186.481c0,0.012,0.208,0.016,0.604,0.012c0.395-0.013,0.981,0.003,1.731-0.055
						c1.502-0.074,3.675-0.301,6.314-0.838c2.639-0.532,5.735-1.435,9.008-2.849c3.272-1.409,6.7-3.369,9.953-5.891
						c3.235-2.547,5.968-5.398,8.128-8.232c2.165-2.833,3.791-5.618,4.946-8.05c1.16-2.431,1.906-4.484,2.342-5.923
						c0.238-0.713,0.364-1.286,0.473-1.666c0.1-0.383,0.147-0.585,0.135-0.589c-0.012-0.003-0.082,0.193-0.203,0.569
						c-0.13,0.373-0.277,0.938-0.535,1.643c-0.475,1.422-1.254,3.452-2.436,5.856c-1.178,2.404-2.816,5.158-4.98,7.961
						c-2.159,2.803-4.878,5.625-8.087,8.152c-3.228,2.501-6.623,4.455-9.865,5.87c-3.243,1.421-6.311,2.343-8.929,2.904
						c-2.619,0.565-4.777,0.829-6.272,0.945c-0.746,0.08-1.329,0.086-1.723,0.122C310.64,186.449,310.432,186.469,310.433,186.481z"
						/>
				</g>
				<g>
					<path style="fill:#263238;" d="M355.223,142.891c-0.098-0.01-0.288,1.113-0.425,2.508c-0.137,1.395-0.17,2.533-0.072,2.543
						c0.097,0.01,0.288-1.113,0.425-2.508C355.288,144.039,355.321,142.9,355.223,142.891z"/>
				</g>
				<g>
					<path style="fill:#FFFFFF;" d="M264.737,137.021c0.012,0.001,0.046-0.176,0.098-0.513c0.053-0.371,0.124-0.862,0.212-1.477
						c0.044-0.324,0.092-0.68,0.145-1.067c0.065-0.388,0.165-0.805,0.256-1.255c0.2-0.897,0.362-1.932,0.713-3.036
						c0.158-0.557,0.324-1.139,0.496-1.745c0.177-0.605,0.428-1.213,0.651-1.855c0.422-1.293,1.044-2.607,1.658-4.005
						c1.336-2.745,3.037-5.654,5.162-8.469c2.161-2.789,4.522-5.194,6.822-7.203c1.188-0.959,2.293-1.904,3.431-2.65
						c0.561-0.383,1.082-0.785,1.619-1.114c0.54-0.325,1.058-0.637,1.554-0.936c0.973-0.628,1.93-1.056,2.743-1.484
						c0.411-0.205,0.786-0.412,1.144-0.576c0.359-0.152,0.69-0.292,0.992-0.419c0.57-0.246,1.025-0.443,1.369-0.591
						c0.312-0.139,0.474-0.218,0.47-0.229c-0.004-0.011-0.174,0.045-0.495,0.162c-0.351,0.133-0.816,0.31-1.397,0.531
						c-0.306,0.119-0.642,0.25-1.008,0.392c-0.363,0.156-0.745,0.354-1.161,0.551c-0.825,0.413-1.795,0.828-2.782,1.445
						c-0.503,0.294-1.028,0.602-1.575,0.922c-0.545,0.325-1.073,0.724-1.641,1.104c-1.152,0.741-2.272,1.683-3.474,2.643
						c-2.328,2.01-4.715,4.426-6.892,7.236c-2.141,2.837-3.847,5.772-5.176,8.545c-0.611,1.412-1.226,2.739-1.64,4.045
						c-0.218,0.648-0.465,1.262-0.636,1.873c-0.165,0.612-0.324,1.2-0.477,1.762c-0.337,1.114-0.484,2.159-0.666,3.064
						c-0.081,0.454-0.173,0.874-0.228,1.265c-0.042,0.39-0.079,0.749-0.114,1.075c-0.061,0.619-0.109,1.114-0.146,1.488
						C264.735,136.841,264.725,137.02,264.737,137.021z"/>
				</g>
				<g style="opacity:0.2;">
					<path style="fill:#FFFFFF;" d="M323.21,108.256c1.491-1.661,4.14-2.313,6.961-2.173c4.034,0.2,7.774,2.127,10.51,5.099
						c8.05,8.743,11.439,17.044,10.939,29.469c-0.169,4.208-1.806,10.679-4.982,13.738c-1.597,1.538-3.721,2.47-5.934,2.342
						c-5.756-0.334-8.104-6.875-8.006-12.293c0.092-5.049,1.355-10.342-0.608-14.995c-1.617-3.834-5.132-6.476-7.676-9.769
						C321.871,116.381,320.431,111.352,323.21,108.256z"/>
				</g>
				<g style="opacity:0.2;">
					<path style="fill:#FFFFFF;" d="M305.311,99.888c2.749-2.355,7.465-2.064,9.561-0.054c1.69,1.718,2.591,4.22,2.249,6.606
						c-0.413,2.875-2.717,5.407-5.56,6.001c-2.843,0.594-6.015-0.85-7.357-3.426C302.862,106.44,303.105,101.777,305.311,99.888z"/>
				</g>
				<path style="opacity:0.3;" d="M317.715,196.297c-0.13,0.366-4.017,8.734-6.014,13.029c-0.733,1.577-2.147,2.729-3.839,3.131
					l-2.482,0.59l-38.268-13.575l-1.534-1.994c-1.072-1.394-1.439-3.207-0.993-4.908l3.628-13.832L317.715,196.297z"/>
				<g>
					<path style="fill:#263238;" d="M267.923,178.633c-0.033,0.092,11.038,4.104,24.723,8.958
						c13.69,4.856,24.811,8.717,24.844,8.625c0.033-0.092-11.035-4.103-24.726-8.959
						C279.079,182.403,267.956,178.541,267.923,178.633z"/>
				</g>
				<g>
					<path style="fill:#263238;" d="M264.868,194.744c-0.033,0.092,10.177,3.798,22.801,8.277
						c12.628,4.48,22.889,8.035,22.922,7.943c0.033-0.092-10.175-3.797-22.803-8.277
						C275.163,198.208,264.901,194.652,264.868,194.744z"/>
				</g>
			</g>
			<g>
				<path style="fill:#263238;" d="M299.043,82.981c-0.142,0.025-1.684-7.958-3.446-17.829c-1.762-9.874-3.075-17.897-2.933-17.922
					c0.142-0.025,1.684,7.956,3.446,17.831C297.872,74.932,299.185,82.956,299.043,82.981z"/>
			</g>
			<g>
				<path style="fill:#263238;" d="M354.974,33.651c0.134,0.054-4.656,12.273-10.696,27.29
					c-6.042,15.022-11.047,27.152-11.181,27.098c-0.133-0.054,4.655-12.271,10.698-27.292
					C349.835,45.73,354.841,33.597,354.974,33.651z"/>
			</g>
			<g>
				<path style="fill:#263238;" d="M388.735,79.631c0.077,0.121-7.435,5.013-16.775,10.924
					c-9.344,5.913-16.979,10.606-17.055,10.485c-0.077-0.122,7.433-5.012,16.777-10.925
					C381.022,84.203,388.658,79.509,388.735,79.631z"/>
			</g>
			<g>
				<path style="fill:#263238;" d="M394.639,128.053c-0.015,0.143-6.624-0.427-14.76-1.274c-8.139-0.847-14.722-1.649-14.707-1.792
					c0.015-0.143,6.622,0.427,14.761,1.274C388.068,127.108,394.654,127.91,394.639,128.053z"/>
			</g>
			<g>
				<path style="fill:#263238;" d="M319.887,79.333c-0.143-0.015,0.369-6.15,1.143-13.701c0.775-7.554,1.518-13.664,1.661-13.649
					c0.143,0.015-0.369,6.148-1.143,13.702C320.773,73.236,320.03,79.348,319.887,79.333z"/>
			</g>
			<g>
				<path style="fill:#263238;" d="M365.73,67.567c0.03,0.02-0.16,0.366-0.528,0.976c-0.367,0.612-0.924,1.479-1.635,2.538
					c-1.419,2.117-3.481,4.977-5.928,8.003c-2.451,3.025-4.819,5.637-6.594,7.466c-0.887,0.915-1.62,1.641-2.142,2.127
					c-0.52,0.488-0.819,0.745-0.845,0.72c-0.026-0.025,0.225-0.331,0.7-0.861c0.552-0.612,1.225-1.359,2.018-2.237
					c1.702-1.889,4.017-4.529,6.459-7.542c2.438-3.014,4.538-5.828,6.031-7.886c0.694-0.958,1.284-1.772,1.768-2.439
					C365.453,67.856,365.7,67.548,365.73,67.567z"/>
			</g>
			<g>
				<path style="fill:#263238;" d="M379.514,106.437c0.038,0.139-3.498,1.243-7.898,2.467c-4.402,1.224-8,2.105-8.039,1.966
					c-0.039-0.138,3.497-1.243,7.899-2.468C375.876,107.179,379.475,106.299,379.514,106.437z"/>
			</g>
		</g>
		<g>
			<g>
				<g>
					<path style="fill:#FFBE9D;" d="M269.941,201.793c0,0,1.442-2.215,4.434-3.908c2.992-1.693,8.921-2.272,10.074-4.242
						c1.153-1.969,2.936,0.102,1.906,2.638c-0.656,1.616-5.005,5.315-5.005,5.315s3.853,1.841,6.87,0.832
						c3.018-1.009,13.047-1.888,13.789-0.362c0.841,1.728-1.737,1.725-2.923,2.112c-0.902,0.295-7.822,2.139-7.822,2.139
						s12.601,2.11,14.056,3.025c1.583,0.995-0.479,2.153-1.274,2.025c-0.501-0.081,0.864,1.582-0.942,2.689
						c-1.227,0.752-6.583,0.836-7.997,0.571l-2.918-0.547l8.647,2.719c0,0,1.244,1.706-1.029,2.004
						c-1.014,0.133-28.577-1.44-30.678-1.74c-3.633-0.519-8.779-1.442-8.779-1.442l2.946-14.916L269.941,201.793z"/>
				</g>
			</g>
			<g>
				<path style="fill:#EB996E;" d="M291.264,206.317c0.005-0.035,0.482-0.004,1.339,0.093c0.857,0.097,2.095,0.26,3.619,0.497
					c1.524,0.24,3.336,0.543,5.333,0.99c0.998,0.233,2.043,0.472,3.109,0.892c0.266,0.122,0.533,0.22,0.803,0.449
					c0.066,0.055,0.14,0.153,0.192,0.228l0.101,0.21c0.075,0.134,0.113,0.299,0.161,0.455c0.073,0.324,0.025,0.748-0.23,1.038
					c-0.25,0.281-0.574,0.416-0.883,0.504c-0.652,0.16-1.213,0.106-1.789,0.156c-0.574,0.016-1.14,0.032-1.696,0.047
					c-1.112,0.015-2.186,0.007-3.207-0.026c-2.043-0.069-3.879-0.216-5.413-0.397c-1.534-0.18-2.769-0.376-3.617-0.539
					c-0.848-0.161-1.312-0.278-1.306-0.312c0.006-0.037,0.481,0.012,1.336,0.111c0.855,0.101,2.092,0.241,3.623,0.373
					c1.531,0.133,3.358,0.241,5.388,0.283c1.015,0.019,2.081,0.018,3.185-0.004c0.553-0.018,1.114-0.036,1.684-0.055
					c0.562-0.046,1.181-0.011,1.674-0.141c0.252-0.069,0.486-0.182,0.624-0.34c0.133-0.158,0.162-0.361,0.118-0.593
					c-0.04-0.116-0.06-0.233-0.125-0.349l-0.082-0.174c-0.033-0.036-0.042-0.056-0.082-0.092c-0.16-0.143-0.422-0.256-0.657-0.363
					c-0.996-0.401-2.041-0.654-3.022-0.896c-1.973-0.468-3.775-0.808-5.287-1.094c-1.436-0.264-2.639-0.485-3.587-0.66
					C291.726,206.452,291.259,206.353,291.264,206.317z"/>
			</g>
		</g>
		<g>
			<g>
				<g>
					<g>
						<path style="fill:#FFBE9D;" d="M349.006,169.869l2.767-6.289c0,0-5.684-7.203-5.692-10.036l-0.115-1.634
							c0,0-3.354-3.296-1.935-5.603c-0.432-1.835-0.1-2.938,1.47-2.854c0,0-2.573-2.444-0.185-4.694
							c2.388-2.25,11.631,9.26,11.631,9.26s4.254,5.175,2.101,6.609c0,0,1.395,3.496-2.134,4.625c0,0,1.318,2.469-1.087,5.306
							l-1.02,1.248c-1.155,1.415-2.611,2.553-4.262,3.334L349.006,169.869z"/>
					</g>
				</g>
				<g>
					<g>
						<g>
							<path style="fill:#EB996E;" d="M355.522,158.135c0.008-0.026,0.225-0.021,0.56,0.147c0.333,0.164,0.761,0.537,1.037,1.146
								c0.284,0.596,0.388,1.451,0.142,2.329c-0.229,0.883-0.745,1.761-1.361,2.588c-1.232,1.662-2.621,2.953-3.694,3.78
								c-1.076,0.83-1.82,1.223-1.852,1.173c-0.099-0.12,2.737-1.967,5.142-5.227c0.598-0.802,1.086-1.616,1.315-2.407
								c0.245-0.792,0.188-1.526-0.025-2.087C356.355,158.42,355.465,158.208,355.522,158.135z"/>
						</g>
					</g>
				</g>
				<g>
					<g>
						<g>
							<path style="fill:#EB996E;" d="M354.869,152.192c-0.129,0.092-1.841-2.325-4.469-4.82c-2.614-2.513-5.106-4.112-5.02-4.245
								c0.035-0.056,0.704,0.273,1.71,0.933c1.005,0.659,2.335,1.669,3.666,2.939c1.329,1.271,2.398,2.553,3.103,3.528
								C354.564,151.501,354.923,152.155,354.869,152.192z"/>
						</g>
					</g>
				</g>
				<g>
					<g>
						<g>
							<path style="fill:#EB996E;" d="M353.512,155.13c-0.118,0.097-2.012-2.105-4.629-4.531c-2.609-2.437-4.941-4.167-4.853-4.292
								c0.071-0.111,2.563,1.448,5.204,3.914C351.883,152.677,353.618,155.051,353.512,155.13z"/>
						</g>
					</g>
				</g>
				<g>
					<g>
						<g>
							<path style="fill:#EB996E;" d="M356.782,152.648c0-0.14,1.03-0.064,1.832,0.819c0.812,0.875,0.799,1.908,0.66,1.896
								c-0.147,0.022-0.349-0.814-1.04-1.548C357.563,153.065,356.747,152.793,356.782,152.648z"/>
						</g>
					</g>
				</g>
				<g>
					<g>
						<g>
							<path style="fill:#EB996E;" d="M350.649,157.815c-0.124,0.078-1.078-1.232-2.325-2.783c-1.242-1.556-2.312-2.773-2.208-2.877
								c0.096-0.099,1.347,0.973,2.61,2.554C349.994,156.287,350.766,157.743,350.649,157.815z"/>
						</g>
					</g>
				</g>
			</g>
		</g>
		<g>
			<path style="fill:#455A64;" d="M236.708,193.137c2.368-25.635,6.628-62.654,6.628-62.654s-3.297-8.877-5.078-12.775l-2.374-5.7
				l0,0l-5.221,6.651l-19.552,6.794c-2.486,1.103-5.834,4.215-7.362,6.285c-3.519,4.77-5.543,9.033-6.598,16.865
				c-2.917,21.645-7.48,51.699-3.315,58.659c1.109,1.853,6.24,4.763,13.606,7.434l-7.571,53.291
				c10.111,7.771,17.71,6.915,32.428,2.2c0,0,2.125-31.674,2.715-48.494c13.337,2.856,24.569,5.051,24.569,5.051l4.264-25.667
				L236.708,193.137z"/>
			<g>
				<path style="fill:#263238;" d="M220.382,188.023c0.04,0.163-2.623,0.455-5.232,2.285c-2.639,1.789-3.859,4.173-3.997,4.078
					c-0.054-0.026,0.169-0.654,0.76-1.549c0.587-0.893,1.588-2.022,2.941-2.958c1.356-0.931,2.766-1.466,3.81-1.697
					C219.71,187.948,220.376,187.963,220.382,188.023z"/>
			</g>
			<g>
				<path style="fill:#263238;" d="M215.767,151.334c-0.074,0.005-0.199-1.042-0.384-2.733c-0.184-1.691-0.435-4.025-0.759-6.597
					c-0.503-4.048-1.048-7.477-1.179-8.738l0.173-0.028c0.028,0.387,0.026,0.582-0.004,0.586c-0.03,0.004-0.087-0.182-0.169-0.562
					l0.173-0.028c0.329,1.225,1.018,4.643,1.523,8.705c0.325,2.581,0.519,4.93,0.609,6.632
					C215.841,150.274,215.837,151.33,215.767,151.334z"/>
			</g>
			<g>
				<path style="fill:#263238;" d="M220.474,162.262c0.009,0,0.014,0.153,0.015,0.452c-0.002,0.323-0.005,0.763-0.009,1.327
					c-0.021,1.194-0.05,2.908-0.088,5.106c-0.101,4.464-0.247,10.884-0.427,18.827l-0.136-0.186
					c11.643,3.388,26.98,7.85,44.023,12.809l0.22,0.064l-0.037,0.227c-0.523,3.15-1.074,6.475-1.634,9.849
					c-0.902,5.418-1.783,10.711-2.632,15.817l-0.042,0.251l-0.251-0.041c-18.447-3.009-34.51-6.419-45.725-9.843
					c-5.61-1.696-9.988-3.431-12.875-4.876c-0.713-0.37-1.348-0.698-1.902-0.985c-0.514-0.334-0.951-0.618-1.313-0.853
					c-0.335-0.224-0.599-0.4-0.797-0.532c-0.177-0.122-0.266-0.187-0.261-0.193c0.005-0.006,0.102,0.046,0.288,0.155
					c0.204,0.123,0.475,0.286,0.82,0.493c0.366,0.224,0.809,0.494,1.329,0.811c0.558,0.275,1.197,0.59,1.915,0.943
					c2.899,1.389,7.28,3.069,12.891,4.719c11.218,3.331,27.274,6.673,45.712,9.657l-0.293,0.21c0.847-5.107,1.724-10.4,2.622-15.818
					c0.561-3.374,1.114-6.699,1.638-9.849l0.182,0.29c-17.028-5.01-32.351-9.519-43.984-12.942l-0.141-0.041l0.005-0.145
					c0.251-7.941,0.454-14.36,0.595-18.822c0.081-2.196,0.145-3.91,0.189-5.103c0.027-0.563,0.048-1.002,0.063-1.325
					C220.451,162.414,220.465,162.261,220.474,162.262z"/>
			</g>
			<path style="opacity:0.3;" d="M230.932,119.381c0.156,0.797,6.618,22.226,6.618,22.226s0.894-5.635,2.153-8.661
				c1.387-3.334,0.757-3.485,0.757-3.485s-2.237,0.799-3.062,4.202c-0.147,0.605-0.457,2.607-0.457,2.607L230.932,119.381z"/>
		</g>
		<g>
			<path style="fill:#263238;" d="M242.818,133.162c-0.036,0-0.04-0.359-0.084-1c-0.064-0.607-0.137-1.654-1.029-2.347
				c-0.425-0.338-1.057-0.49-1.61-0.174c-0.556,0.299-1.003,0.913-1.432,1.55c-0.844,1.291-1.463,2.952-1.555,4.772l-0.071,1.408
				l-0.43-1.345c-0.264-0.825-0.546-1.684-0.852-2.555c-1.451-4.118-2.974-7.783-3.91-10.501c-0.478-1.355-0.824-2.466-1.05-3.237
				c-0.217-0.774-0.319-1.207-0.285-1.218c0.035-0.011,0.202,0.402,0.477,1.154c0.322,0.849,0.725,1.911,1.203,3.173
				c1.02,2.677,2.596,6.314,4.056,10.457c0.308,0.876,0.589,1.742,0.85,2.574l-0.501,0.063c0.108-1.922,0.782-3.659,1.692-4.995
				c0.463-0.652,0.929-1.296,1.625-1.656c0.706-0.384,1.544-0.149,2.002,0.265c0.491,0.402,0.755,0.937,0.869,1.4
				c0.12,0.468,0.134,0.877,0.134,1.205C242.904,132.812,242.845,133.162,242.818,133.162z"/>
		</g>
	</g>
</g>
<g id="Speech_Bubble">
	<g>
		<g>
			<g>
				<g>
					<g>
						<g>
							<g>
								<g>
									<polygon style="fill:#FFFFFF;" points="162.147,69.248 177.129,53.736 180.852,78.274 200.923,77.594 188.363,94.088 
										201.002,110.673 180.072,106.547 177.047,127.605 160.127,114.787 138.791,125.96 143.461,104.404 119.253,100.593 
										138.081,89.481 127.105,70.55 145.921,77.908 148.209,54.557 									"/>
									<g>
										<path style="fill:#263238;" d="M162.147,69.248c0,0-0.311-0.306-0.919-0.935c-0.619-0.643-1.522-1.58-2.702-2.807
											c-2.391-2.497-5.897-6.159-10.404-10.866l0.208-0.071c-0.607,6.34-1.364,14.234-2.238,23.355l-0.022,0.225l-0.212-0.082
											c-5.645-2.198-12.001-4.673-18.826-7.33l0.247-0.288c3.398,5.847,7.099,12.215,10.996,18.92l0.111,0.192l-0.191,0.113
											c-5.989,3.541-12.287,7.263-18.82,11.126l-0.085-0.444c7.722,1.212,15.843,2.486,24.21,3.799l0.264,0.041l-0.056,0.261
											c-1.486,6.869-3.06,14.14-4.664,21.557l-0.372-0.284c5.909-3.095,12.152-6.364,18.483-9.68
											c0.953-0.499,1.904-0.997,2.853-1.494l0.146-0.077l0.132,0.1c5.734,4.345,11.382,8.624,16.918,12.819l-0.411,0.169
											c1.034-7.18,2.046-14.209,3.031-21.057l0.038-0.262l0.26,0.051c7.195,1.422,14.177,2.802,20.927,4.137l-0.238,0.382
											c-4.379-5.755-8.593-11.295-12.626-16.594l-0.104-0.137l0.104-0.136c4.442-5.82,8.632-11.312,12.577-16.481l0.169,0.327
											c-7.286,0.237-13.951,0.453-20.072,0.652l-0.157,0.005l-0.023-0.155c-1.445-9.663-2.675-17.884-3.671-24.546l0.211,0.067
											c-4.894,5.023-8.662,8.89-11.217,11.514c-1.263,1.289-2.223,2.27-2.88,2.94C162.475,68.931,162.147,69.248,162.147,69.248
											s0.328-0.362,0.971-1.039c0.651-0.684,1.605-1.685,2.858-3.001c2.521-2.633,6.238-6.516,11.065-11.558l0.173-0.181
											l0.038,0.248c1.024,6.658,2.289,14.874,3.775,24.53l-0.18-0.149c6.121-0.216,12.785-0.451,20.07-0.708l0.429-0.015
											l-0.26,0.342c-3.934,5.177-8.113,10.677-12.543,16.507v-0.273c4.04,5.294,8.263,10.827,12.65,16.576l0.385,0.504
											l-0.623-0.122c-6.751-1.327-13.735-2.7-20.931-4.115l0.297-0.211c-0.982,6.848-1.989,13.877-3.019,21.058l-0.062,0.433
											l-0.349-0.264c-5.537-4.194-11.187-8.472-16.921-12.815l0.278,0.023c-0.949,0.497-1.9,0.995-2.853,1.494
											c-6.332,3.315-12.575,6.583-18.485,9.676l-0.49,0.257l0.117-0.54c1.609-7.416,3.186-14.686,4.676-21.554l0.207,0.303
											c-8.365-1.321-16.485-2.603-24.206-3.823l-0.661-0.104l0.576-0.34c6.539-3.853,12.842-7.566,18.837-11.098l-0.08,0.305
											c-3.883-6.713-7.57-13.088-10.956-18.942l-0.288-0.498l0.535,0.21c6.818,2.677,13.166,5.17,18.805,7.385l-0.233,0.143
											c0.913-9.117,1.704-17.007,2.338-23.345l0.027-0.265l0.182,0.193c4.442,4.725,7.898,8.402,10.254,10.909
											c1.171,1.252,2.066,2.21,2.68,2.866C161.836,68.899,162.147,69.248,162.147,69.248z"/>
									</g>
								</g>
							</g>
						</g>
					</g>
				</g>
			</g>
			<g>
				<g>
					<path style="fill:#FFFFFF;" d="M202.327,95.143c0,2.47,2.003,4.473,4.473,4.473c2.47,0,4.473-2.003,4.473-4.473
						c0-2.47-2.003-4.473-4.473-4.473C204.33,90.67,202.327,92.673,202.327,95.143z"/>
				</g>
				<g>
					<g>
						<path style="fill:#263238;" d="M202.327,95.143c0.036,0.002,0.018-0.399,0.2-1.077c0.18-0.665,0.632-1.639,1.635-2.389
							c0.497-0.366,1.12-0.675,1.837-0.798c0.712-0.118,1.513-0.092,2.275,0.201c0.761,0.275,1.487,0.794,2.002,1.511
							c0.53,0.707,0.828,1.615,0.837,2.55c-0.009,0.936-0.307,1.844-0.837,2.551c-0.515,0.717-1.241,1.236-2.003,1.512
							c-0.761,0.293-1.563,0.319-2.275,0.201c-0.717-0.122-1.34-0.432-1.837-0.798c-1.003-0.749-1.455-1.723-1.635-2.388
							C202.346,95.542,202.363,95.141,202.327,95.143c-0.011,0-0.017,0.098-0.018,0.287c-0.005,0.188,0.019,0.469,0.097,0.82
							c0.148,0.693,0.582,1.726,1.618,2.538c0.513,0.397,1.166,0.737,1.925,0.879c0.753,0.137,1.607,0.12,2.424-0.184
							c0.817-0.287,1.598-0.837,2.155-1.603c0.572-0.756,0.896-1.732,0.904-2.737c-0.008-1.004-0.333-1.98-0.905-2.736
							c-0.557-0.766-1.338-1.316-2.154-1.603c-0.817-0.304-1.671-0.322-2.424-0.184c-0.759,0.142-1.412,0.482-1.925,0.879
							c-1.036,0.812-1.471,1.845-1.619,2.538c-0.078,0.351-0.102,0.632-0.097,0.82C202.31,95.045,202.316,95.143,202.327,95.143z"/>
					</g>
				</g>
			</g>
		</g>
		<g>
			<path style="fill:#FF725E;" d="M159.931,78.878l0.906,14.307c0.074,1.17,1.009,2.101,2.179,2.171l0,0
				c1.234,0.073,2.31-0.833,2.445-2.063l1.588-14.379c0.12-1.089-0.741-2.037-1.836-2.021l-3.49,0.049
				C160.682,76.956,159.865,77.838,159.931,78.878z"/>
			<path style="fill:#FF725E;" d="M166.808,103.403c-0.608,1.83-2.584,2.821-4.414,2.214c-1.83-0.608-2.822-2.584-2.214-4.414
				c0.608-1.83,2.584-2.821,4.414-2.214C166.425,99.596,167.416,101.573,166.808,103.403z"/>
		</g>
	</g>
</g>
</svg>
