<?xml version="1.0" encoding="utf-8"?>
<!-- Generator: Adobe Illustrator 27.5.0, SVG Export Plug-In . SVG Version: 6.00 Build 0)  -->
<svg version="1.1" xmlns="http://www.w3.org/2000/svg" xmlns:xlink="http://www.w3.org/1999/xlink" x="0px" y="0px"
	 viewBox="0 0 500 500" style="enable-background:new 0 0 500 500;" xml:space="preserve">
<g id="Background_Complete">
	<g>
		<g>
			<g>
				<circle style="fill:#F5F5F5;" cx="429.688" cy="106.986" r="51.543"/>
			</g>
			<g>
				<path style="fill:#E0E0E0;" d="M448.435,105.999c-1.577,3.408-0.762,7.139,1.819,8.334c2.582,1.194,5.953-0.6,7.529-4.008
					c1.577-3.408,0.762-7.139-1.819-8.333C453.383,100.797,450.012,102.591,448.435,105.999z"/>
			</g>
			<g>
				<path style="fill:#E0E0E0;" d="M409.555,88.011c-1.577,3.408-0.762,7.139,1.819,8.333c2.581,1.194,5.952-0.6,7.529-4.008
					c1.577-3.408,0.762-7.139-1.819-8.334C414.503,82.808,411.132,84.603,409.555,88.011z"/>
			</g>
		</g>
		<g>
			<g>
				<path style="fill:#E0E0E0;" d="M413.017,100.692c-4.383,9.474-0.711,20.497,8.203,24.621c8.914,4.124,19.693-0.213,24.077-9.686
					L413.017,100.692z"/>
			</g>
			<g>
				<path style="fill:#EBEBEB;" d="M413.987,118.908c0,0,5.066-2.589,10.279-0.177c5.213,2.412,6.539,7.958,6.539,7.958
					S420.577,128.253,413.987,118.908z"/>
			</g>
		</g>
	</g>
	<g>
		<g>
			<path style="fill:#F5F5F5;" d="M146.769,151.993H37.006c-4.035,0-7.306-3.271-7.306-7.306v-30.193
				c0-4.035,3.271-7.306,7.306-7.306h109.763c4.035,0,7.306,3.271,7.306,7.306v30.193
				C154.075,148.723,150.804,151.993,146.769,151.993z"/>
		</g>
		<g>
			<circle style="fill:#E0E0E0;" cx="50.913" cy="129.36" r="8.177"/>
		</g>
		<g>
			<rect x="64.774" y="125.559" style="fill:#E0E0E0;" width="64.685" height="3.802"/>
		</g>
		<g>
			<rect x="64.774" y="132.268" style="fill:#E0E0E0;" width="26.102" height="3.802"/>
		</g>
	</g>
	<g>
		<g>
			<path style="fill:#F5F5F5;" d="M452.144,288.903H342.381c-4.035,0-7.306-3.271-7.306-7.306v-30.193
				c0-4.035,3.271-7.306,7.306-7.306h109.763c4.035,0,7.306,3.271,7.306,7.306v30.193
				C459.45,285.632,456.179,288.903,452.144,288.903z"/>
		</g>
		<g>
			<circle style="fill:#E0E0E0;" cx="356.288" cy="266.27" r="8.177"/>
		</g>
		<g>
			<rect x="370.149" y="262.468" style="fill:#E0E0E0;" width="64.685" height="3.802"/>
		</g>
		<g>
			<rect x="370.149" y="269.177" style="fill:#E0E0E0;" width="26.102" height="3.802"/>
		</g>
	</g>
	<g>
		<path style="fill:#E0E0E0;" d="M39.217,268.59l6.183,3.185c0.695,0.358,1.523,0.351,2.212-0.019l6.129-3.288
			c1.736-0.931,3.786,0.532,3.469,2.476l-1.118,6.865c-0.126,0.772,0.137,1.557,0.701,2.098l5.021,4.813
			c1.422,1.363,0.664,3.765-1.283,4.065l-6.874,1.058c-0.773,0.119-1.438,0.611-1.778,1.315l-3.025,6.262
			c-0.857,1.774-3.376,1.795-4.262,0.036l-3.131-6.211c-0.352-0.699-1.025-1.179-1.8-1.285l-6.891-0.942
			c-1.952-0.267-2.75-2.656-1.351-4.043l4.939-4.896c0.556-0.551,0.805-1.34,0.666-2.109l-1.233-6.845
			C35.44,269.186,37.465,267.688,39.217,268.59z"/>
	</g>
	<g>
		<path style="fill:#E0E0E0;" d="M336.185,149.051l2.939,2.842c0.331,0.32,0.797,0.456,1.248,0.365l4.008-0.81
			c1.135-0.229,2.041,0.942,1.532,1.983l-1.795,3.674c-0.202,0.413-0.188,0.899,0.038,1.3l2.009,3.561
			c0.569,1.009-0.266,2.232-1.413,2.07l-4.049-0.572c-0.455-0.064-0.913,0.1-1.224,0.438l-2.766,3.011
			c-0.784,0.853-2.205,0.437-2.405-0.704l-0.707-4.027c-0.079-0.453-0.377-0.838-0.795-1.029l-3.718-1.701
			c-1.053-0.482-1.097-1.962-0.074-2.505l3.612-1.917c0.406-0.216,0.68-0.617,0.733-1.074l0.468-4.062
			C333.959,148.745,335.353,148.246,336.185,149.051z"/>
	</g>
	<g>
		<path style="fill:#E0E0E0;" d="M71.999,46.428l4.472,4.325c0.503,0.486,1.213,0.694,1.899,0.556l6.098-1.232
			c1.727-0.349,3.105,1.434,2.331,3.017l-2.731,5.59c-0.307,0.629-0.285,1.368,0.058,1.978l3.056,5.419
			c0.866,1.535-0.404,3.396-2.149,3.149l-6.16-0.87c-0.693-0.098-1.39,0.151-1.863,0.667l-4.209,4.581
			c-1.192,1.298-3.355,0.665-3.66-1.071l-1.076-6.128c-0.121-0.689-0.573-1.275-1.21-1.566l-5.658-2.588
			c-1.602-0.733-1.669-2.985-0.112-3.811l5.495-2.917c0.618-0.328,1.035-0.939,1.115-1.634l0.713-6.18
			C68.611,45.962,70.733,45.203,71.999,46.428z"/>
	</g>
</g>
<g id="Background_Simple" style="display:none;">
	<g style="display:inline;">
		<path style="fill:#F5F5F5;" d="M49.532,99.351l1.742-4.023c14.686-33.91,46.427-57.501,82.946-60.194
			c4.694-0.346,9.415-0.354,14.121-0.004c33.886,2.517,65.952,23.467,82.21,53.713c9.562,17.788,14.483,39.106,29.78,52.164
			c19.909,16.995,49.267,13.575,74.896,9.231c25.628-4.344,55.017-7.691,74.852,9.392c12.422,10.699,18.221,27.546,19.598,43.974
			c3.647,43.492-21.127,86.239-56.749,110.693c-35.622,24.454-80.435,32.372-123.472,29.692
			c-60.29-3.753-120.546-28.552-160.981-74.097C48.042,224.348,30.152,157.18,49.532,99.351z"/>
	</g>
	<g style="display:inline;">
		<circle style="fill:#F5F5F5;" cx="439.97" cy="115.817" r="22.013"/>
	</g>
	<g style="display:inline;">
		<circle style="fill:#F5F5F5;" cx="58.06" cy="331.136" r="22.013"/>
	</g>
</g>
<g id="Floor">
	<g>
		<g>
			<path style="fill:#263238;" d="M458.441,444.434c0,0.144-96.016,0.26-214.431,0.26c-118.456,0-214.451-0.117-214.451-0.26
				s95.995-0.26,214.451-0.26C362.425,444.174,458.441,444.291,458.441,444.434z"/>
		</g>
	</g>
</g>
<g id="Device">
	<g>
		<g>
			<g>
				<g>
					<g>
						<g>
							<g>
								<path style="fill:#263238;" d="M276.62,49.185l-141.98-0.081c-17.086-0.009-30.942,13.418-30.945,29.987l-0.07,345.189
									c-0.003,16.56,13.833,29.99,30.909,29.998l141.979,0.082c17.086,0.01,30.942-13.417,30.945-29.987l0.07-345.19
									C307.533,62.624,293.696,49.194,276.62,49.185z"/>
							</g>
						</g>
						<g>
							<g>
								<path style="fill:#FFFFFF;" d="M276.47,61.395l-27.527-0.016l-80.394-0.046l-9.681-0.006l-24.093-0.014
									c-11.965-0.006-21.67,9.499-21.672,21.229l-0.068,340.574c-0.002,11.724,9.688,21.231,21.647,21.238l141.696,0.081
									c11.965,0.007,21.669-9.498,21.672-21.228l0.068-340.575C298.119,70.908,288.429,61.402,276.47,61.395z"/>
							</g>
							<g>
								<g>
									<path style="fill:#263238;" d="M276.47,61.395c0,0,0.24,0.003,0.715,0.022c0.239,0.01,0.535,0.023,0.887,0.038
										c0.355,0.006,0.766,0.034,1.229,0.117c0.465,0.069,0.987,0.145,1.564,0.231c0.567,0.141,1.188,0.296,1.863,0.464
										c0.667,0.197,1.368,0.475,2.131,0.738c0.727,0.349,1.533,0.671,2.325,1.132c1.614,0.876,3.272,2.117,4.887,3.704
										c1.615,1.589,3.082,3.639,4.21,6.076c1.121,2.437,1.856,5.298,1.909,8.397c0.008,3.083,0.017,6.366,0.026,9.843
										c0.014,27.818,0.034,68.063,0.059,117.792c0.006,49.733,0.013,108.948,0.021,174.699c0,8.219,0,16.54,0,24.958
										c0,4.209,0,8.441,0,12.698c0.021,1.058-0.065,2.146-0.132,3.219c-0.167,1.067-0.3,2.142-0.619,3.18
										c-0.562,2.086-1.42,4.113-2.627,5.926c-2.333,3.683-5.854,6.585-9.892,8.318c-2.038,0.829-4.188,1.375-6.384,1.628
										c-2.215,0.162-4.394,0.102-6.591,0.112c-8.78-0.004-17.645-0.008-26.589-0.012c-35.776-0.019-72.817-0.038-110.755-0.058
										c-4.787-0.051-9.594-1.542-13.374-4.481c-1.899-1.442-3.563-3.184-4.909-5.146c-1.345-1.966-2.311-4.173-2.923-6.46
										c-0.341-1.137-0.485-2.321-0.629-3.492l-0.091-1.772l-0.007-1.753c0.001-2.335,0.001-4.665,0.002-6.992
										c0.001-4.653,0.002-9.29,0.003-13.91c0.005-18.48,0.01-36.689,0.015-54.581c0.012-35.784,0.024-70.301,0.036-103.182
										c0.015-32.881,0.029-64.126,0.043-93.368c0.008-14.621,0.016-28.741,0.023-42.313c0.004-6.786,0.008-13.436,0.012-19.943
										c0.004-1.627,0.008-3.246,0.012-4.855c0.049-1.622,0.209-3.236,0.609-4.792c0.762-3.119,2.236-6.013,4.218-8.44
										c3.974-4.883,9.998-7.693,15.941-7.941c5.929-0.101,11.678-0.017,17.282-0.034c11.201,0.014,21.762,0.027,31.639,0.039
										c19.752,0.029,36.766,0.053,50.672,0.073c13.902,0.029,24.698,0.052,32.023,0.067c3.657,0.013,6.447,0.024,8.328,0.031
										C275.509,61.376,276.47,61.395,276.47,61.395s-0.961,0.017-2.837,0.025c-1.881,0.005-4.671,0.012-8.328,0.021
										c-7.325,0.007-18.121,0.017-32.023,0.031c-13.907,0.004-30.92,0.009-50.673,0.015c-9.877,0-20.439,0.001-31.639,0.002
										c-5.596,0.024-11.37-0.053-17.265,0.053c-5.85,0.25-11.772,3.021-15.674,7.825c-1.945,2.388-3.39,5.233-4.136,8.296
										c-0.817,3.062-0.559,6.307-0.602,9.558c0.001,6.507,0.003,13.157,0.004,19.943c0.002,13.573,0.004,27.693,0.007,42.313
										c0.002,29.242,0.003,60.487,0.005,93.368c-0.002,32.881-0.004,67.398-0.005,103.182
										c-0.002,17.892-0.005,36.101-0.007,54.581c-0.001,4.62-0.001,9.257-0.002,13.91c0,2.327-0.001,4.657-0.001,6.992
										l0.007,1.75l0.089,1.729c0.141,1.143,0.28,2.297,0.614,3.406c0.596,2.23,1.538,4.383,2.851,6.301
										c1.314,1.914,2.939,3.615,4.792,5.023c3.691,2.871,8.382,4.324,13.06,4.376c37.938,0.023,74.979,0.046,110.755,0.069
										c8.944,0.006,17.809,0.012,26.589,0.018c2.193-0.009,4.396,0.049,6.541-0.108c2.147-0.247,4.248-0.78,6.24-1.589
										c3.947-1.693,7.389-4.528,9.668-8.125c1.18-1.771,2.017-3.75,2.567-5.786c0.313-1.013,0.442-2.063,0.606-3.105
										c0.065-1.054,0.15-2.095,0.13-3.165c0.002-4.256,0.003-8.489,0.005-12.698c0.003-8.417,0.006-16.739,0.01-24.958
										c0.034-65.751,0.065-124.967,0.091-174.699c0.045-49.729,0.081-89.974,0.106-117.792c-0.001-3.476-0.002-6.758-0.003-9.84
										c-0.044-3.072-0.765-5.913-1.87-8.335c-1.112-2.422-2.562-4.464-4.162-6.049c-1.6-1.583-3.243-2.825-4.845-3.703
										c-0.787-0.462-1.587-0.786-2.309-1.138c-0.759-0.266-1.455-0.548-2.118-0.748c-0.672-0.172-1.29-0.331-1.854-0.475
										c-0.575-0.09-1.094-0.171-1.557-0.243c-0.462-0.087-0.871-0.119-1.225-0.129c-0.352-0.02-0.647-0.037-0.885-0.051
										C276.71,61.416,276.47,61.395,276.47,61.395z"/>
								</g>
							</g>
						</g>
					</g>
				</g>
			</g>
			<g>
				<g>
					<g>
						<path style="fill:#263238;" d="M106.106,142.327h-4.962c-0.738,0-1.336-0.598-1.336-1.336V98.811
							c0-0.738,0.598-1.336,1.336-1.336h4.962c0.738,0,1.336,0.598,1.336,1.336v42.179
							C107.442,141.728,106.844,142.327,106.106,142.327z"/>
					</g>
				</g>
			</g>
			<g>
				<g>
					<g>
						<path style="fill:#263238;" d="M106.106,195.298h-4.962c-0.738,0-1.336-0.598-1.336-1.336v-42.179
							c0-0.738,0.598-1.336,1.336-1.336h4.962c0.738,0,1.336,0.598,1.336,1.336v42.179
							C107.442,194.7,106.844,195.298,106.106,195.298z"/>
					</g>
				</g>
			</g>
			<g>
				<g>
					<g>
						<path style="fill:#263238;" d="M310.01,211.607h-4.962c-0.738,0-1.336-0.598-1.336-1.336v-74.798
							c0-0.738,0.598-1.336,1.336-1.336h4.962c0.738,0,1.336,0.598,1.336,1.336v74.798
							C311.346,211.009,310.748,211.607,310.01,211.607z"/>
					</g>
				</g>
			</g>
		</g>
	</g>
</g>
<g id="Plant">
	<g>
		<g>
			<g>
				<g>
					<path style="fill:#455A64;" d="M62.865,281.275c9.174,4.752,16.208,12.933,21.266,21.942
						c5.058,9.008,8.318,18.893,11.547,28.707l2.826,50.612c-10.674-18.159-19.242-39.506-21.556-60.442
						c2.368-0.211,4.735-0.422,7.103-0.633c-4.763-0.727-8.76-4.178-11.304-8.27c-2.543-4.092-3.853-8.81-5.131-13.455
						c2.889,0.429,5.777,0.859,8.666,1.288C69.496,296.495,64.576,289.253,62.865,281.275z"/>
				</g>
			</g>
		</g>
		<g style="opacity:0.4;">
			<g>
				<g>
					<g>
						<path d="M62.865,281.275c9.174,4.752,16.208,12.933,21.266,21.942c5.058,9.008,8.318,18.893,11.547,28.707l2.826,50.612
							c-10.674-18.159-19.242-39.506-21.556-60.442c2.368-0.211,4.735-0.422,7.103-0.633c-4.763-0.727-8.76-4.178-11.304-8.27
							c-2.543-4.092-3.853-8.81-5.131-13.455c2.889,0.429,5.777,0.859,8.666,1.288C69.496,296.495,64.576,289.253,62.865,281.275z"
							/>
					</g>
				</g>
			</g>
		</g>
		<g>
			<g>
				<g>
					<path style="fill:#455A64;" d="M100.083,394.395c0,0,23.168-27.73,22.901-54.203h-9.359c0,0,10.166-6.685,9.361-10.429
						c-0.804-3.743-1.072-17.916-1.072-17.916l-8.557,2.139c0,0,6.418-3.209,7.22-8.289c0.802-5.081-1.872-28.612-1.872-28.612
						s-10.429,10.963-13.637,22.194c-3.209,11.231-11.631,24.333-9.158,58.56C98.384,392.067,100.083,394.395,100.083,394.395z"/>
				</g>
			</g>
		</g>
		<g>
			<g>
				<g>
					<path style="fill:#455A64;" d="M88.338,397.012c0,0-25.101-16.721-30.678-38.063l7.524-2.048c0,0-9.636-3.15-9.808-6.336
						c-0.173-3.186-3.058-14.638-3.058-14.638l7.347-0.152c0,0-5.861-1.176-7.618-5.085c-1.757-3.909-4.755-23.413-4.755-23.413
						s10.783,6.533,15.82,14.86c5.037,8.327,14.675,17.018,20.175,45.077C88.788,395.273,88.338,397.012,88.338,397.012z"/>
				</g>
			</g>
		</g>
		<g>
			<g>
				<g>
					<g>
						<path style="fill:#263238;" d="M112.377,301.264c-0.007-0.002-0.035,0.096-0.083,0.288c-0.05,0.213-0.117,0.495-0.201,0.853
							c-0.173,0.777-0.42,1.881-0.734,3.291c-0.321,1.429-0.694,3.181-1.099,5.221c-0.412,2.039-0.892,4.358-1.362,6.934
							c-0.992,5.142-2.038,11.289-3.116,18.128c-1.044,6.844-2.088,14.385-3.015,22.32c-0.908,7.941-1.613,15.522-2.158,22.425
							c-0.511,6.905-0.895,13.129-1.102,18.362c-0.131,2.615-0.192,4.983-0.256,7.061c-0.071,2.078-0.107,3.869-0.121,5.333
							c-0.016,1.444-0.028,2.575-0.036,3.371c0.001,0.368,0.001,0.658,0.001,0.877c0.003,0.198,0.008,0.299,0.015,0.299
							c0.007,0,0.017-0.101,0.028-0.298c0.01-0.219,0.024-0.508,0.041-0.876c0.027-0.795,0.066-1.925,0.116-3.368
							c0.039-1.463,0.099-3.252,0.193-5.329c0.087-2.077,0.169-4.443,0.318-7.055c0.246-5.228,0.66-11.446,1.192-18.345
							c0.566-6.897,1.282-14.472,2.19-22.407c0.926-7.93,1.957-15.467,2.979-22.31c1.056-6.837,2.071-12.986,3.024-18.132
							c0.451-2.578,0.91-4.9,1.3-6.942c0.382-2.044,0.732-3.8,1.028-5.233c0.281-1.417,0.501-2.526,0.656-3.307
							c0.067-0.362,0.12-0.647,0.16-0.862C112.37,301.366,112.384,301.265,112.377,301.264z"/>
					</g>
				</g>
			</g>
		</g>
		<g>
			<g>
				<g>
					<path style="fill:#455A64;" d="M103.297,411.376c0,0,21.202-24.057,27.785-38.599l-4.97-2.124
						c3.602,0.594,7.293-0.954,10.086-3.305c2.793-2.351,4.844-5.443,6.856-8.491l-6.547-1.106
						c5.953-1.671,11.199-5.734,14.304-11.08c-7.726,1.27-14.715,5.514-20.475,10.817c-4.664,4.295-8.614,9.281-12.407,14.376
						c-1.85,2.485-3.469,5.133-4.818,7.922C109.55,387.152,103.285,402.541,103.297,411.376z"/>
				</g>
			</g>
		</g>
		<g>
			<g>
				<g>
					<g>
						<path style="fill:#263238;" d="M57.327,321.28c-0.006,0.003,0.027,0.086,0.098,0.245c0.083,0.178,0.191,0.409,0.326,0.699
							c0.308,0.635,0.74,1.53,1.292,2.669c1.137,2.309,2.748,5.668,4.697,9.837c1.955,4.166,4.204,9.163,6.622,14.747
							c2.396,5.592,4.949,11.776,7.489,18.321c2.525,6.554,4.797,12.847,6.786,18.598c1.968,5.758,3.666,10.969,5.022,15.367
							c1.363,4.396,2.431,7.964,3.143,10.438c0.358,1.213,0.64,2.166,0.84,2.843c0.095,0.306,0.17,0.549,0.229,0.737
							c0.054,0.165,0.085,0.249,0.092,0.247c0.007-0.002-0.01-0.089-0.05-0.259c-0.048-0.191-0.11-0.437-0.188-0.748
							c-0.182-0.682-0.437-1.642-0.763-2.865c-0.663-2.488-1.688-6.071-3.015-10.48c-1.32-4.412-2.989-9.636-4.939-15.405
							c-1.97-5.762-4.232-12.065-6.76-18.624c-2.542-6.551-5.108-12.735-7.526-18.323c-2.439-5.579-4.718-10.567-6.709-14.719
							c-1.985-4.155-3.637-7.496-4.82-9.783c-0.582-1.124-1.039-2.006-1.363-2.633c-0.151-0.282-0.271-0.507-0.364-0.68
							C57.38,321.353,57.334,321.276,57.327,321.28z"/>
					</g>
				</g>
			</g>
		</g>
		<g>
			<g>
				<g>
					<g>
						<path style="fill:#263238;" d="M101.498,421.685c0.015,0.002,0.049-0.151,0.101-0.442c0.055-0.339,0.123-0.761,0.206-1.277
							c0.081-0.555,0.184-1.234,0.331-2.018c0.143-0.784,0.28-1.681,0.493-2.661c0.38-1.969,0.925-4.295,1.619-6.853
							c0.717-2.551,1.596-5.33,2.668-8.195c1.089-2.859,2.266-5.527,3.414-7.915c1.17-2.378,2.298-4.484,3.314-6.213
							c0.488-0.877,0.978-1.641,1.389-2.323c0.408-0.685,0.779-1.263,1.085-1.733c0.278-0.442,0.506-0.804,0.689-1.095
							c0.154-0.253,0.229-0.39,0.217-0.398c-0.012-0.009-0.11,0.112-0.287,0.35c-0.2,0.279-0.45,0.626-0.756,1.051
							c-0.328,0.457-0.72,1.023-1.148,1.697c-0.431,0.673-0.941,1.428-1.447,2.297c-1.052,1.715-2.213,3.815-3.407,6.194
							c-1.173,2.389-2.367,5.065-3.46,7.938c-1.077,2.878-1.949,5.674-2.648,8.242c-0.676,2.574-1.193,4.916-1.537,6.899
							c-0.195,0.987-0.312,1.891-0.433,2.68c-0.125,0.789-0.204,1.473-0.26,2.033c-0.052,0.521-0.094,0.947-0.127,1.289
							C101.49,421.527,101.484,421.683,101.498,421.685z"/>
					</g>
				</g>
			</g>
		</g>
		<g>
			<g>
				<g>
					<rect x="73.522" y="416.026" style="fill:#FF725E;" width="46.403" height="9.466"/>
				</g>
			</g>
		</g>
		<g>
			<g>
				<g>
					<polygon style="fill:#FF725E;" points="115.504,425.492 110.484,457.33 82.445,457.33 77.766,425.492 					"/>
				</g>
			</g>
		</g>
		<g>
			<g>
				<g>
					<g>
						<path style="fill:#263238;" d="M76.369,425.492c0,0.117,8.778,0.212,19.604,0.212c10.83,0,19.606-0.095,19.606-0.212
							s-8.776-0.212-19.606-0.212C85.147,425.28,76.369,425.375,76.369,425.492z"/>
					</g>
				</g>
			</g>
		</g>
	</g>
</g>
<g id="Shadow_2">
	<g style="opacity:0.3;">
		<g>
			<path d="M265.082,49.104v79.278c0,5.177,4.235,9.374,9.46,9.374h11.515c-0.628,3.21-2.002,6.282-4.009,8.872
				c-0.743,0.958,0.133,2.302,1.315,2.029c3.013-0.695,5.966-1.612,8.68-3.065c3.317-1.777,6.254-4.475,7.82-7.836h11.483v-3.618
				h-3.817V79.553c0-16.817-13.633-30.449-30.449-30.449H265.082z"/>
		</g>
	</g>
</g>
<g id="Shadow_1">
	<g style="opacity:0.3;">
		<g>
			<path d="M103.438,194.884h40.973c7.676,0,13.899,6.223,13.899,13.899v33.018c0,7.676-6.223,13.899-13.899,13.899h-16.919
				c0.925,4.769,2.95,9.334,5.909,13.179c1.088,1.414-0.213,3.389-1.951,2.984c-4.428-1.031-8.767-2.39-12.754-4.545
				c-4.874-2.635-9.189-6.636-11.49-11.619h-3.581L103.438,194.884z"/>
		</g>
	</g>
</g>
<g id="Emotions">
	<g>
		<g>
			<g>
				<circle style="fill:#E0E0E0;" cx="205.577" cy="253.796" r="30.286"/>
			</g>
			<g>
				<path style="fill:#263238;" d="M215.611,248.645c0,2.206,1.355,3.995,3.026,3.995c1.671,0,3.026-1.789,3.026-3.995
					c0-2.207-1.355-3.995-3.026-3.995C216.966,244.649,215.611,246.438,215.611,248.645z"/>
			</g>
			<g>
				<ellipse style="fill:#263238;" cx="193.465" cy="248.645" rx="3.026" ry="3.995"/>
			</g>
			<g>
				<path style="fill:#263238;" d="M217.161,257.965c-7.482,0-14.964,0-22.446,0c-1.195,0-1.197-1.857,0-1.857
					c7.482,0,14.964,0,22.446,0C218.355,256.108,218.357,257.965,217.161,257.965L217.161,257.965z"/>
			</g>
		</g>
		<g>
			<g>
				
					<ellipse transform="matrix(0.4289 -0.9034 0.9034 0.4289 -175.8245 371.0933)" style="fill:#E0E0E0;" cx="205.577" cy="324.602" rx="30.286" ry="30.286"/>
			</g>
			<g>
				<path style="fill:#263238;" d="M215.611,319.451c0,2.206,1.355,3.995,3.026,3.995c1.671,0,3.026-1.789,3.026-3.995
					c0-2.207-1.355-3.995-3.026-3.995C216.966,315.456,215.611,317.244,215.611,319.451z"/>
			</g>
			<g>
				<path style="fill:#263238;" d="M190.439,319.451c0,2.206,1.355,3.995,3.026,3.995c1.671,0,3.026-1.789,3.026-3.995
					c0-2.207-1.355-3.995-3.026-3.995C191.794,315.456,190.439,317.244,190.439,319.451z"/>
			</g>
		</g>
		<g>
			<g>
				
					<ellipse transform="matrix(0.9855 -0.1698 0.1698 0.9855 -63.6959 40.6094)" style="fill:#E0E0E0;" cx="205.577" cy="392.706" rx="30.286" ry="30.286"/>
			</g>
			<g>
				<path style="fill:#263238;" d="M214.439,387.555c0,2.207,1.355,3.995,3.026,3.995c1.671,0,3.026-1.789,3.026-3.995
					c0-2.206-1.355-3.995-3.026-3.995C215.794,383.56,214.439,385.348,214.439,387.555z"/>
			</g>
			<g>
				<ellipse style="fill:#263238;" cx="193.465" cy="387.74" rx="3.026" ry="3.995"/>
			</g>
			<g>
				<path style="fill:#263238;" d="M197.016,396.817c1.06-3.808,4.808-6.702,8.802-6.551c3.978,0.15,7.564,3.233,8.337,7.131
					c0.232,1.167-1.558,1.667-1.79,0.494c-0.611-3.079-3.35-5.643-6.547-5.768c-3.18-0.124-6.166,2.148-7.012,5.188
					C198.487,398.46,196.695,397.972,197.016,396.817L197.016,396.817z"/>
			</g>
		</g>
		<g>
			<g>
				<g>
					<circle style="fill:#FF725E;" cx="207.007" cy="182.511" r="31.657"/>
				</g>
				<g>
					<path style="fill:#263238;" d="M217.495,177.126c0,2.306,1.416,4.176,3.163,4.176c1.747,0,3.163-1.87,3.163-4.176
						c0-2.306-1.416-4.176-3.163-4.176C218.911,172.95,217.495,174.82,217.495,177.126z"/>
				</g>
				<g>
					<path style="fill:#263238;" d="M191.184,177.126c0,2.306,1.416,4.176,3.163,4.176c1.747,0,3.163-1.87,3.163-4.176
						c0-2.306-1.416-4.176-3.163-4.176C192.6,172.95,191.184,174.82,191.184,177.126z"/>
				</g>
			</g>
			<g>
				<path style="fill:#263238;" d="M216.528,182.464c-0.945,4.022-4.738,7.204-8.916,7.215c-4.161,0.012-8.037-3.056-9.01-7.094
					c-0.291-1.209,1.556-1.806,1.849-0.591c0.769,3.19,3.738,5.752,7.082,5.747c3.326-0.005,6.349-2.505,7.104-5.716
					C214.922,180.81,216.814,181.244,216.528,182.464L216.528,182.464z"/>
			</g>
		</g>
		<g>
			<g>
				<g>
					
						<ellipse transform="matrix(0.7071 -0.7071 0.7071 0.7071 -18.7263 179.2471)" style="fill:#E0E0E0;" cx="207.007" cy="112.228" rx="30.816" ry="30.816"/>
				</g>
				<g>
					<path style="fill:#263238;" d="M216.932,106.986c0,2.245,1.379,4.065,3.079,4.065c1.701,0,3.079-1.82,3.079-4.065
						s-1.379-4.065-3.079-4.065C218.31,102.921,216.932,104.741,216.932,106.986z"/>
				</g>
				<g>
					<path style="fill:#263238;" d="M191.319,106.986c0,2.245,1.379,4.065,3.079,4.065c1.701,0,3.079-1.82,3.079-4.065
						s-1.379-4.065-3.079-4.065C192.698,102.921,191.319,104.741,191.319,106.986z"/>
				</g>
			</g>
			<g>
				<g>
					<path style="fill:#263238;" d="M196.381,112.998c0,6.241,4.76,11.301,10.633,11.301s10.633-5.06,10.633-11.301H196.381z"/>
				</g>
				<g>
					<path style="fill:#FF725E;" d="M201.481,122.639c0,0,2.099-2.677,5.533-2.677c3.434,0,5.546,2.677,5.546,2.677
						S207.403,126.055,201.481,122.639z"/>
				</g>
			</g>
		</g>
		<g>
			<path style="fill:#263238;" d="M213.045,328.507c-0.254,0-0.508-0.097-0.703-0.289c-1.801-1.782-4.891-2.475-8.265-1.858
				c-1.629,0.299-3.203,0.834-4.677,1.59c-0.492,0.253-1.094,0.058-1.346-0.434c-0.252-0.491-0.058-1.094,0.433-1.346
				c1.648-0.846,3.408-1.443,5.23-1.777c4.079-0.745,7.733,0.129,10.032,2.403c0.393,0.389,0.396,1.021,0.008,1.414
				C213.561,328.409,213.303,328.507,213.045,328.507z"/>
		</g>
	</g>
	<g>
		<g>
			<path style="fill:#FF725E;" d="M260.848,151.245c0.097,0.106-3.421,3.484-7.857,7.543c-4.438,4.061-8.113,7.265-8.21,7.159
				c-0.097-0.106,3.421-3.483,7.858-7.543C257.076,154.345,260.751,151.139,260.848,151.245z"/>
		</g>
	</g>
	<g>
		<g>
			<path style="fill:#FF725E;" d="M273.107,178.19c0.003,0.144-5.487,0.388-12.261,0.545c-6.776,0.157-12.271,0.168-12.274,0.024
				c-0.003-0.144,5.485-0.388,12.262-0.545C267.609,178.057,273.104,178.046,273.107,178.19z"/>
		</g>
	</g>
	<g>
		<g>
			<path style="fill:#FF725E;" d="M258.383,198.99c-0.036,0.06-0.729-0.284-1.803-0.921c-1.073-0.636-2.522-1.571-4.065-2.686
				c-1.543-1.115-2.887-2.197-3.828-3.016c-0.941-0.819-1.485-1.368-1.44-1.422c0.097-0.115,2.501,1.802,5.573,4.016
				C255.886,197.182,258.461,198.862,258.383,198.99z"/>
		</g>
	</g>
	<g>
		<path style="fill:#FF725E;" d="M166.714,153.129l0.653,1.323c0.073,0.149,0.215,0.252,0.38,0.276l1.46,0.212
			c0.413,0.06,0.579,0.568,0.279,0.86l-1.056,1.03c-0.119,0.116-0.173,0.283-0.145,0.446l0.249,1.454
			c0.071,0.412-0.362,0.726-0.731,0.531l-1.306-0.686c-0.147-0.077-0.322-0.077-0.469,0l-1.306,0.686
			c-0.37,0.194-0.802-0.12-0.731-0.531l0.249-1.454c0.028-0.163-0.026-0.33-0.145-0.446l-1.056-1.03
			c-0.299-0.292-0.134-0.8,0.279-0.86l1.46-0.212c0.164-0.024,0.306-0.127,0.38-0.276l0.653-1.323
			C165.995,152.755,166.529,152.755,166.714,153.129z"/>
	</g>
	<g>
		<path style="fill:#FF725E;" d="M158.254,179.252l0.453,0.918c0.051,0.103,0.149,0.175,0.263,0.191l1.013,0.147
			c0.287,0.042,0.402,0.394,0.194,0.597l-0.733,0.714c-0.082,0.08-0.12,0.196-0.1,0.31l0.173,1.009
			c0.049,0.286-0.251,0.504-0.507,0.369l-0.906-0.476c-0.102-0.054-0.224-0.054-0.326,0l-0.906,0.476
			c-0.257,0.135-0.557-0.083-0.508-0.369l0.173-1.009c0.019-0.114-0.018-0.229-0.101-0.31l-0.733-0.714
			c-0.208-0.202-0.093-0.555,0.194-0.597l1.013-0.147c0.114-0.017,0.212-0.088,0.263-0.191l0.453-0.918
			C157.755,178.992,158.125,178.992,158.254,179.252z"/>
	</g>
	<g>
		<path style="fill:#FF725E;" d="M258.36,166.255l0.555,1.126c0.063,0.127,0.183,0.214,0.323,0.235l1.242,0.18
			c0.352,0.051,0.492,0.484,0.238,0.732l-0.899,0.876c-0.101,0.099-0.147,0.241-0.123,0.38l0.212,1.237
			c0.06,0.35-0.308,0.618-0.622,0.452l-1.111-0.584c-0.125-0.066-0.274-0.066-0.399,0l-1.111,0.584
			c-0.315,0.165-0.682-0.102-0.622-0.452l0.212-1.237c0.024-0.139-0.022-0.281-0.123-0.38l-0.899-0.876
			c-0.255-0.248-0.114-0.68,0.238-0.732l1.242-0.18c0.14-0.02,0.26-0.108,0.323-0.235l0.556-1.126
			C257.748,165.936,258.203,165.936,258.36,166.255z"/>
	</g>
	<g>
		<path style="fill:#FF725E;" d="M241.231,155.023l0.315,0.639c0.035,0.072,0.104,0.122,0.183,0.133l0.705,0.102
			c0.2,0.029,0.279,0.274,0.135,0.415l-0.51,0.497c-0.057,0.056-0.084,0.136-0.07,0.215l0.12,0.702
			c0.034,0.199-0.175,0.35-0.353,0.257l-0.63-0.331c-0.071-0.037-0.156-0.037-0.227,0l-0.63,0.331
			c-0.178,0.094-0.387-0.058-0.353-0.257l0.12-0.702c0.014-0.079-0.013-0.16-0.07-0.215l-0.51-0.497
			c-0.144-0.141-0.065-0.386,0.135-0.415l0.705-0.102c0.079-0.012,0.148-0.061,0.183-0.133l0.315-0.639
			C240.884,154.842,241.142,154.842,241.231,155.023z"/>
	</g>
	<g>
		<g>
			<path style="fill:#FF725E;" d="M162.367,168.978c-0.02,0.069-0.973-0.134-2.496-0.517c-1.523-0.384-3.618-0.948-5.922-1.602
				c-2.305-0.654-4.383-1.275-5.881-1.749c-1.498-0.474-2.414-0.802-2.395-0.871c0.019-0.069,0.971,0.133,2.494,0.517
				c1.523,0.383,3.619,0.948,5.924,1.603c2.305,0.654,4.384,1.275,5.882,1.749C161.471,168.581,162.387,168.909,162.367,168.978z"/>
		</g>
	</g>
	<g>
		<g>
			<path style="fill:#FF725E;" d="M164.802,192.562c0.09,0.112-1.373,1.443-3.268,2.973c-1.895,1.531-3.505,2.68-3.595,2.568
				c-0.09-0.112,1.372-1.443,3.268-2.973C163.102,193.6,164.712,192.451,164.802,192.562z"/>
		</g>
	</g>
</g>
<g id="Speech_Bubble_2">
	<g>
		<g>
			<g>
				<g>
					<g>
						<g>
							<g>
								<g>
									<g>
										<g>
											<g>
												<g>
													<g>
														<g>
															<g>
																<path style="fill:#FFFFFF;" d="M405.426,183.326l6.432-0.493c3.08,2.765,7.029,4.648,11.516,5.161
																	c10.123,1.157,19.753-5.417,22.347-15.27c3.258-12.377-5.253-24.659-17.986-25.953
																	c-10.211-1.038-19.795,5.778-22.191,15.757c-1.225,5.103-0.458,10.164,1.76,14.424l-0.008-0.008L405.426,183.326z"
																	/>
															</g>
														</g>
													</g>
												</g>
												<g>
													<g>
														<g>
															<g>
																<g>
																	<path style="fill:#263238;" d="M405.426,183.326c0,0,0.054-0.15,0.142-0.428c0.092-0.297,0.219-0.703,0.382-1.227
																		c0.333-1.089,0.815-2.662,1.438-4.701l-0.163,0.038l0.008,0.009c0.036,0.039,0.096,0.043,0.136,0.007
																		c0.033-0.03,0.04-0.079,0.021-0.117c-1.199-2.355-2.355-5.727-2.273-9.841c0.023-2.047,0.418-4.251,1.2-6.467
																		c0.779-2.214,1.993-4.44,3.692-6.438c1.693-1.998,3.868-3.765,6.419-5.051c2.546-1.288,5.469-2.089,8.526-2.203
																		c6.092-0.256,12.737,2.495,16.852,7.854l0.764,1.005l0.666,1.067c0.478,0.69,0.778,1.475,1.17,2.204
																		c0.64,1.525,1.178,3.086,1.438,4.688c0.582,3.189,0.387,6.429-0.453,9.386c-0.863,2.954-2.365,5.605-4.251,7.764
																		c-1.886,2.164-4.147,3.838-6.51,4.989c-4.756,2.311-9.787,2.5-13.75,1.537c-4.009-0.946-6.989-2.897-8.956-4.64
																		c-0.025-0.008-0.047-0.015-0.072-0.023c-2.056,0.183-3.645,0.325-4.745,0.422c-0.529,0.05-0.94,0.089-1.241,0.117
																		C405.58,183.304,405.426,183.326,405.426,183.326c-0.007,0.005,0.127,0,0.398-0.015
																		c0.295-0.017,0.699-0.041,1.218-0.072c1.118-0.072,2.733-0.176,4.823-0.311l-0.071-0.024
																		c1.958,1.787,4.954,3.795,9.012,4.785c4.011,1.007,9.13,0.849,13.984-1.484c2.412-1.161,4.723-2.858,6.654-5.06
																		c1.931-2.195,3.472-4.899,4.359-7.913c0.864-3.016,1.069-6.326,0.477-9.586c-0.264-1.637-0.812-3.233-1.466-4.792
																		c-0.399-0.746-0.707-1.547-1.194-2.253l-0.681-1.09l-0.781-1.028c-4.206-5.476-11.004-8.282-17.223-8.007
																		c-3.121,0.122-6.104,0.948-8.696,2.27c-2.598,1.32-4.807,3.129-6.523,5.171c-1.722,2.043-2.946,4.315-3.725,6.571
																		c-0.782,2.257-1.166,4.497-1.175,6.574c-0.051,4.175,1.157,7.576,2.4,9.935l0.157-0.109l-0.008-0.008
																		c-0.035-0.039-0.096-0.043-0.135-0.008c-0.014,0.012-0.023,0.029-0.028,0.046
																		c-0.583,2.081-1.033,3.687-1.344,4.798c-0.142,0.518-0.252,0.919-0.333,1.213
																		C405.453,183.197,405.419,183.331,405.426,183.326z"/>
																</g>
															</g>
														</g>
													</g>
												</g>
											</g>
										</g>
									</g>
								</g>
							</g>
						</g>
					</g>
				</g>
			</g>
		</g>
		<g>
			<g>
				<g>
					<g>
						<g>
							<polygon style="fill:#FF725E;" points="422.873,176.952 413.958,167.339 417.313,164.229 423.291,170.674 434.92,161.073 
								437.832,164.6 							"/>
						</g>
					</g>
				</g>
			</g>
		</g>
	</g>
</g>
<g id="Speech_Bubbles_1">
	<g>
		<g>
			<g>
				<path style="fill:#FFFFFF;" d="M284.208,24.994h109.631c5.225,0,9.46,4.235,9.46,9.46v82.879c0,5.224-4.235,9.46-9.46,9.46
					h-84.309c-1.566,3.392-4.503,6.114-7.82,7.908c-2.713,1.467-5.666,2.392-8.68,3.094c-1.183,0.275-2.068-1.069-1.328-2.031
					c2.014-2.617,3.392-5.724,4.022-8.97h-11.515c-5.224,0-9.46-4.235-9.46-9.46V34.453
					C274.748,29.229,278.983,24.994,284.208,24.994z"/>
			</g>
			<g>
				<g>
					<path style="fill:#263238;" d="M284.208,24.993c0,0-0.196,0.022-0.58,0.048c-0.383,0.017-0.957,0.09-1.688,0.275
						c-1.433,0.357-3.647,1.305-5.369,3.69c-0.86,1.171-1.484,2.725-1.687,4.495c-0.091,1.778-0.016,3.756-0.032,5.871
						c0.009,4.241,0.019,9.109,0.031,14.554c0.015,10.896,0.033,24.098,0.054,39.196c0.007,7.55,0.014,15.575,0.022,24.022
						c-0.015,2.069,0.619,4.174,1.943,5.837c1.295,1.665,3.185,2.916,5.307,3.367c1.058,0.239,2.147,0.224,3.276,0.221
						c1.12-0.001,2.245-0.002,3.377-0.002c2.263-0.001,4.55-0.003,6.861-0.004l0.28,0l-0.053,0.275
						c-0.518,2.658-1.532,5.258-3.029,7.597c-0.188,0.292-0.381,0.58-0.584,0.863c-0.184,0.275-0.457,0.583-0.569,0.811
						c-0.269,0.507,0.028,1.195,0.558,1.406c0.279,0.106,0.523,0.093,0.876-0.006l1.01-0.249c0.673-0.173,1.343-0.36,2.009-0.566
						c2.658-0.823,5.281-1.936,7.582-3.589c2.292-1.644,4.294-3.806,5.502-6.415l0.066-0.143h0.158
						c23.043-0.004,48.206-0.009,74.38-0.014c2.004,0,4.001,0,5.993,0l2.982,0c1.004,0.012,1.956-0.013,2.903-0.211
						c1.874-0.419,3.625-1.409,4.888-2.848c1.294-1.412,2.085-3.242,2.305-5.125c0.083-0.935,0.054-1.921,0.059-2.891
						c0-0.972,0-1.942,0-2.91c0-1.937,0.001-3.866,0.001-5.787c0.001-3.843,0.001-7.655,0.002-11.433
						c0.005-15.114,0.01-29.692,0.015-43.58c0.002-3.472,0.004-6.9,0.005-10.284c0.001-1.692,0.002-3.372,0.003-5.04
						c-0.003-1.676,0.082-3.321-0.461-4.848c-0.985-3.069-3.654-5.448-6.702-6.118c-1.509-0.378-3.11-0.197-4.68-0.243
						c-1.57-0.001-3.127-0.002-4.671-0.003c-12.35-0.011-23.853-0.022-34.356-0.032c-20.998-0.035-37.991-0.063-49.747-0.083
						c-5.866-0.021-10.423-0.038-13.525-0.049c-1.539-0.011-2.714-0.02-3.517-0.026C284.614,25.011,284.208,24.993,284.208,24.993
						s0.406-0.018,1.198-0.027c0.803-0.006,1.979-0.014,3.517-0.026c3.102-0.011,7.659-0.028,13.525-0.049
						c11.756-0.02,28.749-0.048,49.747-0.083c10.503-0.01,22.007-0.02,34.356-0.032c1.544-0.001,3.101-0.002,4.671-0.003
						c0.785,0,1.573-0.001,2.365-0.002c0.393-0.006,0.807,0.033,1.21,0.048c0.401,0.064,0.809,0.099,1.205,0.202
						c3.198,0.699,5.999,3.188,7.038,6.41c0.573,1.607,0.485,3.348,0.49,4.991c0.001,1.668,0.002,3.349,0.003,5.04
						c0.002,3.383,0.003,6.812,0.005,10.284c0.005,13.888,0.01,28.466,0.015,43.58c0.001,3.778,0.002,7.59,0.002,11.433
						c0,1.922,0.001,3.851,0.001,5.787c0,0.968,0,1.938,0,2.91c-0.006,0.973,0.027,1.938-0.062,2.948
						c-0.23,1.99-1.068,3.924-2.433,5.416c-1.334,1.52-3.183,2.567-5.165,3.01c-0.993,0.211-2.033,0.236-3.013,0.223l-2.982,0
						c-1.992,0-3.989,0-5.993,0c-26.174-0.005-51.337-0.009-74.38-0.014l0.224-0.143c-1.255,2.703-3.318,4.922-5.667,6.603
						c-2.361,1.693-5.033,2.82-7.725,3.651c-0.674,0.208-1.352,0.396-2.031,0.57l-1.019,0.251c-0.311,0.096-0.796,0.151-1.167-0.018
						c-0.771-0.306-1.192-1.29-0.803-2.047c0.207-0.384,0.415-0.584,0.612-0.882c0.198-0.277,0.388-0.559,0.572-0.844
						c1.465-2.286,2.462-4.83,2.972-7.432l0.226,0.274c-2.31-0.001-4.597-0.003-6.861-0.004c-1.132-0.001-2.257-0.001-3.377-0.002
						c-1.107,0.003-2.262,0.018-3.371-0.235c-2.223-0.476-4.201-1.789-5.554-3.534c-1.382-1.739-2.046-3.958-2.024-6.103
						c0.008-8.447,0.015-16.472,0.022-24.022c0.021-15.098,0.039-28.3,0.054-39.196c0.012-5.445,0.022-10.313,0.031-14.554
						c0.027-2.123-0.038-4.075,0.065-5.889c0.217-1.803,0.864-3.379,1.747-4.561c1.767-2.407,4.019-3.34,5.468-3.677
						c0.739-0.175,1.318-0.236,1.703-0.241C284.012,24.991,284.208,24.993,284.208,24.993z"/>
				</g>
			</g>
		</g>
		<g>
			<circle style="fill:#455A64;" cx="300.413" cy="47.581" r="7.9"/>
		</g>
		<g>
			<path style="fill:#FF725E;" d="M297.061,64.07l1.217,2.467c0.137,0.277,0.402,0.47,0.708,0.514l2.722,0.396
				c0.771,0.112,1.079,1.06,0.521,1.604l-1.97,1.92c-0.222,0.216-0.323,0.527-0.27,0.832l0.465,2.711
				c0.132,0.768-0.674,1.354-1.364,0.991l-2.435-1.28c-0.274-0.144-0.601-0.144-0.875,0l-2.435,1.28
				c-0.69,0.363-1.496-0.223-1.364-0.991l0.465-2.711c0.052-0.305-0.049-0.616-0.27-0.832l-1.97-1.92
				c-0.558-0.544-0.25-1.491,0.521-1.604l2.723-0.396c0.306-0.044,0.571-0.237,0.708-0.514l1.217-2.467
				C295.72,63.372,296.716,63.372,297.061,64.07z"/>
		</g>
		<g>
			<path style="fill:#FF725E;" d="M317.081,64.07l1.217,2.467c0.137,0.277,0.402,0.47,0.708,0.514l2.722,0.396
				c0.771,0.112,1.079,1.06,0.521,1.604l-1.97,1.92c-0.221,0.216-0.323,0.527-0.27,0.832l0.465,2.711
				c0.132,0.768-0.674,1.354-1.364,0.991l-2.435-1.28c-0.274-0.144-0.601-0.144-0.875,0l-2.435,1.28
				c-0.69,0.363-1.496-0.223-1.364-0.991l0.465-2.711c0.052-0.305-0.049-0.616-0.27-0.832l-1.97-1.92
				c-0.558-0.544-0.25-1.491,0.521-1.604l2.722-0.396c0.306-0.044,0.571-0.237,0.708-0.514l1.217-2.467
				C315.74,63.372,316.737,63.372,317.081,64.07z"/>
		</g>
		<g>
			<path style="fill:#FF725E;" d="M337.102,64.07l1.217,2.467c0.137,0.277,0.402,0.47,0.708,0.514l2.722,0.396
				c0.771,0.112,1.079,1.06,0.521,1.604l-1.97,1.92c-0.222,0.216-0.323,0.527-0.27,0.832l0.465,2.711
				c0.132,0.768-0.674,1.354-1.364,0.991l-2.435-1.28c-0.274-0.144-0.601-0.144-0.875,0l-2.435,1.28
				c-0.69,0.363-1.496-0.223-1.364-0.991l0.465-2.711c0.052-0.305-0.049-0.616-0.27-0.832l-1.97-1.92
				c-0.558-0.544-0.25-1.491,0.521-1.604l2.722-0.396c0.306-0.044,0.571-0.237,0.708-0.514l1.217-2.467
				C335.76,63.372,336.757,63.372,337.102,64.07z"/>
		</g>
		<g>
			<path style="fill:#FF725E;" d="M357.122,64.07l1.217,2.467c0.137,0.277,0.402,0.47,0.708,0.514l2.722,0.396
				c0.771,0.112,1.079,1.06,0.521,1.604l-1.97,1.92c-0.222,0.216-0.323,0.527-0.27,0.832l0.465,2.711
				c0.132,0.768-0.674,1.354-1.364,0.991l-2.435-1.28c-0.274-0.144-0.601-0.144-0.875,0l-2.435,1.28
				c-0.69,0.363-1.496-0.223-1.364-0.991l0.465-2.711c0.052-0.305-0.049-0.616-0.27-0.832l-1.97-1.92
				c-0.558-0.544-0.25-1.491,0.521-1.604l2.722-0.396c0.306-0.044,0.571-0.237,0.708-0.514l1.217-2.467
				C355.781,63.372,356.777,63.372,357.122,64.07z"/>
		</g>
		<g>
			<path style="fill:#E0E0E0;" d="M377.142,64.07l1.218,2.467c0.137,0.277,0.402,0.47,0.708,0.514l2.722,0.396
				c0.771,0.112,1.079,1.06,0.521,1.604l-1.97,1.92c-0.222,0.216-0.323,0.527-0.27,0.832l0.465,2.711
				c0.132,0.768-0.674,1.354-1.364,0.991l-2.435-1.28c-0.274-0.144-0.601-0.144-0.875,0l-2.435,1.28
				c-0.69,0.363-1.496-0.223-1.364-0.991l0.465-2.711c0.052-0.305-0.049-0.616-0.27-0.832l-1.97-1.92
				c-0.558-0.544-0.25-1.491,0.521-1.604l2.723-0.396c0.306-0.044,0.571-0.237,0.708-0.514l1.217-2.467
				C375.801,63.372,376.797,63.372,377.142,64.07z"/>
		</g>
		<g>
			<path style="fill:#F5F5F5;" d="M381.847,111.71h-86.505c-3.245,0-5.875-2.63-5.875-5.875V86.976c0-3.245,2.63-5.875,5.875-5.875
				h86.505c3.245,0,5.875,2.63,5.875,5.875v18.859C387.722,109.079,385.092,111.71,381.847,111.71z"/>
		</g>
		<g>
			<rect x="313.805" y="43.908" style="fill:#E0E0E0;" width="62.494" height="3.673"/>
		</g>
		<g>
			<rect x="313.805" y="50.39" style="fill:#E0E0E0;" width="25.218" height="3.673"/>
		</g>
		<g>
			<rect x="298.715" y="90.131" style="fill:#E0E0E0;" width="78.594" height="3.673"/>
		</g>
		<g>
			<rect x="298.715" y="97.501" style="fill:#E0E0E0;" width="57.564" height="3.673"/>
		</g>
	</g>
	<g>
		<g>
			<g>
				<g>
					<path style="fill:#FFFFFF;" d="M131.477,183.735H43.445c-7.676,0-13.899,6.223-13.899,13.899v33.018
						c0,7.676,6.223,13.899,13.899,13.899h50.828c2.301,4.983,6.616,8.984,11.49,11.619c3.987,2.155,8.326,3.514,12.754,4.545
						c1.738,0.404,3.039-1.571,1.951-2.985c-2.959-3.845-4.984-8.41-5.909-13.179h16.919c7.676,0,13.899-6.223,13.899-13.899
						v-33.018C145.377,189.958,139.154,183.735,131.477,183.735z"/>
				</g>
				<g>
					<g>
						<path style="fill:#263238;" d="M131.477,183.735c0,0,0.592-0.026,1.729,0.082c1.132,0.116,2.827,0.467,4.807,1.473
							c1.947,1.024,4.17,2.812,5.754,5.631c0.77,1.411,1.358,3.066,1.598,4.896c0.22,1.84,0.111,3.78,0.146,5.832
							c0.007,8.213,0.016,18.167,0.025,29.559c-0.079,2.884-1.138,5.833-3.047,8.233c-1.919,2.376-4.672,4.255-7.849,4.95
							c-1.578,0.375-3.242,0.387-4.863,0.374c-1.634,0.001-3.288,0.003-4.961,0.005c-3.346,0.003-6.767,0.006-10.259,0.009
							l0.224-0.272c0.717,3.672,2.112,7.321,4.195,10.657c0.522,0.834,1.086,1.643,1.691,2.437c0.336,0.444,0.504,1.04,0.408,1.603
							c-0.097,0.56-0.411,1.078-0.88,1.407c-0.457,0.346-1.073,0.46-1.629,0.356c-0.521-0.107-1.001-0.231-1.504-0.355
							c-0.996-0.249-1.992-0.52-2.986-0.817c-3.968-1.187-7.944-2.817-11.491-5.299c-3.524-2.47-6.652-5.772-8.544-9.839
							l0.231,0.148c-11.703,0.002-23.828,0.004-36.247,0.005c-3.095,0-6.171,0-9.227,0c-1.528,0-3.051,0-4.569-0.001
							c-0.753,0.014-1.531-0.033-2.298-0.083c-0.763-0.108-1.524-0.221-2.261-0.441c-1.477-0.413-2.882-1.058-4.152-1.902
							c-1.256-0.864-2.366-1.922-3.29-3.117c-1.876-2.378-2.858-5.376-2.925-8.339c0.007-11.675,0.014-22.937,0.02-33.666
							c0.006-1.367,0.296-2.706,0.678-3.993c0.415-1.284,1.036-2.479,1.761-3.59c0.762-1.09,1.66-2.066,2.657-2.917
							c1.027-0.811,2.122-1.529,3.31-2.042c1.187-0.497,2.419-0.899,3.684-1.049c1.263-0.197,2.526-0.156,3.749-0.159
							c2.464,0.002,4.89,0.005,7.274,0.007c9.537,0.011,18.421,0.022,26.533,0.032c16.213,0.035,29.335,0.063,38.419,0.083
							c4.526,0.021,8.044,0.038,10.445,0.049c1.185,0.011,2.091,0.02,2.716,0.026C131.164,183.717,131.477,183.735,131.477,183.735
							s-0.313,0.018-0.925,0.027c-0.625,0.006-1.532,0.015-2.716,0.026c-2.401,0.011-5.919,0.028-10.445,0.049
							c-9.084,0.02-22.206,0.048-38.419,0.083c-8.112,0.01-16.996,0.02-26.533,0.032c-2.384,0.002-4.81,0.005-7.274,0.007
							c-1.237,0.005-2.472-0.032-3.685,0.161c-1.225,0.145-2.415,0.538-3.563,1.02c-1.148,0.498-2.206,1.195-3.199,1.98
							c-0.963,0.825-1.829,1.771-2.565,2.825c-0.7,1.076-1.299,2.231-1.698,3.472c-0.367,1.244-0.647,2.537-0.65,3.859
							c0.003,10.721,0.007,21.976,0.01,33.643c0.066,2.857,1.013,5.743,2.823,8.035c0.891,1.151,1.961,2.17,3.171,3.003
							c1.224,0.812,2.577,1.433,4,1.831c0.71,0.213,1.443,0.32,2.178,0.425c0.741,0.046,1.478,0.094,2.243,0.08
							c1.518,0,3.041,0,4.569-0.001c3.056,0,6.132,0,9.227,0c12.419,0.002,24.543,0.004,36.247,0.005h0.163l0.069,0.148
							c1.841,3.965,4.903,7.21,8.368,9.642c3.483,2.442,7.41,4.06,11.344,5.241c0.986,0.296,1.975,0.565,2.964,0.814
							c0.49,0.121,0.999,0.252,1.474,0.35c0.44,0.08,0.905-0.003,1.261-0.272c0.365-0.253,0.611-0.662,0.687-1.093
							c0.072-0.434-0.051-0.881-0.316-1.236c-0.608-0.8-1.183-1.628-1.711-2.474c-2.111-3.391-3.52-7.095-4.242-10.822l-0.053-0.272
							l0.277,0c3.492,0.003,6.913,0.006,10.259,0.009c1.673,0.002,3.327,0.003,4.961,0.005c1.642,0.016,3.234,0.007,4.769-0.353
							c3.083-0.667,5.76-2.486,7.631-4.79c1.86-2.329,2.898-5.192,2.983-7.999c0.031-11.387,0.059-21.336,0.081-29.545
							c-0.025-2.048,0.092-4.007-0.114-5.801c-0.226-1.8-0.795-3.432-1.543-4.827c-1.542-2.787-3.722-4.572-5.639-5.605
							c-1.948-1.016-3.625-1.388-4.749-1.527c-0.561-0.096-0.996-0.079-1.284-0.114
							C131.624,183.755,131.477,183.735,131.477,183.735z"/>
					</g>
				</g>
			</g>
		</g>
		<g>
			<path style="fill:#FF725E;" d="M60.421,204.762l1.844,3.737c0.207,0.42,0.608,0.712,1.072,0.779l4.124,0.599
				c1.168,0.17,1.634,1.605,0.789,2.429l-2.984,2.909c-0.336,0.327-0.489,0.799-0.41,1.261l0.704,4.108
				c0.2,1.163-1.022,2.051-2.066,1.501l-3.689-1.939c-0.415-0.218-0.91-0.218-1.325,0l-3.689,1.939
				c-1.045,0.549-2.266-0.338-2.066-1.501l0.704-4.108c0.079-0.462-0.074-0.933-0.41-1.261l-2.984-2.909
				c-0.845-0.824-0.379-2.259,0.789-2.429l4.124-0.599c0.464-0.067,0.865-0.359,1.072-0.779l1.844-3.737
				C58.389,203.704,59.898,203.704,60.421,204.762z"/>
		</g>
		<g>
			<path style="fill:#FF725E;" d="M90.749,204.762l1.844,3.737c0.208,0.42,0.608,0.712,1.072,0.779l4.124,0.599
				c1.168,0.17,1.634,1.605,0.789,2.429l-2.984,2.909c-0.336,0.327-0.489,0.799-0.41,1.261l0.704,4.108
				c0.2,1.163-1.022,2.051-2.066,1.501l-3.689-1.939c-0.415-0.218-0.911-0.218-1.326,0l-3.689,1.939
				c-1.045,0.549-2.266-0.338-2.066-1.501l0.705-4.108c0.079-0.462-0.074-0.933-0.41-1.261l-2.984-2.909
				c-0.845-0.824-0.379-2.259,0.789-2.429l4.124-0.599c0.464-0.067,0.865-0.359,1.072-0.779l1.844-3.737
				C88.718,203.704,90.227,203.704,90.749,204.762z"/>
		</g>
		<g>
			<path style="fill:#FF725E;" d="M121.078,204.762l1.844,3.737c0.207,0.42,0.608,0.712,1.072,0.779l4.124,0.599
				c1.168,0.17,1.635,1.605,0.789,2.429l-2.984,2.909c-0.336,0.327-0.489,0.799-0.41,1.261l0.704,4.108
				c0.2,1.163-1.021,2.051-2.066,1.501l-3.689-1.939c-0.415-0.218-0.91-0.218-1.325,0l-3.689,1.939
				c-1.045,0.549-2.266-0.338-2.066-1.501l0.704-4.108c0.079-0.462-0.074-0.933-0.41-1.261l-2.984-2.909
				c-0.845-0.824-0.379-2.259,0.789-2.429l4.124-0.599c0.464-0.067,0.865-0.359,1.072-0.779l1.844-3.737
				C119.046,203.704,120.556,203.704,121.078,204.762z"/>
		</g>
	</g>
</g>
<g id="Character_00000028301238202153125090000011725317768445582000_">
	<g>
		<g>
			<g>
				<path style="fill:#FFFFFF;" d="M439.831,412.02v-35.898c0-13.879-11.251-25.13-25.13-25.13H292.496
					c-13.879,0-25.13,11.251-25.13,25.13v62.563c0,13.879,11.251,25.13,25.13,25.13h122.204c13.879,0,25.13-11.251,25.13-25.13
					v-8.437c3.387,0.806,7.033,0.546,10.237-0.826c4.371-1.872,7.83-5.759,9.183-10.318
					C452.225,421.752,443.531,418.527,439.831,412.02z"/>
			</g>
			<g>
				<g>
					<path style="fill:#263238;" d="M439.831,412.02c0,0,0.278,0.415,0.811,1.215c0.591,0.759,1.485,1.904,2.972,3.074
						c1.479,1.16,3.541,2.363,6.215,3.081c2.654,0.678,5.996,0.882,9.386-0.382l0.191-0.071l-0.057,0.196
						c-0.945,3.228-3.124,6.595-6.58,8.945c-3.409,2.382-8.217,3.435-12.971,2.31l0.178-0.141c0.002,1.558,0.004,3.15,0.007,4.775
						c-0.024,1.628,0.065,3.278-0.06,4.982c-0.165,3.395-1.041,6.9-2.7,10.169c-1.636,3.278-4.101,6.287-7.225,8.644
						c-3.108,2.359-6.865,4.135-10.97,4.794c-0.513,0.079-1.027,0.158-1.544,0.237c-0.518,0.066-1.044,0.065-1.568,0.1
						c-1.053,0.076-2.102,0.064-3.159,0.064c-2.115,0.002-4.258,0.003-6.428,0.005c-4.34,0.003-8.788,0.006-13.338,0.009
						c-9.1,0.005-18.61,0.011-28.482,0.017c-19.745,0.007-40.941,0.015-63.221,0.023c-2.785,0.001-5.587,0.001-8.405,0.002
						c-2.838-0.017-5.708-0.413-8.44-1.324c-5.49-1.774-10.304-5.626-13.437-10.585c-1.559-2.485-2.731-5.248-3.332-8.157
						c-0.637-2.912-0.567-5.919-0.568-8.863c0-5.924,0-11.898-0.001-17.918c0-9.602,0.001-19.09,0.001-28.441
						c0-2.338,0-4.667,0.001-6.987c0-1.16,0-2.318,0-3.474c0.002-1.156-0.019-2.306,0.064-3.471
						c0.173-4.659,1.787-9.159,4.307-12.965c1.329-1.859,2.816-3.6,4.553-5.062c1.745-1.434,3.613-2.738,5.669-3.648
						c0.991-0.533,2.075-0.842,3.115-1.245c0.533-0.166,1.078-0.285,1.616-0.43c0.538-0.144,1.077-0.285,1.63-0.347l1.645-0.251
						c0.549-0.067,1.105-0.067,1.656-0.103c1.108-0.079,2.195-0.051,3.284-0.056c8.71,0.003,17.236,0.006,25.555,0.009
						c33.275,0.021,63.239,0.04,88.406,0.056c3.144,0.04,6.215-0.111,9.221,0.222c2.995,0.345,5.838,1.258,8.364,2.577
						c2.534,1.31,4.767,3.002,6.645,4.919c1.9,1.906,3.337,4.116,4.473,6.348c1.16,2.234,1.839,4.594,2.252,6.885
						c0.087,0.577,0.173,1.149,0.259,1.715c0.03,0.571,0.06,1.137,0.09,1.697c0.081,1.123,0.03,2.211,0.042,3.281
						c-0.009,4.277-0.016,8.186-0.023,11.702c-0.021,7.03-0.038,12.49-0.05,16.203c-0.011,1.848-0.02,3.259-0.025,4.219
						C439.848,411.529,439.831,412.02,439.831,412.02s-0.017-0.482-0.026-1.429c-0.006-0.957-0.014-2.365-0.025-4.209
						c-0.011-3.713-0.028-9.174-0.05-16.205c-0.007-3.521-0.015-7.435-0.023-11.719c-0.016-1.069,0.031-2.171-0.053-3.276
						c-0.031-0.554-0.062-1.114-0.094-1.68c-0.086-0.56-0.174-1.125-0.262-1.696c-0.416-2.265-1.094-4.597-2.247-6.801
						c-1.129-2.204-2.554-4.383-4.436-6.262c-1.861-1.889-4.069-3.555-6.573-4.841c-2.496-1.296-5.302-2.19-8.257-2.525
						c-2.946-0.322-6.036-0.168-9.178-0.202c-25.167,0.016-55.132,0.035-88.406,0.056c-8.319,0.003-16.845,0.006-25.555,0.009
						c-1.088,0.005-2.185-0.022-3.262,0.057c-0.54,0.036-1.085,0.035-1.623,0.102l-1.613,0.247c-0.543,0.061-1.07,0.2-1.597,0.341
						c-0.527,0.142-1.062,0.259-1.584,0.422c-1.019,0.397-2.081,0.698-3.052,1.222c-2.015,0.892-3.844,2.172-5.554,3.578
						c-1.702,1.433-3.158,3.141-4.46,4.962c-2.467,3.731-4.048,8.138-4.215,12.704c-0.082,1.132-0.062,2.29-0.063,3.446
						c0,1.156,0,2.314,0,3.474c0,2.32,0,4.65,0.001,6.987c0,9.351,0.001,18.839,0.001,28.441c0,6.019,0,11.993,0,17.918
						c0.001,2.969-0.067,5.906,0.556,8.755c0.588,2.849,1.736,5.555,3.262,7.99c3.068,4.859,7.784,8.636,13.162,10.375
						c5.377,1.889,11.137,1.15,16.683,1.303c22.279,0.008,43.475,0.016,63.221,0.023c9.872,0.006,19.381,0.011,28.482,0.017
						c4.55,0.003,8.998,0.006,13.338,0.009c2.17,0.002,4.313,0.003,6.428,0.005c1.058,0.002,2.111,0.015,3.141-0.058
						c0.516-0.035,1.035-0.032,1.544-0.096c0.509-0.077,1.015-0.154,1.52-0.231c4.044-0.641,7.747-2.384,10.816-4.703
						c3.084-2.318,5.521-5.279,7.142-8.51c1.643-3.221,2.516-6.677,2.688-10.03c0.128-1.673,0.044-3.345,0.072-4.966
						c0.002-1.625,0.004-3.217,0.006-4.775l0-0.184l0.178,0.043c4.671,1.117,9.401,0.099,12.764-2.234
						c3.412-2.303,5.577-5.616,6.523-8.798l0.134,0.125c-3.447,1.268-6.824,1.042-9.498,0.342c-2.694-0.741-4.763-1.969-6.241-3.15
						c-1.485-1.192-2.371-2.354-2.95-3.126C440.073,412.446,439.831,412.02,439.831,412.02z"/>
				</g>
			</g>
		</g>
		<g>
			<rect x="296.108" y="390.151" style="fill:#E0E0E0;" width="114.982" height="13.853"/>
		</g>
		<g>
			<rect x="296.108" y="413.667" style="fill:#E0E0E0;" width="89.41" height="13.853"/>
		</g>
		<g>
			<g>
				<g>
					<path style="fill:#FFBF9D;" d="M279.96,235.242c0,0-3.835-15.448-6.621-20.344c-2.786-4.896-9.218-11.817-11.005-10.578
						c-1.788,1.239,0.44,3.339,1.446,5.204l2.725,3.34l0.875,2.824c0,0-3.538,0.379-3.364,3.462c0,0-2.251-0.159-2.334,2.713
						c0,0-2.318,0.883-1.559,3.879c0.721,2.85,2.027,3.402,2.764,2.911c0.413-0.275,0.825-1.33,0.825-1.33s2.995,5.592,4.726,6.655
						c1.206,0.741,2.203,1.286,2.203,1.286l0.171,4.393c0,0,1.548,2.332,5.515-1.698C280.293,233.93,279.96,235.242,279.96,235.242z
						"/>
				</g>
				<g>
					<g>
						<path style="fill:#FF9A6C;" d="M275.837,223.341c-0.035,0.01-0.191-0.407-0.48-1.158c-0.291-0.749-0.709-1.836-1.322-3.13
							c-0.307-0.646-0.665-1.344-1.111-2.048c-0.451-0.689-1-1.429-1.577-2.163c-0.581-0.691-1.28-1.546-2.168-1.59
							c-0.436-0.001-0.921,0.186-1.09,0.553c-0.179,0.389-0.143,0.921-0.03,1.43c0.23,1.029,0.672,2.018,1.074,2.959
							c0.199,0.461,0.472,0.92,0.582,1.465c0.101,0.529,0.103,1.026,0.106,1.506c0.02,0.96-0.12,1.886,0.089,2.633
							c0.206,0.77,0.681,1.392,1.178,1.876c1.017,0.97,2.099,1.462,2.812,1.802c0.73,0.328,1.152,0.471,1.142,0.507
							c-0.009,0.033-0.453-0.044-1.219-0.319c-0.75-0.291-1.875-0.731-2.987-1.721c-0.543-0.495-1.087-1.158-1.342-2.027
							c-0.257-0.895-0.115-1.812-0.154-2.747c-0.008-0.47-0.02-0.955-0.113-1.407c-0.089-0.44-0.344-0.873-0.56-1.357
							c-0.416-0.959-0.866-1.941-1.119-3.062c-0.114-0.553-0.194-1.165,0.075-1.767c0.149-0.293,0.408-0.529,0.696-0.656
							c0.275-0.109,0.565-0.195,0.871-0.179c0.614,0.021,1.13,0.348,1.514,0.69c0.394,0.349,0.717,0.731,1.017,1.11
							c0.589,0.771,1.107,1.496,1.569,2.234c0.445,0.738,0.789,1.458,1.079,2.122c0.578,1.331,0.945,2.443,1.179,3.217
							C275.78,222.893,275.871,223.332,275.837,223.341z"/>
					</g>
				</g>
				<g>
					<g>
						<path style="fill:#FF9A6C;" d="M264.29,219.357c0.049-0.045,0.692,0.608,1.377,1.898c0.331,0.647,0.717,1.437,0.856,2.442
							c0.069,0.968,0.018,2.147-0.744,3.119c-0.388,0.461-0.873,0.838-1.537,0.886c-0.358,0.011-0.677-0.217-0.843-0.444
							c-0.179-0.229-0.285-0.471-0.383-0.686c-0.396-0.876-0.682-1.694-0.88-2.391c-0.396-1.397-0.469-2.295-0.405-2.305
							c0.078-0.016,0.279,0.851,0.756,2.193c0.24,0.67,0.554,1.457,0.964,2.3c0.191,0.418,0.446,0.849,0.786,0.824
							c0.377-0.023,0.843-0.325,1.137-0.703c0.629-0.78,0.715-1.859,0.672-2.747c-0.095-0.885-0.429-1.685-0.71-2.327
							C264.754,220.121,264.229,219.404,264.29,219.357z"/>
					</g>
				</g>
				<g>
					<g>
						<path style="fill:#FF9A6C;" d="M269.476,223.222c0.065,0.014,0.058,0.339-0.175,0.781c-0.117,0.219-0.28,0.467-0.525,0.705
							c-0.125,0.118-0.258,0.239-0.473,0.328c-0.095,0.044-0.287,0.073-0.429,0.015c0.045,0.006-0.01,0.003-0.124,0.031
							c-0.348,0.051-0.527-0.119-0.687-0.248c-0.151-0.142-0.246-0.284-0.338-0.418c-0.182-0.272-0.309-0.537-0.394-0.767
							c-0.168-0.462-0.171-0.77-0.106-0.787c0.073-0.021,0.201,0.242,0.437,0.627c0.119,0.192,0.267,0.415,0.45,0.644
							c0.165,0.231,0.44,0.479,0.543,0.436c0.059-0.002,0.183-0.072,0.397-0.005l0.018,0.007l0.005,0.002
							c0.007-0.013-0.049,0.116-0.025,0.061l0-0.001l0.002-0.004l0.007-0.015c0.003-0.01,0.005-0.02,0.005-0.029
							c-0.004-0.025,0.003-0.013,0.007-0.017c0.004,0.005,0.033-0.007,0.053-0.011c0.101-0.033,0.227-0.121,0.332-0.208
							c0.217-0.176,0.395-0.378,0.536-0.548C269.276,223.457,269.402,223.202,269.476,223.222z"/>
					</g>
				</g>
			</g>
			<g>
				<g>
					<g>
						<g>
							<g>
								<g>
									<g>
										<g>
											<g>
												<g>
													<g>
														<g>
															<g>
																<g>
																	<path style="fill:#263238;" d="M322.659,433.903l-5.183,28.307l-10.555,21.207
																		c-0.761,1.528-0.068,3.382,1.509,4.036l0,0c0.883,0.366,1.88,0.288,2.69-0.221
																		c5.154-3.235,24.053-15.229,24.316-17.322c0.305-2.424,7.449-29.496,7.449-29.496L322.659,433.903z"/>
																</g>
															</g>
														</g>
													</g>
												</g>
											</g>
										</g>
									</g>
								</g>
							</g>
						</g>
					</g>
					<g>
						<g>
							<g>
								<g>
									<g>
										<g>
											<g>
												<g>
													<g>
														<g>
															<g>
																<g>
																	<path style="fill:#E0E0E0;" d="M308.43,487.454l27.4-19.445l-0.247,1.194c-0.214,1.032-0.782,1.957-1.613,2.605
																		c-2.225,1.733-8.471,6.383-22.764,15.444C310.374,487.779,309.329,487.856,308.43,487.454L308.43,487.454z"/>
																</g>
															</g>
														</g>
													</g>
												</g>
											</g>
										</g>
									</g>
								</g>
							</g>
						</g>
					</g>
					<g style="opacity:0.6;">
						<g>
							<g>
								<g>
									<g>
										<g>
											<g>
												<g>
													<g>
														<g>
															<g>
																<g>
																	<g>
																		<path style="fill:#FFFFFF;" d="M331.832,460.807c-0.807,0.342-1.259,1.362-0.95,2.183
																			c0.413,1.095,2.115,1.562,2.862,0.347c0.662-1.076-0.005-2.591-1.266-2.664c-0.291-0.017-0.572,0.046-0.8,0.21"/>
																	</g>
																</g>
															</g>
														</g>
													</g>
												</g>
											</g>
										</g>
									</g>
								</g>
							</g>
						</g>
					</g>
					<g>
						<g>
							<g>
								<g>
									<g>
										<g>
											<g>
												<g>
													<g>
														<g>
															<g>
																<g>
																	<g>
																		<path style="fill:#FFFFFF;" d="M318.43,475.076c-0.163,0.079-0.809-1.429-2.52-2.242
																			c-1.685-0.864-3.276-0.461-3.312-0.639c-0.025-0.071,0.34-0.294,1.013-0.388c0.667-0.097,1.641-0.002,2.579,0.46
																			c0.936,0.464,1.604,1.179,1.932,1.768C318.457,474.628,318.501,475.053,318.43,475.076z"/>
																	</g>
																</g>
															</g>
														</g>
													</g>
												</g>
											</g>
										</g>
									</g>
								</g>
							</g>
						</g>
					</g>
					<g>
						<g>
							<g>
								<g>
									<g>
										<g>
											<g>
												<g>
													<g>
														<g>
															<g>
																<g>
																	<g>
																		<path style="fill:#FFFFFF;" d="M315.413,478.941c-0.159,0.094-0.874-1.009-2.246-1.728
																			c-1.355-0.75-2.669-0.739-2.678-0.924c-0.051-0.16,1.428-0.478,2.979,0.368
																			C315.026,477.486,315.576,478.896,315.413,478.941z"/>
																	</g>
																</g>
															</g>
														</g>
													</g>
												</g>
											</g>
										</g>
									</g>
								</g>
							</g>
						</g>
					</g>
					<g>
						<g>
							<g>
								<g>
									<g>
										<g>
											<g>
												<g>
													<g>
														<g>
															<g>
																<g>
																	<g>
																		<path style="fill:#FFFFFF;" d="M322.635,471.266c-0.138,0.134-1.522-1.34-3.761-2.249
																			c-2.225-0.945-4.247-0.886-4.249-1.078c-0.044-0.154,2.102-0.512,4.491,0.495
																			C321.514,469.416,322.775,471.188,322.635,471.266z"/>
																	</g>
																</g>
															</g>
														</g>
													</g>
												</g>
											</g>
										</g>
									</g>
								</g>
							</g>
						</g>
					</g>
					<g>
						<g>
							<g>
								<g>
									<g>
										<g>
											<g>
												<g>
													<g>
														<g>
															<g>
																<g>
																	<g>
																		<path style="fill:#FFFFFF;" d="M324.148,465.974c-0.11,0.153-1.532-0.819-3.543-1.311
																			c-2.004-0.52-3.717-0.338-3.742-0.525c-0.049-0.154,1.741-0.642,3.896-0.088
																			C322.919,464.584,324.264,465.862,324.148,465.974z"/>
																	</g>
																</g>
															</g>
														</g>
													</g>
												</g>
											</g>
										</g>
									</g>
								</g>
							</g>
						</g>
					</g>
				</g>
				<g>
					<g>
						<g>
							<g>
								<g>
									<g>
										<g>
											<g>
												<g>
													<g>
														<g>
															<g>
																<g>
																	<g>
																		<g>
																			<g>
																				<g>
																					<path style="fill:#263238;" d="M333.135,439.665l8.72,20.145c0,0-17.548,15.629-16.299,19.509l39.667-15.505
																						l-12.299-31.946L333.135,439.665z"/>
																				</g>
																			</g>
																		</g>
																	</g>
																</g>
															</g>
														</g>
													</g>
												</g>
											</g>
										</g>
									</g>
								</g>
							</g>
						</g>
					</g>
					<g>
						<g>
							<g>
								<g>
									<g>
										<g>
											<g>
												<g>
													<g>
														<g>
															<g>
																<g>
																	<g>
																		<g>
																			<g>
																				<g>
																					<path style="fill:#E0E0E0;" d="M365.224,463.814l-1.191-3.094l-37.696,15.974c0,0-1.466,1.459-0.78,2.625
																						L365.224,463.814z"/>
																				</g>
																			</g>
																		</g>
																	</g>
																</g>
															</g>
														</g>
													</g>
												</g>
											</g>
										</g>
									</g>
								</g>
							</g>
						</g>
					</g>
					<g>
						<g>
							<g>
								<g>
									<g>
										<g>
											<g>
												<g>
													<g>
														<g>
															<g>
																<g>
																	<g>
																		<g>
																			<g>
																				<g>
																					<g>
																						<path style="fill:#FFFFFF;" d="M341.134,459.859c0.082,0.191,1.085-0.099,2.282,0.151
																							c1.203,0.219,2.022,0.866,2.17,0.72c0.164-0.107-0.578-1.152-2.032-1.43
																							C342.103,459.009,341.022,459.698,341.134,459.859z"/>
																					</g>
																				</g>
																			</g>
																		</g>
																	</g>
																</g>
															</g>
														</g>
													</g>
												</g>
											</g>
										</g>
									</g>
								</g>
							</g>
						</g>
					</g>
					<g>
						<g>
							<g>
								<g>
									<g>
										<g>
											<g>
												<g>
													<g>
														<g>
															<g>
																<g>
																	<g>
																		<g>
																			<g>
																				<g>
																					<g>
																						<path style="fill:#FFFFFF;" d="M337.646,463.207c0.029,0.205,0.997,0.206,1.975,0.769
																							c0.995,0.533,1.507,1.354,1.696,1.27c0.194-0.04-0.115-1.227-1.345-1.903
																							C338.749,462.656,337.578,463.02,337.646,463.207z"/>
																					</g>
																				</g>
																			</g>
																		</g>
																	</g>
																</g>
															</g>
														</g>
													</g>
												</g>
											</g>
										</g>
									</g>
								</g>
							</g>
						</g>
					</g>
					<g>
						<g>
							<g>
								<g>
									<g>
										<g>
											<g>
												<g>
													<g>
														<g>
															<g>
																<g>
																	<g>
																		<g>
																			<g>
																				<g>
																					<g>
																						<path style="fill:#FFFFFF;" d="M337.229,469.11c0.192-0.028,0.083-1.101-0.829-1.967
																							c-0.906-0.873-1.983-0.935-2.002-0.741c-0.047,0.202,0.763,0.541,1.501,1.264
																							C336.655,468.371,337.029,469.166,337.229,469.11z"/>
																					</g>
																				</g>
																			</g>
																		</g>
																	</g>
																</g>
															</g>
														</g>
													</g>
												</g>
											</g>
										</g>
									</g>
								</g>
							</g>
						</g>
					</g>
				</g>
				<g>
					<path style="fill:#263238;" d="M395.559,348.111c0,0-1.987,12.779-11.448,15.232c-9.461,2.453-27.595,13.401-27.595,13.401
						s-1.493,25.88-5.25,38.872c-3.758,12.992-12.201,41.267-12.201,41.267l-21.77-4.851c0,0,11.682-75.627,13.776-89.797
						c2.094-14.17,22.117-26.868,22.117-26.868l5.563-23.42l25.539-0.789C384.291,311.158,397.477,336.23,395.559,348.111z"/>
				</g>
				<g>
					<path style="fill:#263238;" d="M332.135,309.395c0.172,1.016-8.533,13.175-9.844,17.184c0,0-23.632,16.164-18.856,45.832
						c5.904,36.671,32.012,79.326,32.207,77.844l22.516-9.395c0,0-16.987-63.36-16.431-64.069
						c0.556-0.709,11.867-40.183,11.867-40.183l5.158-24.662L332.135,309.395z"/>
				</g>
				<g>
					<g>
						<path style="fill:#455A64;" d="M369.957,328.53c0,0-0.245,0.061-0.725,0.154c-0.482,0.081-1.188,0.27-2.102,0.543
							c-1.828,0.554-4.466,1.57-7.755,3.122c-1.644,0.776-3.453,1.683-5.403,2.732c-0.991,0.484-1.895,1.207-2.885,1.888
							c-0.974,0.702-1.971,1.454-2.982,2.258c-2.028,1.602-4.125,3.411-6.203,5.479c-2.066,2.073-4.191,4.351-6.032,7.034
							c-1.835,2.667-3.503,5.706-4.293,9.152c-0.096,0.431-0.193,0.863-0.291,1.298c-0.069,0.445-0.139,0.892-0.209,1.341
							c-0.137,0.9-0.275,1.808-0.414,2.725c-0.279,1.834-0.563,3.702-0.852,5.604c-1.159,7.606-2.399,15.74-3.704,24.309
							c-2.622,17.14-5.511,36.02-8.553,55.902l-0.201-0.294c1.656,0.369,3.442,0.767,5.236,1.167
							c5.601,1.249,11.129,2.481,16.534,3.686l-0.304,0.178c4.457-15.143,8.797-29.543,12.637-42.842
							c1.684-6.7,2.531-13.298,3.284-19.533c0.708-6.245,1.23-12.168,1.583-17.7l0.007-0.104l0.087-0.052
							c6.752-3.986,13.014-7.342,18.687-9.948c2.84-1.291,5.535-2.402,8.111-3.158c0.65-0.181,1.266-0.384,1.861-0.59
							c0.614-0.167,1.154-0.472,1.691-0.747c1.068-0.561,1.979-1.282,2.77-2.029c1.576-1.514,2.634-3.178,3.424-4.661
							c0.787-1.492,1.309-2.83,1.669-3.928c0.368-1.096,0.591-1.952,0.727-2.529c0.141-0.577,0.204-0.875,0.204-0.875
							s-0.124,1.223-0.824,3.439c-0.344,1.108-0.852,2.458-1.629,3.97c-0.781,1.502-1.833,3.192-3.42,4.741
							c-0.797,0.764-1.719,1.505-2.805,2.085c-0.546,0.285-1.096,0.599-1.722,0.774c-0.611,0.216-1.236,0.425-1.872,0.606
							c-2.549,0.764-5.229,1.885-8.055,3.185c-5.645,2.625-11.891,6.002-18.615,10l0.094-0.155
							c-0.336,5.544-0.843,11.471-1.537,17.728c-0.741,6.247-1.575,12.852-3.259,19.602c-3.827,13.331-8.148,27.719-12.601,42.871
							l-0.068,0.231l-0.236-0.053c-5.405-1.204-10.933-2.435-16.534-3.683c-1.793-0.4-3.579-0.798-5.236-1.167l-0.238-0.053
							l0.037-0.241c3.058-19.879,5.962-38.756,8.598-55.893c1.323-8.566,2.579-16.697,3.753-24.301
							c0.294-1.9,0.583-3.768,0.867-5.601c0.142-0.917,0.283-1.824,0.422-2.724c0.071-0.449,0.142-0.897,0.213-1.342
							c0.1-0.444,0.2-0.886,0.3-1.326c0.818-3.518,2.521-6.587,4.383-9.273c1.868-2.702,4.015-4.983,6.1-7.058
							c2.097-2.069,4.211-3.875,6.255-5.472c1.019-0.802,2.023-1.55,3.005-2.249c0.993-0.675,1.914-1.401,2.924-1.887
							c1.961-1.038,3.779-1.933,5.434-2.697c3.308-1.528,5.966-2.516,7.81-3.041C368.945,328.6,369.957,328.53,369.957,328.53z"/>
					</g>
				</g>
				<g>
					<g>
						<path style="fill:#455A64;" d="M339.023,331.136c0.064-0.122,2.593,1.106,5.474,3.025c2.886,1.913,4.998,3.768,4.91,3.874
							c-0.094,0.117-2.335-1.543-5.199-3.441C341.351,332.691,338.951,331.268,339.023,331.136z"/>
					</g>
				</g>
				<g>
					<g>
						<path style="fill:#455A64;" d="M357.105,367.208c0.131-0.018,0.471,2.363,0.124,5.287c-0.333,2.928-1.21,5.166-1.333,5.119
							c-0.149-0.046,0.491-2.312,0.816-5.179C357.053,369.571,356.95,367.218,357.105,367.208z"/>
					</g>
				</g>
			</g>
			<g>
				<g>
					<path style="fill:#263238;" d="M379.35,218.231c2.018-6.189,4.035-12.377,6.053-18.566l4.469-8.451
						c3.248-1.853,10.004,2.162,12.281,5.128c2.277,2.966,2.72,7,2.169,10.699c-0.366,2.45-1.102,5.076-0.018,7.303
						c1.243,2.556,4.534,3.737,5.489,6.414c0.623,1.749,0.046,3.749-1.053,5.245c-1.099,1.496-2.658,2.581-4.21,3.6
						c-1.398,0.919-2.844,1.822-4.464,2.241s-3.462,0.287-4.793-0.727c-0.06,2.45-2.297,4.553-4.739,4.756
						c-2.443,0.203-4.856-1.295-6.051-3.435c-1.195-2.14-1.259-4.799-0.496-7.128c-0.672,1.249-2.522,1.504-3.717,0.74
						c-1.195-0.764-1.764-2.255-1.784-3.673C378.466,220.959,378.911,219.58,379.35,218.231z"/>
				</g>
				<g>
					<g>
						<g>
							<g>
								<g>
									<g>
										<g>
											<g>
												<path style="fill:#263238;" d="M389.112,191.352c-2.978-7.398-8.39-12.812-15.961-15.317
													c-4.271-1.413-6.327-1.076-9.68-1.208c-3.353-0.133-6.661,0.654-9.324,2.696c-3.163,2.425-6.092,5.332-7.688,8.983
													c-1.639,3.751-3.288,7.528-4.213,11.516c-0.925,3.988-1.093,8.243,0.212,12.123l9.376,4.822
													c5.417,1.898,10.912,3.813,16.637,4.232c5.725,0.418,11.805-0.831,16.123-4.613
													C390.591,209.33,392.09,198.749,389.112,191.352z"/>
											</g>
										</g>
									</g>
									<g>
										<path style="fill:#FFBF9D;" d="M365.158,178.465l3.578,0.678l11.575,9.385c1.879,0.693,2.915,2.709,2.384,4.641
											l-14.319,41.238l-21.566,0.835l2.88-10.247c0,0-8.573-3.627-7.568-14.686c0.5-5.5,2.962-14.102,5.204-21.074
											C349.344,182.957,357.38,176.064,365.158,178.465z"/>
									</g>
									<g>
										<g>
											<g>
												<path style="fill:#FF9A6C;" d="M358.421,212.742c0.099-0.569-0.054-1.146-0.337-1.599
													c-0.567-0.905-1.678-1.323-2.686-1.011c-1.007,0.313-1.849,1.337-2.033,2.476l0,0c0.265,0.785,0.842,1.439,1.608,1.753
													c0.119,0.049,0.241,0.092,0.365,0.127c0.602,0.171,1.273,0.16,1.867-0.138
													C357.799,214.052,358.299,213.443,358.421,212.742z"/>
											</g>
										</g>
									</g>
									<g>
										<g>
											<g>
												<path style="fill:#263238;" d="M348.035,199.087c-0.208,0.714,0.225,1.478,0.966,1.709
													c0.74,0.23,1.509-0.159,1.717-0.873c0.208-0.714-0.225-1.479-0.965-1.709
													C349.012,197.983,348.242,198.374,348.035,199.087z"/>
											</g>
										</g>
									</g>
									<g>
										<g>
											<g>
												<path style="fill:#263238;" d="M348.601,193.469c0.124,0.221,1.35-0.282,2.817,0.094c1.47,0.354,2.355,1.382,2.56,1.242
													c0.099-0.06,0.007-0.424-0.375-0.884c-0.375-0.457-1.079-0.986-1.994-1.215c-0.915-0.226-1.77-0.085-2.298,0.148
													C348.773,193.085,348.538,193.368,348.601,193.469z"/>
											</g>
										</g>
									</g>
									<g>
										<g>
											<g>
												<path style="fill:#263238;" d="M354.335,207.68c0.028-0.082-0.844-0.47-2.274-1.034
													c-0.364-0.133-0.701-0.298-0.699-0.57c-0.02-0.293,0.239-0.657,0.531-1.047c0.582-0.817,1.192-1.674,1.831-2.572
													c2.567-3.672,4.528-6.73,4.379-6.832c-0.149-0.102-2.351,2.791-4.919,6.463c-0.624,0.908-1.22,1.773-1.788,2.601
													c-0.25,0.39-0.616,0.811-0.567,1.421c0.03,0.306,0.254,0.578,0.477,0.704c0.222,0.134,0.431,0.191,0.614,0.25
													C353.387,207.521,354.308,207.762,354.335,207.68z"/>
											</g>
										</g>
									</g>
									<g>
										<g>
											<g>
												<path style="fill:#FF9A6C;" d="M349.676,224.977c0,0,7.035,2.273,15.2-0.19c0,0-5.591,6.72-15.98,3.029L349.676,224.977
													z"/>
											</g>
										</g>
									</g>
									<g>
										<g>
											<g>
												<path style="fill:#263238;" d="M358.395,209.788c-0.235-0.074-0.641,1.517-2.291,2.302c-1.648,0.79-3.3,0.18-3.369,0.4
													c-0.047,0.094,0.3,0.405,1.011,0.606c0.697,0.202,1.781,0.237,2.79-0.244c1.008-0.482,1.599-1.317,1.819-1.956
													C358.584,210.247,358.507,209.807,358.395,209.788z"/>
											</g>
										</g>
									</g>
									<g>
										<g>
											<g>
												<path style="fill:#263238;" d="M350.672,188.571c0.156,0.421,1.34,0.466,2.625,0.908c1.299,0.4,2.285,1.063,2.655,0.813
													c0.168-0.125,0.113-0.51-0.25-0.986c-0.357-0.472-1.048-1.001-1.936-1.291c-0.888-0.289-1.755-0.268-2.318-0.096
													C350.876,188.09,350.608,188.37,350.672,188.571z"/>
											</g>
										</g>
									</g>
									<g>
										<g>
											<g>
												<path style="fill:#263238;" d="M363.511,203.209c-0.184,0.72-0.945,1.158-1.701,0.979
													c-0.754-0.178-1.218-0.905-1.034-1.625c0.184-0.72,0.946-1.159,1.7-0.981
													C363.232,201.761,363.695,202.489,363.511,203.209z"/>
											</g>
										</g>
									</g>
									<g>
										<g>
											<g>
												<path style="fill:#263238;" d="M368.297,199.013c-0.219,0.127-1.019-0.93-2.473-1.353
													c-1.446-0.443-2.731-0.008-2.836-0.233c-0.054-0.101,0.21-0.369,0.773-0.571c0.556-0.202,1.431-0.301,2.334-0.031
													c0.904,0.271,1.566,0.827,1.904,1.296C368.344,198.596,368.403,198.958,368.297,199.013z"/>
											</g>
										</g>
									</g>
									<g>
										<g>
											<g>
												<path style="fill:#263238;" d="M368.874,194.12c-0.383,0.245-1.403-0.425-2.745-0.837
													c-1.329-0.454-2.553-0.509-2.715-0.931c-0.066-0.201,0.211-0.479,0.801-0.645c0.583-0.167,1.479-0.18,2.397,0.117
													c0.918,0.298,1.633,0.832,2.002,1.308C368.991,193.611,369.048,193.997,368.874,194.12z"/>
											</g>
										</g>
									</g>
									<g>
										<g>
											<g>
												<path style="fill:#FFBF9D;" d="M375.409,210.173c0.202-0.791,1.591-2.426,2.404-2.35
													c2.17,0.204,5.891,1.325,4.583,6.636c-1.789,7.261-8.71,3.967-8.671,3.756
													C373.754,218.049,374.71,212.905,375.409,210.173z"/>
											</g>
										</g>
									</g>
									<g>
										<g>
											<g>
												<path style="fill:#FF9A6C;" d="M376.381,216.056c0.038-0.015,0.105,0.12,0.294,0.27
													c0.185,0.147,0.528,0.301,0.941,0.253c0.836-0.092,1.782-1.151,2.139-2.451c0.182-0.656,0.198-1.32,0.093-1.898
													c-0.091-0.586-0.343-1.041-0.713-1.205c-0.362-0.184-0.692-0.02-0.832,0.162c-0.147,0.179-0.137,0.336-0.178,0.339
													c-0.025,0.013-0.126-0.16,0.006-0.445c0.066-0.137,0.193-0.288,0.398-0.385c0.209-0.099,0.483-0.108,0.745-0.012
													c0.55,0.177,0.927,0.816,1.044,1.451c0.146,0.645,0.143,1.395-0.06,2.132c-0.407,1.452-1.493,2.636-2.618,2.681
													c-0.543,0.007-0.932-0.252-1.109-0.477C376.351,216.235,376.352,216.063,376.381,216.056z"/>
											</g>
										</g>
									</g>
									<g>
										<g>
											<g>
												<path style="fill:#263238;" d="M378.097,207.934l-2.397,1.312c-5.477-9.925-14.896-33.432-14.393-32.049
													c0,0,6.043-0.528,11.545,2.279c5.502,2.807,15.617,9.162,13.305,15.963C383.845,202.24,378.097,207.934,378.097,207.934
													z"/>
											</g>
										</g>
									</g>
								</g>
							</g>
						</g>
					</g>
				</g>
			</g>
			<g>
				<g>
					<path style="fill:#455A64;" d="M390.783,191.894c-0.09,0.035,0.589,1.445,1.045,3.887c0.466,2.419,0.574,5.942-0.599,9.54
						c-1.175,3.599-3.341,6.379-5.145,8.057c-1.809,1.702-3.19,2.44-3.137,2.521c0.014,0.025,0.369-0.135,0.974-0.495
						c0.605-0.357,1.447-0.939,2.396-1.772c1.896-1.641,4.169-4.462,5.377-8.161c1.206-3.698,1.035-7.316,0.473-9.76
						c-0.275-1.232-0.612-2.199-0.89-2.845C391.001,192.221,390.81,191.882,390.783,191.894z"/>
				</g>
			</g>
			<g>
				<g>
					<path style="fill:#FFBF9D;" d="M409.112,346.497l10.786,2.93c0,0,8.639-0.676,10.121,0.843c1.482,1.52,5.217,5.926,5.217,5.926
						s2.315,0.628,1.743,1.368c-0.572,0.741-2.544,0.943-3.967,0.566c-1.423-0.377-10.86-3.433-10.86-3.433
						s-0.965,2.761-3.171,2.054s-6.469-2.498-7.814-2.78c-1.345-0.283-10.527-1.319-11.076-1.978
						c-0.549-0.66-2.177-10.152-2.177-10.152l8.78-1.915L409.112,346.497z"/>
				</g>
				<g>
					<g>
						<path style="fill:#FF9A6C;" d="M424.075,351.523c0.061-0.13,2.632,0.834,5.741,2.154c3.11,1.32,5.59,2.499,5.538,2.634
							c-0.051,0.134-2.622-0.83-5.742-2.154C426.494,352.833,424.014,351.654,424.075,351.523z"/>
					</g>
				</g>
				<g>
					<g>
						<path style="fill:#FF9A6C;" d="M413.311,350.312c0.041-0.132,2.184,0.437,4.648,1.602c1.233,0.582,2.302,1.181,3.055,1.68
							c0.765,0.509,1.065,1.03,1.004,1.066c-0.059,0.045-0.426-0.351-1.197-0.752c-0.773-0.402-1.871-0.95-3.085-1.523
							C415.307,351.236,413.264,350.453,413.311,350.312z"/>
					</g>
				</g>
			</g>
			<g>
				<g>
					<path style="fill:#FF725E;" d="M340.397,233.104c0,0-11.414-0.421-17.553,3.698c-6.139,4.119-27.505,20.663-27.505,20.663
						l-14.269-26.422l-13.65,8.493c0,0,13.78,37.756,24.015,40.542c13.558,3.69,32.589-13.836,32.589-13.836L340.397,233.104z"/>
				</g>
				<g>
					<polygon style="fill:#FFBF9D;" points="332.75,233.672 348.615,230.995 368.827,230.218 381.173,234.248 365.28,257.532 
						343.091,260.733 					"/>
				</g>
				<g>
					<path style="fill:#FF725E;" d="M383.085,268.221c0,1.172-0.642,24.608,1.901,32.225c2.543,7.617,13.207,42.977,13.207,42.977
						l11.856-1.707l-7.784-49.772c0,0-3.351-42.251-4.678-46.766c-2.31-7.863-9.074-8.908-9.074-8.908L383.085,268.221z"/>
				</g>
				<g>
					<path style="fill:#FF725E;" d="M389.528,236.624c-0.82-0.235-16.06-4.891-16.06-4.891s-8.922,15.976-21.346,14.178
						c-10.635-1.54-11.314-13.549-11.314-13.549l-10.571,1.719c-1.02-0.553-11.121,38.923-4.371,48.626
						c5.557,7.989,5.637,9.881,5.637,9.881c1.467-0.07-6.751,22.486-5.345,25.182c12.486,23.945,63.37-0.609,63.37-0.609
						l-4.985-28.676L389.528,236.624z"/>
				</g>
				<g>
					<g>
						<path style="fill:#263238;" d="M388.353,249.782c0.018,0.003,0.001,0.241-0.046,0.693c-0.06,0.503-0.137,1.158-0.234,1.972
							c-0.229,1.771-0.548,4.23-0.938,7.242c-0.398,3.057-0.87,6.697-1.318,10.746c-0.463,4.046-0.89,8.506-1.068,13.196
							c-0.183,4.691,0.002,9.166,0.519,13.197c0.514,4.032,1.248,7.628,1.953,10.626c0.686,3.003,1.298,5.421,1.714,7.094
							c0.192,0.797,0.347,1.438,0.466,1.93c0.101,0.443,0.146,0.678,0.128,0.682c-0.017,0.005-0.096-0.221-0.23-0.655
							c-0.143-0.486-0.329-1.119-0.56-1.906c-0.476-1.658-1.142-4.064-1.876-7.062c-0.752-2.992-1.526-6.595-2.07-10.649
							c-0.547-4.053-0.748-8.564-0.563-13.277c0.18-4.712,0.622-9.183,1.112-13.232c0.474-4.052,0.985-7.689,1.429-10.741
							c0.438-3.053,0.827-5.518,1.102-7.221c0.137-0.809,0.246-1.459,0.331-1.959C388.284,250.013,388.335,249.779,388.353,249.782z
							"/>
					</g>
				</g>
				<g>
					<g>
						<path style="fill:#263238;" d="M325.497,254.45c0.035,0.008-0.032,0.518-0.184,1.434c-0.163,0.914-0.367,2.242-0.618,3.88
							c-0.218,1.643-0.481,3.599-0.61,5.783c-0.156,2.181-0.186,4.59,0.029,7.098c0.214,2.508,0.647,4.876,1.269,6.966
							c0.656,2.076,1.368,3.916,2.151,5.371c1.513,2.939,2.797,4.562,2.703,4.627c-0.029,0.022-0.352-0.378-0.913-1.123
							c-0.286-0.369-0.623-0.829-0.966-1.397c-0.351-0.562-0.778-1.188-1.15-1.937c-0.835-1.45-1.594-3.302-2.285-5.403
							c-0.657-2.115-1.112-4.519-1.328-7.061c-0.218-2.543-0.173-4.979,0.011-7.176c0.156-2.201,0.459-4.164,0.725-5.807
							c0.299-1.638,0.558-2.959,0.783-3.862C325.327,254.939,325.461,254.443,325.497,254.45z"/>
					</g>
				</g>
				<g>
					<g>
						<path style="fill:#263238;" d="M372.237,295.446c0.005,0.017-0.201,0.093-0.597,0.222c-0.397,0.128-0.982,0.315-1.741,0.535
							c-1.517,0.45-3.723,1.064-6.467,1.753c-2.745,0.684-6.029,1.445-9.699,2.171c-1.835,0.366-3.766,0.723-5.774,1.062
							c-1.005,0.163-2.028,0.328-3.065,0.496c-1.022,0.132-2.115,0.441-3.275,0.131c-0.561-0.129-1.178-0.59-1.284-1.249
							c-0.139-0.66,0.238-1.272,0.639-1.644c0.844-0.788,1.855-1.114,2.745-1.589c1.837-0.884,3.63-1.691,5.353-2.424
							c3.446-1.468,6.614-2.631,9.3-3.523c2.686-0.895,4.889-1.524,6.419-1.928c0.764-0.206,1.362-0.348,1.768-0.441
							c0.406-0.093,0.621-0.134,0.626-0.116s-0.202,0.092-0.599,0.217c-0.45,0.138-1.027,0.316-1.74,0.535
							c-1.51,0.463-3.693,1.145-6.356,2.081c-2.664,0.935-5.807,2.129-9.23,3.616c-1.712,0.742-3.493,1.556-5.32,2.443
							c-0.895,0.474-1.907,0.83-2.606,1.501c-0.348,0.332-0.581,0.756-0.49,1.173c0.074,0.428,0.441,0.723,0.915,0.848
							c0.96,0.269,2.017-0.001,3.055-0.142c1.036-0.165,2.056-0.327,3.06-0.487c2.004-0.331,3.933-0.677,5.766-1.029
							c3.668-0.698,6.953-1.421,9.705-2.058c2.751-0.643,4.968-1.201,6.5-1.591c0.724-0.181,1.309-0.327,1.766-0.441
							C372.017,295.471,372.232,295.429,372.237,295.446z"/>
					</g>
				</g>
			</g>
		</g>
	</g>
</g>
</svg>
